<ttFont>
    <TTGlyph name="A" xMin="5" yMin="-21" xMax="569" yMax="663">
      <contour>
        <pt x="388" y="268" on="1"/>
        <pt x="354" y="357" on="0"/>
        <pt x="285" y="569" on="1"/>
        <pt x="276" y="546" on="0"/>
        <pt x="202" y="336" on="0"/>
        <pt x="174" y="268" on="1"/>
        <pt x="252" y="266" on="0"/>
        <pt x="296" y="266" on="1"/>
        <pt x="358" y="266" on="0"/>
      </contour>
      <contour>
        <pt x="275" y="207" on="1"/>
        <pt x="249" y="207" on="0"/>
        <pt x="149" y="209" on="1"/>
        <pt x="82" y="40" on="0"/>
        <pt x="65" y="-21" on="1"/>
        <pt x="32" y="-14" on="0"/>
        <pt x="5" y="4" on="0"/>
        <pt x="5" y="19" on="1"/>
        <pt x="5" y="31" on="0"/>
        <pt x="90" y="231" on="0"/>
        <pt x="212" y="540" on="0"/>
        <pt x="247" y="660" on="1"/>
        <pt x="266" y="663" on="0"/>
        <pt x="289" y="663" on="1"/>
        <pt x="314" y="663" on="0"/>
        <pt x="334" y="646" on="0"/>
        <pt x="345" y="610" on="1"/>
        <pt x="408" y="407" on="0"/>
        <pt x="457" y="280" on="1"/>
        <pt x="535" y="76" on="0"/>
        <pt x="569" y="10" on="1"/>
        <pt x="541" y="-10" on="0"/>
        <pt x="521" y="-10" on="1"/>
        <pt x="489" y="-10" on="0"/>
        <pt x="478" y="17" on="1"/>
        <pt x="459" y="66" on="0"/>
        <pt x="409" y="209" on="1"/>
        <pt x="297" y="207" on="0"/>
      </contour>
    </TTGlyph>
    <TTGlyph name="AE" xMin="0" yMin="-10" xMax="734" yMax="666">
      <contour>
        <pt x="353" y="578" on="1"/>
        <pt x="338" y="549" on="0"/>
        <pt x="234" y="334" on="0"/>
        <pt x="198" y="268" on="1"/>
        <pt x="276" y="266" on="0"/>
        <pt x="318" y="266" on="1"/>
        <pt x="358" y="266" on="1"/>
        <pt x="358" y="424" on="1"/>
        <pt x="358" y="503" on="0"/>
      </contour>
      <contour>
        <pt x="429" y="599" on="1"/>
        <pt x="433" y="555" on="0"/>
        <pt x="433" y="387" on="1"/>
        <pt x="512" y="387" on="1"/>
        <pt x="596" y="387" on="0"/>
        <pt x="632" y="391" on="1"/>
        <pt x="636" y="383" on="0"/>
        <pt x="636" y="365" on="1"/>
        <pt x="636" y="342" on="0"/>
        <pt x="615" y="326" on="0"/>
        <pt x="592" y="325" on="1"/>
        <pt x="566" y="324" on="0"/>
        <pt x="521" y="324" on="1"/>
        <pt x="433" y="324" on="1"/>
        <pt x="433" y="106" on="0"/>
        <pt x="440" y="62" on="1"/>
        <pt x="484" y="60" on="0"/>
        <pt x="511" y="60" on="1"/>
        <pt x="679" y="60" on="0"/>
        <pt x="726" y="83" on="1"/>
        <pt x="734" y="63" on="0"/>
        <pt x="734" y="39" on="1"/>
        <pt x="734" y="21" on="0"/>
        <pt x="725" y="13" on="1"/>
        <pt x="707" y="-2" on="0"/>
        <pt x="563" y="-2" on="1"/>
        <pt x="435" y="-2" on="0"/>
        <pt x="405" y="0" on="1"/>
        <pt x="376" y="1" on="0"/>
        <pt x="356" y="27" on="0"/>
        <pt x="356" y="57" on="1"/>
        <pt x="356" y="91" on="0"/>
        <pt x="358" y="207" on="1"/>
        <pt x="290" y="207" on="1"/>
        <pt x="266" y="207" on="0"/>
        <pt x="166" y="209" on="1"/>
        <pt x="78" y="40" on="0"/>
        <pt x="59" y="-10" on="1"/>
        <pt x="0" y="-1" on="0"/>
        <pt x="0" y="31" on="1"/>
        <pt x="0" y="40" on="0"/>
        <pt x="46" y="126" on="0"/>
        <pt x="132" y="280" on="0"/>
        <pt x="154" y="321" on="1"/>
        <pt x="252" y="503" on="0"/>
        <pt x="314" y="654" on="1"/>
        <pt x="433" y="666" on="0"/>
        <pt x="562" y="666" on="1"/>
        <pt x="706" y="666" on="0"/>
        <pt x="724" y="651" on="1"/>
        <pt x="733" y="643" on="0"/>
        <pt x="733" y="625" on="1"/>
        <pt x="733" y="601" on="0"/>
        <pt x="725" y="581" on="1"/>
        <pt x="668" y="602" on="0"/>
        <pt x="539" y="602" on="1"/>
        <pt x="486" y="602" on="0"/>
      </contour>
    </TTGlyph>
    <TTGlyph name="Aacute" xMin="5" yMin="-21" xMax="569" yMax="894">
      <contour>
        <pt x="401" y="811" on="1"/>
        <pt x="379" y="795" on="0"/>
        <pt x="264" y="728" on="0"/>
        <pt x="251" y="716" on="1"/>
        <pt x="235" y="730" on="0"/>
        <pt x="235" y="745" on="1"/>
        <pt x="235" y="762" on="0"/>
        <pt x="267" y="787" on="0"/>
        <pt x="350" y="849" on="0"/>
        <pt x="391" y="894" on="1"/>
        <pt x="426" y="874" on="0"/>
        <pt x="426" y="848" on="1"/>
        <pt x="426" y="828" on="0"/>
      </contour>
      <contour>
        <pt x="388" y="268" on="1"/>
        <pt x="354" y="357" on="0"/>
        <pt x="285" y="569" on="1"/>
        <pt x="276" y="546" on="0"/>
        <pt x="202" y="336" on="0"/>
        <pt x="174" y="268" on="1"/>
        <pt x="252" y="266" on="0"/>
        <pt x="296" y="266" on="1"/>
        <pt x="358" y="266" on="0"/>
      </contour>
      <contour>
        <pt x="275" y="207" on="1"/>
        <pt x="249" y="207" on="0"/>
        <pt x="149" y="209" on="1"/>
        <pt x="82" y="40" on="0"/>
        <pt x="65" y="-21" on="1"/>
        <pt x="32" y="-14" on="0"/>
        <pt x="5" y="4" on="0"/>
        <pt x="5" y="19" on="1"/>
        <pt x="5" y="31" on="0"/>
        <pt x="90" y="231" on="0"/>
        <pt x="212" y="540" on="0"/>
        <pt x="247" y="660" on="1"/>
        <pt x="266" y="663" on="0"/>
        <pt x="289" y="663" on="1"/>
        <pt x="314" y="663" on="0"/>
        <pt x="334" y="646" on="0"/>
        <pt x="345" y="610" on="1"/>
        <pt x="408" y="407" on="0"/>
        <pt x="457" y="280" on="1"/>
        <pt x="535" y="76" on="0"/>
        <pt x="569" y="10" on="1"/>
        <pt x="541" y="-10" on="0"/>
        <pt x="521" y="-10" on="1"/>
        <pt x="489" y="-10" on="0"/>
        <pt x="478" y="17" on="1"/>
        <pt x="459" y="66" on="0"/>
        <pt x="409" y="209" on="1"/>
        <pt x="297" y="207" on="0"/>
      </contour>
    </TTGlyph>
    <TTGlyph name="Acircumflex" xMin="5" yMin="-21" xMax="569" yMax="871">
      <contour>
        <pt x="303" y="871" on="1"/>
        <pt x="350" y="841" on="0"/>
        <pt x="433" y="766" on="0"/>
        <pt x="433" y="739" on="1"/>
        <pt x="433" y="721" on="0"/>
        <pt x="410" y="711" on="1"/>
        <pt x="391" y="735" on="0"/>
        <pt x="337" y="779" on="0"/>
        <pt x="319" y="790" on="1"/>
        <pt x="301" y="800" on="1"/>
        <pt x="295" y="795" on="0"/>
        <pt x="270" y="774" on="0"/>
        <pt x="255" y="762" on="0"/>
        <pt x="233" y="745" on="0"/>
        <pt x="218" y="734" on="0"/>
        <pt x="203" y="724" on="0"/>
        <pt x="191" y="719" on="0"/>
        <pt x="187" y="719" on="1"/>
        <pt x="175" y="719" on="0"/>
        <pt x="162" y="737" on="1"/>
        <pt x="226" y="814" on="0"/>
      </contour>
      <contour>
        <pt x="388" y="268" on="1"/>
        <pt x="354" y="357" on="0"/>
        <pt x="285" y="569" on="1"/>
        <pt x="276" y="546" on="0"/>
        <pt x="202" y="336" on="0"/>
        <pt x="174" y="268" on="1"/>
        <pt x="252" y="266" on="0"/>
        <pt x="296" y="266" on="1"/>
        <pt x="358" y="266" on="0"/>
      </contour>
      <contour>
        <pt x="275" y="207" on="1"/>
        <pt x="249" y="207" on="0"/>
        <pt x="149" y="209" on="1"/>
        <pt x="82" y="40" on="0"/>
        <pt x="65" y="-21" on="1"/>
        <pt x="32" y="-14" on="0"/>
        <pt x="5" y="4" on="0"/>
        <pt x="5" y="19" on="1"/>
        <pt x="5" y="31" on="0"/>
        <pt x="90" y="231" on="0"/>
        <pt x="212" y="540" on="0"/>
        <pt x="247" y="660" on="1"/>
        <pt x="266" y="663" on="0"/>
        <pt x="289" y="663" on="1"/>
        <pt x="314" y="663" on="0"/>
        <pt x="334" y="646" on="0"/>
        <pt x="345" y="610" on="1"/>
        <pt x="408" y="407" on="0"/>
        <pt x="457" y="280" on="1"/>
        <pt x="535" y="76" on="0"/>
        <pt x="569" y="10" on="1"/>
        <pt x="541" y="-10" on="0"/>
        <pt x="521" y="-10" on="1"/>
        <pt x="489" y="-10" on="0"/>
        <pt x="478" y="17" on="1"/>
        <pt x="459" y="66" on="0"/>
        <pt x="409" y="209" on="1"/>
        <pt x="297" y="207" on="0"/>
      </contour>
    </TTGlyph>
    <TTGlyph name="Adieresis" xMin="5" yMin="-21" xMax="569" yMax="819">
      <contour>
        <pt x="388" y="268" on="1"/>
        <pt x="354" y="357" on="0"/>
        <pt x="285" y="569" on="1"/>
        <pt x="276" y="546" on="0"/>
        <pt x="202" y="336" on="0"/>
        <pt x="174" y="268" on="1"/>
        <pt x="252" y="266" on="0"/>
        <pt x="296" y="266" on="1"/>
        <pt x="358" y="266" on="0"/>
      </contour>
      <contour>
        <pt x="275" y="207" on="1"/>
        <pt x="249" y="207" on="0"/>
        <pt x="149" y="209" on="1"/>
        <pt x="82" y="40" on="0"/>
        <pt x="65" y="-21" on="1"/>
        <pt x="32" y="-14" on="0"/>
        <pt x="5" y="4" on="0"/>
        <pt x="5" y="19" on="1"/>
        <pt x="5" y="31" on="0"/>
        <pt x="90" y="231" on="0"/>
        <pt x="212" y="540" on="0"/>
        <pt x="247" y="660" on="1"/>
        <pt x="266" y="663" on="0"/>
        <pt x="289" y="663" on="1"/>
        <pt x="314" y="663" on="0"/>
        <pt x="334" y="646" on="0"/>
        <pt x="345" y="610" on="1"/>
        <pt x="408" y="407" on="0"/>
        <pt x="457" y="280" on="1"/>
        <pt x="535" y="76" on="0"/>
        <pt x="569" y="10" on="1"/>
        <pt x="541" y="-10" on="0"/>
        <pt x="521" y="-10" on="1"/>
        <pt x="489" y="-10" on="0"/>
        <pt x="478" y="17" on="1"/>
        <pt x="459" y="66" on="0"/>
        <pt x="409" y="209" on="1"/>
        <pt x="297" y="207" on="0"/>
      </contour>
      <contour>
        <pt x="364" y="712" on="1"/>
        <pt x="343" y="712" on="0"/>
        <pt x="313" y="742" on="0"/>
        <pt x="313" y="766" on="1"/>
        <pt x="313" y="788" on="0"/>
        <pt x="345" y="819" on="0"/>
        <pt x="366" y="819" on="1"/>
        <pt x="386" y="819" on="0"/>
        <pt x="416" y="788" on="0"/>
        <pt x="416" y="766" on="1"/>
        <pt x="416" y="743" on="0"/>
        <pt x="384" y="712" on="0"/>
      </contour>
      <contour>
        <pt x="186" y="712" on="1"/>
        <pt x="165" y="712" on="0"/>
        <pt x="135" y="742" on="0"/>
        <pt x="135" y="766" on="1"/>
        <pt x="135" y="788" on="0"/>
        <pt x="167" y="819" on="0"/>
        <pt x="188" y="819" on="1"/>
        <pt x="208" y="819" on="0"/>
        <pt x="238" y="788" on="0"/>
        <pt x="238" y="766" on="1"/>
        <pt x="238" y="743" on="0"/>
        <pt x="206" y="712" on="0"/>
      </contour>
    </TTGlyph>
    <TTGlyph name="Agrave" xMin="5" yMin="-21" xMax="569" yMax="894">
      <contour>
        <pt x="197" y="894" on="1"/>
        <pt x="234" y="853" on="0"/>
        <pt x="316" y="790" on="0"/>
        <pt x="352" y="761" on="0"/>
        <pt x="352" y="731" on="0"/>
        <pt x="336" y="717" on="1"/>
        <pt x="308" y="738" on="0"/>
        <pt x="211" y="792" on="0"/>
        <pt x="162" y="828" on="0"/>
        <pt x="162" y="848" on="1"/>
        <pt x="162" y="874" on="0"/>
      </contour>
      <contour>
        <pt x="388" y="268" on="1"/>
        <pt x="354" y="357" on="0"/>
        <pt x="285" y="569" on="1"/>
        <pt x="276" y="546" on="0"/>
        <pt x="202" y="336" on="0"/>
        <pt x="174" y="268" on="1"/>
        <pt x="252" y="266" on="0"/>
        <pt x="296" y="266" on="1"/>
        <pt x="358" y="266" on="0"/>
      </contour>
      <contour>
        <pt x="275" y="207" on="1"/>
        <pt x="249" y="207" on="0"/>
        <pt x="149" y="209" on="1"/>
        <pt x="82" y="40" on="0"/>
        <pt x="65" y="-21" on="1"/>
        <pt x="32" y="-14" on="0"/>
        <pt x="5" y="4" on="0"/>
        <pt x="5" y="19" on="1"/>
        <pt x="5" y="31" on="0"/>
        <pt x="90" y="231" on="0"/>
        <pt x="212" y="540" on="0"/>
        <pt x="247" y="660" on="1"/>
        <pt x="266" y="663" on="0"/>
        <pt x="289" y="663" on="1"/>
        <pt x="314" y="663" on="0"/>
        <pt x="334" y="646" on="0"/>
        <pt x="345" y="610" on="1"/>
        <pt x="408" y="407" on="0"/>
        <pt x="457" y="280" on="1"/>
        <pt x="535" y="76" on="0"/>
        <pt x="569" y="10" on="1"/>
        <pt x="541" y="-10" on="0"/>
        <pt x="521" y="-10" on="1"/>
        <pt x="489" y="-10" on="0"/>
        <pt x="478" y="17" on="1"/>
        <pt x="459" y="66" on="0"/>
        <pt x="409" y="209" on="1"/>
        <pt x="297" y="207" on="0"/>
      </contour>
    </TTGlyph>
    <TTGlyph name="Aring" xMin="5" yMin="-21" xMax="569" yMax="890">
      <contour>
        <pt x="298" y="712" on="1"/>
        <pt x="258" y="712" on="0"/>
        <pt x="209" y="761" on="0"/>
        <pt x="209" y="841" on="0"/>
        <pt x="258" y="890" on="0"/>
        <pt x="298" y="890" on="1"/>
        <pt x="337" y="890" on="0"/>
        <pt x="385" y="841" on="0"/>
        <pt x="385" y="761" on="0"/>
        <pt x="337" y="712" on="0"/>
      </contour>
      <contour>
        <pt x="343" y="796" on="1"/>
        <pt x="343" y="823" on="0"/>
        <pt x="319" y="857" on="0"/>
        <pt x="298" y="857" on="1"/>
        <pt x="276" y="857" on="0"/>
        <pt x="251" y="829" on="0"/>
        <pt x="251" y="805" on="1"/>
        <pt x="251" y="779" on="0"/>
        <pt x="276" y="745" on="0"/>
        <pt x="298" y="745" on="1"/>
        <pt x="319" y="745" on="0"/>
        <pt x="343" y="772" on="0"/>
      </contour>
      <contour>
        <pt x="388" y="268" on="1"/>
        <pt x="354" y="357" on="0"/>
        <pt x="285" y="569" on="1"/>
        <pt x="276" y="546" on="0"/>
        <pt x="202" y="336" on="0"/>
        <pt x="174" y="268" on="1"/>
        <pt x="252" y="266" on="0"/>
        <pt x="296" y="266" on="1"/>
        <pt x="358" y="266" on="0"/>
      </contour>
      <contour>
        <pt x="275" y="207" on="1"/>
        <pt x="249" y="207" on="0"/>
        <pt x="149" y="209" on="1"/>
        <pt x="82" y="40" on="0"/>
        <pt x="65" y="-21" on="1"/>
        <pt x="32" y="-14" on="0"/>
        <pt x="5" y="4" on="0"/>
        <pt x="5" y="19" on="1"/>
        <pt x="5" y="31" on="0"/>
        <pt x="90" y="231" on="0"/>
        <pt x="212" y="540" on="0"/>
        <pt x="247" y="660" on="1"/>
        <pt x="266" y="663" on="0"/>
        <pt x="289" y="663" on="1"/>
        <pt x="314" y="663" on="0"/>
        <pt x="334" y="646" on="0"/>
        <pt x="345" y="610" on="1"/>
        <pt x="408" y="407" on="0"/>
        <pt x="457" y="280" on="1"/>
        <pt x="535" y="76" on="0"/>
        <pt x="569" y="10" on="1"/>
        <pt x="541" y="-10" on="0"/>
        <pt x="521" y="-10" on="1"/>
        <pt x="489" y="-10" on="0"/>
        <pt x="478" y="17" on="1"/>
        <pt x="459" y="66" on="0"/>
        <pt x="409" y="209" on="1"/>
        <pt x="297" y="207" on="0"/>
      </contour>
    </TTGlyph>
    <TTGlyph name="Atilde" xMin="5" yMin="-21" xMax="569" yMax="822">
      <contour>
        <pt x="388" y="268" on="1"/>
        <pt x="354" y="357" on="0"/>
        <pt x="285" y="569" on="1"/>
        <pt x="276" y="546" on="0"/>
        <pt x="202" y="336" on="0"/>
        <pt x="174" y="268" on="1"/>
        <pt x="252" y="266" on="0"/>
        <pt x="296" y="266" on="1"/>
        <pt x="358" y="266" on="0"/>
      </contour>
      <contour>
        <pt x="275" y="207" on="1"/>
        <pt x="249" y="207" on="0"/>
        <pt x="149" y="209" on="1"/>
        <pt x="82" y="40" on="0"/>
        <pt x="65" y="-21" on="1"/>
        <pt x="32" y="-14" on="0"/>
        <pt x="5" y="4" on="0"/>
        <pt x="5" y="19" on="1"/>
        <pt x="5" y="31" on="0"/>
        <pt x="90" y="231" on="0"/>
        <pt x="212" y="540" on="0"/>
        <pt x="247" y="660" on="1"/>
        <pt x="266" y="663" on="0"/>
        <pt x="289" y="663" on="1"/>
        <pt x="314" y="663" on="0"/>
        <pt x="334" y="646" on="0"/>
        <pt x="345" y="610" on="1"/>
        <pt x="408" y="407" on="0"/>
        <pt x="457" y="280" on="1"/>
        <pt x="535" y="76" on="0"/>
        <pt x="569" y="10" on="1"/>
        <pt x="541" y="-10" on="0"/>
        <pt x="521" y="-10" on="1"/>
        <pt x="489" y="-10" on="0"/>
        <pt x="478" y="17" on="1"/>
        <pt x="459" y="66" on="0"/>
        <pt x="409" y="209" on="1"/>
        <pt x="297" y="207" on="0"/>
      </contour>
      <contour>
        <pt x="438" y="798" on="1"/>
        <pt x="438" y="770" on="0"/>
        <pt x="376" y="718" on="0"/>
        <pt x="341" y="718" on="1"/>
        <pt x="320" y="718" on="0"/>
        <pt x="245" y="763" on="0"/>
        <pt x="209" y="763" on="0"/>
        <pt x="168" y="721" on="1"/>
        <pt x="152" y="728" on="0"/>
        <pt x="152" y="742" on="1"/>
        <pt x="152" y="769" on="0"/>
        <pt x="215" y="822" on="0"/>
        <pt x="250" y="822" on="1"/>
        <pt x="268" y="822" on="0"/>
        <pt x="346" y="777" on="0"/>
        <pt x="363" y="777" on="1"/>
        <pt x="386" y="777" on="0"/>
        <pt x="422" y="819" on="1"/>
        <pt x="438" y="813" on="0"/>
      </contour>
    </TTGlyph>
    <TTGlyph name="B" xMin="69" yMin="-10" xMax="502" yMax="673">
      <contour>
        <pt x="224" y="612" on="1"/>
        <pt x="200" y="612" on="0"/>
        <pt x="156" y="608" on="1"/>
        <pt x="160" y="524" on="0"/>
        <pt x="160" y="383" on="1"/>
        <pt x="192" y="381" on="0"/>
        <pt x="215" y="381" on="1"/>
        <pt x="401" y="381" on="0"/>
        <pt x="401" y="495" on="1"/>
        <pt x="401" y="612" on="0"/>
      </contour>
      <contour>
        <pt x="272" y="51" on="1"/>
        <pt x="337" y="51" on="0"/>
        <pt x="425" y="124" on="0"/>
        <pt x="425" y="187" on="1"/>
        <pt x="425" y="257" on="0"/>
        <pt x="326" y="331" on="0"/>
        <pt x="254" y="331" on="1"/>
        <pt x="189" y="331" on="0"/>
        <pt x="159" y="326" on="1"/>
        <pt x="159" y="246" on="0"/>
        <pt x="146" y="87" on="1"/>
        <pt x="165" y="72" on="0"/>
        <pt x="238" y="51" on="0"/>
      </contour>
      <contour>
        <pt x="69" y="53" on="1"/>
        <pt x="85" y="167" on="0"/>
        <pt x="85" y="387" on="1"/>
        <pt x="85" y="573" on="0"/>
        <pt x="72" y="661" on="1"/>
        <pt x="146" y="673" on="0"/>
        <pt x="231" y="673" on="1"/>
        <pt x="340" y="673" on="0"/>
        <pt x="478" y="593" on="0"/>
        <pt x="478" y="501" on="1"/>
        <pt x="478" y="401" on="0"/>
        <pt x="391" y="362" on="1"/>
        <pt x="502" y="315" on="0"/>
        <pt x="502" y="191" on="1"/>
        <pt x="502" y="96" on="0"/>
        <pt x="379" y="-10" on="0"/>
        <pt x="290" y="-10" on="1"/>
        <pt x="145" y="-10" on="0"/>
      </contour>
    </TTGlyph>
    <TTGlyph name="C" xMin="49" yMin="-10" xMax="558" yMax="673">
      <contour>
        <pt x="514" y="134" on="1"/>
        <pt x="558" y="116" on="0"/>
        <pt x="558" y="85" on="1"/>
        <pt x="558" y="49" on="0"/>
        <pt x="444" y="-10" on="0"/>
        <pt x="360" y="-10" on="1"/>
        <pt x="219" y="-10" on="0"/>
        <pt x="49" y="179" on="0"/>
        <pt x="49" y="332" on="1"/>
        <pt x="49" y="492" on="0"/>
        <pt x="219" y="673" on="0"/>
        <pt x="364" y="673" on="1"/>
        <pt x="442" y="673" on="0"/>
        <pt x="548" y="610" on="0"/>
        <pt x="548" y="564" on="1"/>
        <pt x="548" y="523" on="0"/>
        <pt x="491" y="514" on="1"/>
        <pt x="472" y="563" on="0"/>
        <pt x="390" y="612" on="0"/>
        <pt x="344" y="612" on="1"/>
        <pt x="250" y="612" on="0"/>
        <pt x="131" y="463" on="0"/>
        <pt x="131" y="352" on="1"/>
        <pt x="131" y="224" on="0"/>
        <pt x="251" y="51" on="0"/>
        <pt x="359" y="51" on="1"/>
        <pt x="407" y="51" on="0"/>
        <pt x="490" y="93" on="0"/>
      </contour>
    </TTGlyph>
    <TTGlyph name="Ccedilla" xMin="49" yMin="-232" xMax="558" yMax="673">
      <contour>
        <pt x="514" y="134" on="1"/>
        <pt x="558" y="116" on="0"/>
        <pt x="558" y="85" on="1"/>
        <pt x="558" y="50" on="0"/>
        <pt x="449" y="-8" on="0"/>
        <pt x="368" y="-10" on="1"/>
        <pt x="364" y="-26" on="0"/>
        <pt x="364" y="-30" on="1"/>
        <pt x="364" y="-33" on="0"/>
        <pt x="365" y="-39" on="0"/>
        <pt x="369" y="-43" on="0"/>
        <pt x="371" y="-47" on="0"/>
        <pt x="378" y="-52" on="0"/>
        <pt x="381" y="-54" on="0"/>
        <pt x="389" y="-59" on="0"/>
        <pt x="391" y="-60" on="1"/>
        <pt x="438" y="-87" on="0"/>
        <pt x="438" y="-133" on="1"/>
        <pt x="438" y="-171" on="0"/>
        <pt x="369" y="-232" on="0"/>
        <pt x="318" y="-232" on="1"/>
        <pt x="283" y="-232" on="0"/>
        <pt x="283" y="-207" on="1"/>
        <pt x="283" y="-191" on="0"/>
        <pt x="296" y="-178" on="1"/>
        <pt x="311" y="-187" on="0"/>
        <pt x="327" y="-187" on="1"/>
        <pt x="377" y="-187" on="0"/>
        <pt x="377" y="-147" on="1"/>
        <pt x="377" y="-124" on="0"/>
        <pt x="316" y="-73" on="0"/>
        <pt x="316" y="-54" on="1"/>
        <pt x="316" y="-37" on="0"/>
        <pt x="327" y="-8" on="1"/>
        <pt x="200" y="2" on="0"/>
        <pt x="49" y="188" on="0"/>
        <pt x="49" y="332" on="1"/>
        <pt x="49" y="492" on="0"/>
        <pt x="219" y="673" on="0"/>
        <pt x="364" y="673" on="1"/>
        <pt x="442" y="673" on="0"/>
        <pt x="548" y="610" on="0"/>
        <pt x="548" y="564" on="1"/>
        <pt x="548" y="523" on="0"/>
        <pt x="491" y="514" on="1"/>
        <pt x="472" y="563" on="0"/>
        <pt x="390" y="612" on="0"/>
        <pt x="344" y="612" on="1"/>
        <pt x="250" y="612" on="0"/>
        <pt x="131" y="463" on="0"/>
        <pt x="131" y="352" on="1"/>
        <pt x="131" y="224" on="0"/>
        <pt x="251" y="51" on="0"/>
        <pt x="359" y="51" on="1"/>
        <pt x="407" y="51" on="0"/>
        <pt x="490" y="93" on="0"/>
      </contour>
    </TTGlyph>
    <TTGlyph name="D" xMin="66" yMin="-10" xMax="586" yMax="673">
      <contour>
        <pt x="66" y="53" on="1"/>
        <pt x="80" y="144" on="0"/>
        <pt x="82" y="389" on="1"/>
        <pt x="82" y="564" on="0"/>
        <pt x="69" y="661" on="1"/>
        <pt x="129" y="673" on="0"/>
        <pt x="224" y="673" on="1"/>
        <pt x="302" y="673" on="0"/>
        <pt x="426" y="639" on="0"/>
        <pt x="529" y="564" on="0"/>
        <pt x="586" y="428" on="0"/>
        <pt x="586" y="333" on="1"/>
        <pt x="586" y="183" on="0"/>
        <pt x="426" y="-10" on="0"/>
        <pt x="278" y="-10" on="1"/>
        <pt x="142" y="-10" on="0"/>
      </contour>
      <contour>
        <pt x="153" y="608" on="1"/>
        <pt x="157" y="539" on="0"/>
        <pt x="157" y="445" on="1"/>
        <pt x="157" y="223" on="0"/>
        <pt x="143" y="87" on="1"/>
        <pt x="197" y="51" on="0"/>
        <pt x="276" y="51" on="1"/>
        <pt x="339" y="51" on="0"/>
        <pt x="431" y="99" on="0"/>
        <pt x="480" y="180" on="0"/>
        <pt x="502" y="266" on="0"/>
        <pt x="502" y="313" on="1"/>
        <pt x="502" y="462" on="0"/>
        <pt x="354" y="612" on="0"/>
        <pt x="217" y="612" on="1"/>
        <pt x="195" y="612" on="0"/>
      </contour>
    </TTGlyph>
    <TTGlyph name="Delta" xMin="40" yMin="0" xMax="623" yMax="643">
      <contour>
        <pt x="110" y="70" on="1"/>
        <pt x="173" y="60" on="0"/>
        <pt x="319" y="60" on="1"/>
        <pt x="461" y="60" on="0"/>
        <pt x="522" y="70" on="1"/>
        <pt x="358" y="454" on="0"/>
        <pt x="322" y="555" on="1"/>
        <pt x="200" y="282" on="0"/>
      </contour>
      <contour>
        <pt x="40" y="40" on="1"/>
        <pt x="64" y="95" on="0"/>
        <pt x="178" y="345" on="0"/>
        <pt x="260" y="532" on="0"/>
        <pt x="295" y="621" on="1"/>
        <pt x="304" y="643" on="0"/>
        <pt x="337" y="643" on="1"/>
        <pt x="345" y="643" on="0"/>
        <pt x="363" y="640" on="1"/>
        <pt x="532" y="244" on="0"/>
        <pt x="623" y="40" on="1"/>
        <pt x="623" y="0" on="0"/>
        <pt x="595" y="0" on="1"/>
        <pt x="68" y="0" on="1"/>
        <pt x="40" y="0" on="0"/>
      </contour>
    </TTGlyph>
    <TTGlyph name="E" xMin="66" yMin="-2" xMax="456" yMax="666">
      <contour>
        <pt x="151" y="599" on="1"/>
        <pt x="155" y="555" on="0"/>
        <pt x="155" y="387" on="1"/>
        <pt x="234" y="387" on="1"/>
        <pt x="318" y="387" on="0"/>
        <pt x="354" y="391" on="1"/>
        <pt x="358" y="383" on="0"/>
        <pt x="358" y="365" on="1"/>
        <pt x="358" y="342" on="0"/>
        <pt x="337" y="326" on="0"/>
        <pt x="314" y="325" on="1"/>
        <pt x="288" y="324" on="0"/>
        <pt x="243" y="324" on="1"/>
        <pt x="155" y="324" on="1"/>
        <pt x="155" y="106" on="0"/>
        <pt x="162" y="62" on="1"/>
        <pt x="206" y="60" on="0"/>
        <pt x="233" y="60" on="1"/>
        <pt x="401" y="60" on="0"/>
        <pt x="448" y="83" on="1"/>
        <pt x="456" y="63" on="0"/>
        <pt x="456" y="39" on="1"/>
        <pt x="456" y="21" on="0"/>
        <pt x="447" y="13" on="1"/>
        <pt x="429" y="-2" on="0"/>
        <pt x="285" y="-2" on="1"/>
        <pt x="157" y="-2" on="0"/>
        <pt x="127" y="0" on="1"/>
        <pt x="98" y="1" on="0"/>
        <pt x="78" y="27" on="0"/>
        <pt x="78" y="57" on="1"/>
        <pt x="78" y="73" on="0"/>
        <pt x="80" y="189" on="0"/>
        <pt x="80" y="224" on="1"/>
        <pt x="80" y="424" on="1"/>
        <pt x="80" y="567" on="0"/>
        <pt x="66" y="657" on="1"/>
        <pt x="173" y="666" on="0"/>
        <pt x="284" y="666" on="1"/>
        <pt x="428" y="666" on="0"/>
        <pt x="446" y="651" on="1"/>
        <pt x="455" y="643" on="0"/>
        <pt x="455" y="625" on="1"/>
        <pt x="455" y="601" on="0"/>
        <pt x="447" y="581" on="1"/>
        <pt x="390" y="602" on="0"/>
        <pt x="261" y="602" on="1"/>
        <pt x="208" y="602" on="0"/>
      </contour>
    </TTGlyph>
    <TTGlyph name="Eacute" xMin="66" yMin="-2" xMax="456" yMax="899">
      <contour>
        <pt x="376" y="816" on="1"/>
        <pt x="354" y="800" on="0"/>
        <pt x="239" y="733" on="0"/>
        <pt x="226" y="721" on="1"/>
        <pt x="210" y="735" on="0"/>
        <pt x="210" y="750" on="1"/>
        <pt x="210" y="767" on="0"/>
        <pt x="242" y="792" on="0"/>
        <pt x="325" y="854" on="0"/>
        <pt x="366" y="899" on="1"/>
        <pt x="401" y="879" on="0"/>
        <pt x="401" y="853" on="1"/>
        <pt x="401" y="833" on="0"/>
      </contour>
      <contour>
        <pt x="151" y="599" on="1"/>
        <pt x="155" y="555" on="0"/>
        <pt x="155" y="387" on="1"/>
        <pt x="234" y="387" on="1"/>
        <pt x="318" y="387" on="0"/>
        <pt x="354" y="391" on="1"/>
        <pt x="358" y="383" on="0"/>
        <pt x="358" y="365" on="1"/>
        <pt x="358" y="342" on="0"/>
        <pt x="337" y="326" on="0"/>
        <pt x="314" y="325" on="1"/>
        <pt x="288" y="324" on="0"/>
        <pt x="243" y="324" on="1"/>
        <pt x="155" y="324" on="1"/>
        <pt x="155" y="106" on="0"/>
        <pt x="162" y="62" on="1"/>
        <pt x="206" y="60" on="0"/>
        <pt x="233" y="60" on="1"/>
        <pt x="401" y="60" on="0"/>
        <pt x="448" y="83" on="1"/>
        <pt x="456" y="63" on="0"/>
        <pt x="456" y="39" on="1"/>
        <pt x="456" y="21" on="0"/>
        <pt x="447" y="13" on="1"/>
        <pt x="429" y="-2" on="0"/>
        <pt x="285" y="-2" on="1"/>
        <pt x="157" y="-2" on="0"/>
        <pt x="127" y="0" on="1"/>
        <pt x="98" y="1" on="0"/>
        <pt x="78" y="27" on="0"/>
        <pt x="78" y="57" on="1"/>
        <pt x="78" y="73" on="0"/>
        <pt x="80" y="189" on="0"/>
        <pt x="80" y="224" on="1"/>
        <pt x="80" y="424" on="1"/>
        <pt x="80" y="567" on="0"/>
        <pt x="66" y="657" on="1"/>
        <pt x="173" y="666" on="0"/>
        <pt x="284" y="666" on="1"/>
        <pt x="428" y="666" on="0"/>
        <pt x="446" y="651" on="1"/>
        <pt x="455" y="643" on="0"/>
        <pt x="455" y="625" on="1"/>
        <pt x="455" y="601" on="0"/>
        <pt x="447" y="581" on="1"/>
        <pt x="390" y="602" on="0"/>
        <pt x="261" y="602" on="1"/>
        <pt x="208" y="602" on="0"/>
      </contour>
    </TTGlyph>
    <TTGlyph name="Ecircumflex" xMin="66" yMin="-2" xMax="456" yMax="869">
      <contour>
        <pt x="251" y="869" on="1"/>
        <pt x="298" y="839" on="0"/>
        <pt x="381" y="764" on="0"/>
        <pt x="381" y="737" on="1"/>
        <pt x="381" y="719" on="0"/>
        <pt x="358" y="709" on="1"/>
        <pt x="339" y="733" on="0"/>
        <pt x="285" y="778" on="0"/>
        <pt x="267" y="788" on="1"/>
        <pt x="249" y="798" on="1"/>
        <pt x="243" y="793" on="0"/>
        <pt x="218" y="772" on="0"/>
        <pt x="203" y="760" on="0"/>
        <pt x="181" y="743" on="0"/>
        <pt x="166" y="732" on="0"/>
        <pt x="151" y="722" on="0"/>
        <pt x="139" y="717" on="0"/>
        <pt x="135" y="717" on="1"/>
        <pt x="123" y="717" on="0"/>
        <pt x="110" y="735" on="1"/>
        <pt x="174" y="812" on="0"/>
      </contour>
      <contour>
        <pt x="151" y="599" on="1"/>
        <pt x="155" y="555" on="0"/>
        <pt x="155" y="387" on="1"/>
        <pt x="234" y="387" on="1"/>
        <pt x="318" y="387" on="0"/>
        <pt x="354" y="391" on="1"/>
        <pt x="358" y="383" on="0"/>
        <pt x="358" y="365" on="1"/>
        <pt x="358" y="342" on="0"/>
        <pt x="337" y="326" on="0"/>
        <pt x="314" y="325" on="1"/>
        <pt x="288" y="324" on="0"/>
        <pt x="243" y="324" on="1"/>
        <pt x="155" y="324" on="1"/>
        <pt x="155" y="106" on="0"/>
        <pt x="162" y="62" on="1"/>
        <pt x="206" y="60" on="0"/>
        <pt x="233" y="60" on="1"/>
        <pt x="401" y="60" on="0"/>
        <pt x="448" y="83" on="1"/>
        <pt x="456" y="63" on="0"/>
        <pt x="456" y="39" on="1"/>
        <pt x="456" y="21" on="0"/>
        <pt x="447" y="13" on="1"/>
        <pt x="429" y="-2" on="0"/>
        <pt x="285" y="-2" on="1"/>
        <pt x="157" y="-2" on="0"/>
        <pt x="127" y="0" on="1"/>
        <pt x="98" y="1" on="0"/>
        <pt x="78" y="27" on="0"/>
        <pt x="78" y="57" on="1"/>
        <pt x="78" y="73" on="0"/>
        <pt x="80" y="189" on="0"/>
        <pt x="80" y="224" on="1"/>
        <pt x="80" y="424" on="1"/>
        <pt x="80" y="567" on="0"/>
        <pt x="66" y="657" on="1"/>
        <pt x="173" y="666" on="0"/>
        <pt x="284" y="666" on="1"/>
        <pt x="428" y="666" on="0"/>
        <pt x="446" y="651" on="1"/>
        <pt x="455" y="643" on="0"/>
        <pt x="455" y="625" on="1"/>
        <pt x="455" y="601" on="0"/>
        <pt x="447" y="581" on="1"/>
        <pt x="390" y="602" on="0"/>
        <pt x="261" y="602" on="1"/>
        <pt x="208" y="602" on="0"/>
      </contour>
    </TTGlyph>
    <TTGlyph name="Edieresis" xMin="66" yMin="-2" xMax="456" yMax="819">
      <contour>
        <pt x="151" y="599" on="1"/>
        <pt x="155" y="555" on="0"/>
        <pt x="155" y="387" on="1"/>
        <pt x="234" y="387" on="1"/>
        <pt x="318" y="387" on="0"/>
        <pt x="354" y="391" on="1"/>
        <pt x="358" y="383" on="0"/>
        <pt x="358" y="365" on="1"/>
        <pt x="358" y="342" on="0"/>
        <pt x="337" y="326" on="0"/>
        <pt x="314" y="325" on="1"/>
        <pt x="288" y="324" on="0"/>
        <pt x="243" y="324" on="1"/>
        <pt x="155" y="324" on="1"/>
        <pt x="155" y="106" on="0"/>
        <pt x="162" y="62" on="1"/>
        <pt x="206" y="60" on="0"/>
        <pt x="233" y="60" on="1"/>
        <pt x="401" y="60" on="0"/>
        <pt x="448" y="83" on="1"/>
        <pt x="456" y="63" on="0"/>
        <pt x="456" y="39" on="1"/>
        <pt x="456" y="21" on="0"/>
        <pt x="447" y="13" on="1"/>
        <pt x="429" y="-2" on="0"/>
        <pt x="285" y="-2" on="1"/>
        <pt x="157" y="-2" on="0"/>
        <pt x="127" y="0" on="1"/>
        <pt x="98" y="1" on="0"/>
        <pt x="78" y="27" on="0"/>
        <pt x="78" y="57" on="1"/>
        <pt x="78" y="73" on="0"/>
        <pt x="80" y="189" on="0"/>
        <pt x="80" y="224" on="1"/>
        <pt x="80" y="424" on="1"/>
        <pt x="80" y="567" on="0"/>
        <pt x="66" y="657" on="1"/>
        <pt x="173" y="666" on="0"/>
        <pt x="284" y="666" on="1"/>
        <pt x="428" y="666" on="0"/>
        <pt x="446" y="651" on="1"/>
        <pt x="455" y="643" on="0"/>
        <pt x="455" y="625" on="1"/>
        <pt x="455" y="601" on="0"/>
        <pt x="447" y="581" on="1"/>
        <pt x="390" y="602" on="0"/>
        <pt x="261" y="602" on="1"/>
        <pt x="208" y="602" on="0"/>
      </contour>
      <contour>
        <pt x="331" y="712" on="1"/>
        <pt x="310" y="712" on="0"/>
        <pt x="280" y="742" on="0"/>
        <pt x="280" y="766" on="1"/>
        <pt x="280" y="788" on="0"/>
        <pt x="312" y="819" on="0"/>
        <pt x="333" y="819" on="1"/>
        <pt x="353" y="819" on="0"/>
        <pt x="383" y="788" on="0"/>
        <pt x="383" y="766" on="1"/>
        <pt x="383" y="743" on="0"/>
        <pt x="351" y="712" on="0"/>
      </contour>
      <contour>
        <pt x="153" y="712" on="1"/>
        <pt x="132" y="712" on="0"/>
        <pt x="102" y="742" on="0"/>
        <pt x="102" y="766" on="1"/>
        <pt x="102" y="788" on="0"/>
        <pt x="134" y="819" on="0"/>
        <pt x="155" y="819" on="1"/>
        <pt x="175" y="819" on="0"/>
        <pt x="205" y="788" on="0"/>
        <pt x="205" y="766" on="1"/>
        <pt x="205" y="743" on="0"/>
        <pt x="173" y="712" on="0"/>
      </contour>
    </TTGlyph>
    <TTGlyph name="Egrave" xMin="66" yMin="-2" xMax="456" yMax="899">
      <contour>
        <pt x="135" y="899" on="1"/>
        <pt x="172" y="858" on="0"/>
        <pt x="254" y="795" on="0"/>
        <pt x="290" y="766" on="0"/>
        <pt x="290" y="736" on="0"/>
        <pt x="274" y="722" on="1"/>
        <pt x="246" y="743" on="0"/>
        <pt x="149" y="797" on="0"/>
        <pt x="100" y="833" on="0"/>
        <pt x="100" y="853" on="1"/>
        <pt x="100" y="879" on="0"/>
      </contour>
      <contour>
        <pt x="151" y="599" on="1"/>
        <pt x="155" y="555" on="0"/>
        <pt x="155" y="387" on="1"/>
        <pt x="234" y="387" on="1"/>
        <pt x="318" y="387" on="0"/>
        <pt x="354" y="391" on="1"/>
        <pt x="358" y="383" on="0"/>
        <pt x="358" y="365" on="1"/>
        <pt x="358" y="342" on="0"/>
        <pt x="337" y="326" on="0"/>
        <pt x="314" y="325" on="1"/>
        <pt x="288" y="324" on="0"/>
        <pt x="243" y="324" on="1"/>
        <pt x="155" y="324" on="1"/>
        <pt x="155" y="106" on="0"/>
        <pt x="162" y="62" on="1"/>
        <pt x="206" y="60" on="0"/>
        <pt x="233" y="60" on="1"/>
        <pt x="401" y="60" on="0"/>
        <pt x="448" y="83" on="1"/>
        <pt x="456" y="63" on="0"/>
        <pt x="456" y="39" on="1"/>
        <pt x="456" y="21" on="0"/>
        <pt x="447" y="13" on="1"/>
        <pt x="429" y="-2" on="0"/>
        <pt x="285" y="-2" on="1"/>
        <pt x="157" y="-2" on="0"/>
        <pt x="127" y="0" on="1"/>
        <pt x="98" y="1" on="0"/>
        <pt x="78" y="27" on="0"/>
        <pt x="78" y="57" on="1"/>
        <pt x="78" y="73" on="0"/>
        <pt x="80" y="189" on="0"/>
        <pt x="80" y="224" on="1"/>
        <pt x="80" y="424" on="1"/>
        <pt x="80" y="567" on="0"/>
        <pt x="66" y="657" on="1"/>
        <pt x="173" y="666" on="0"/>
        <pt x="284" y="666" on="1"/>
        <pt x="428" y="666" on="0"/>
        <pt x="446" y="651" on="1"/>
        <pt x="455" y="643" on="0"/>
        <pt x="455" y="625" on="1"/>
        <pt x="455" y="601" on="0"/>
        <pt x="447" y="581" on="1"/>
        <pt x="390" y="602" on="0"/>
        <pt x="261" y="602" on="1"/>
        <pt x="208" y="602" on="0"/>
      </contour>
    </TTGlyph>
    <TTGlyph name="Eth" xMin="-16" yMin="-10" xMax="586" yMax="673">
      <contour>
        <pt x="153" y="608" on="1"/>
        <pt x="157" y="539" on="0"/>
        <pt x="157" y="445" on="1"/>
        <pt x="157" y="387" on="1"/>
        <pt x="221" y="387" on="1"/>
        <pt x="304" y="387" on="0"/>
        <pt x="335" y="391" on="1"/>
        <pt x="339" y="379" on="0"/>
        <pt x="339" y="365" on="1"/>
        <pt x="339" y="345" on="0"/>
        <pt x="321" y="326" on="0"/>
        <pt x="295" y="325" on="1"/>
        <pt x="262" y="324" on="0"/>
        <pt x="156" y="324" on="1"/>
        <pt x="153" y="185" on="0"/>
        <pt x="143" y="87" on="1"/>
        <pt x="197" y="51" on="0"/>
        <pt x="276" y="51" on="1"/>
        <pt x="339" y="51" on="0"/>
        <pt x="431" y="99" on="0"/>
        <pt x="480" y="180" on="0"/>
        <pt x="502" y="266" on="0"/>
        <pt x="502" y="313" on="1"/>
        <pt x="502" y="462" on="0"/>
        <pt x="354" y="612" on="0"/>
        <pt x="217" y="612" on="1"/>
        <pt x="195" y="612" on="0"/>
      </contour>
      <contour>
        <pt x="66" y="53" on="1"/>
        <pt x="79" y="137" on="0"/>
        <pt x="81" y="324" on="1"/>
        <pt x="23" y="324" on="0"/>
        <pt x="-12" y="320" on="1"/>
        <pt x="-16" y="332" on="0"/>
        <pt x="-16" y="346" on="1"/>
        <pt x="-16" y="366" on="0"/>
        <pt x="2" y="385" on="0"/>
        <pt x="28" y="386" on="1"/>
        <pt x="34" y="386" on="0"/>
        <pt x="71" y="387" on="0"/>
        <pt x="82" y="387" on="1"/>
        <pt x="82" y="564" on="0"/>
        <pt x="69" y="661" on="1"/>
        <pt x="129" y="673" on="0"/>
        <pt x="224" y="673" on="1"/>
        <pt x="302" y="673" on="0"/>
        <pt x="426" y="639" on="0"/>
        <pt x="529" y="564" on="0"/>
        <pt x="586" y="428" on="0"/>
        <pt x="586" y="333" on="1"/>
        <pt x="586" y="183" on="0"/>
        <pt x="426" y="-10" on="0"/>
        <pt x="278" y="-10" on="1"/>
        <pt x="142" y="-10" on="0"/>
      </contour>
    </TTGlyph>
    <TTGlyph name="Euro" xMin="24" yMin="-10" xMax="513" yMax="580">
      <contour>
        <pt x="97" y="265" on="0"/>
        <pt x="97" y="307" on="0"/>
        <pt x="98" y="317" on="1"/>
        <pt x="77" y="316" on="0"/>
        <pt x="27" y="312" on="1"/>
        <pt x="24" y="322" on="0"/>
        <pt x="24" y="329" on="1"/>
        <pt x="24" y="356" on="0"/>
        <pt x="51" y="356" on="1"/>
        <pt x="103" y="356" on="1"/>
        <pt x="123" y="469" on="0"/>
        <pt x="279" y="580" on="0"/>
        <pt x="381" y="580" on="1"/>
        <pt x="513" y="580" on="0"/>
        <pt x="513" y="532" on="1"/>
        <pt x="513" y="500" on="0"/>
        <pt x="491" y="487" on="1"/>
        <pt x="442" y="524" on="0"/>
        <pt x="375" y="524" on="1"/>
        <pt x="309" y="524" on="0"/>
        <pt x="194" y="438" on="0"/>
        <pt x="175" y="356" on="1"/>
        <pt x="290" y="356" on="1"/>
        <pt x="394" y="356" on="0"/>
        <pt x="452" y="361" on="1"/>
        <pt x="454" y="346" on="1"/>
        <pt x="454" y="317" on="0"/>
        <pt x="427" y="317" on="1"/>
        <pt x="169" y="317" on="1"/>
        <pt x="168" y="306" on="0"/>
        <pt x="168" y="285" on="1"/>
        <pt x="168" y="265" on="0"/>
        <pt x="169" y="256" on="1"/>
        <pt x="226" y="256" on="1"/>
        <pt x="394" y="256" on="0"/>
        <pt x="452" y="261" on="1"/>
        <pt x="454" y="246" on="1"/>
        <pt x="454" y="217" on="0"/>
        <pt x="427" y="217" on="1"/>
        <pt x="175" y="217" on="1"/>
        <pt x="193" y="134" on="0"/>
        <pt x="308" y="47" on="0"/>
        <pt x="375" y="47" on="1"/>
        <pt x="441" y="47" on="0"/>
        <pt x="491" y="83" on="1"/>
        <pt x="513" y="70" on="0"/>
        <pt x="513" y="38" on="1"/>
        <pt x="513" y="-10" on="0"/>
        <pt x="381" y="-10" on="1"/>
        <pt x="277" y="-10" on="0"/>
        <pt x="122" y="100" on="0"/>
        <pt x="102" y="217" on="1"/>
        <pt x="81" y="216" on="0"/>
        <pt x="27" y="212" on="1"/>
        <pt x="24" y="222" on="0"/>
        <pt x="24" y="229" on="1"/>
        <pt x="24" y="256" on="0"/>
        <pt x="51" y="256" on="1"/>
        <pt x="98" y="256" on="1"/>
      </contour>
    </TTGlyph>
    <TTGlyph name="F" xMin="66" yMin="-3" xMax="455" yMax="666">
      <contour>
        <pt x="155" y="314" on="1"/>
        <pt x="155" y="203" on="1"/>
        <pt x="155" y="68" on="0"/>
        <pt x="174" y="5" on="1"/>
        <pt x="156" y="-3" on="0"/>
        <pt x="98" y="-3" on="0"/>
        <pt x="78" y="23" on="0"/>
        <pt x="78" y="54" on="1"/>
        <pt x="78" y="70" on="0"/>
        <pt x="80" y="196" on="0"/>
        <pt x="80" y="231" on="1"/>
        <pt x="80" y="424" on="1"/>
        <pt x="80" y="567" on="0"/>
        <pt x="66" y="657" on="1"/>
        <pt x="173" y="666" on="0"/>
        <pt x="284" y="666" on="1"/>
        <pt x="428" y="666" on="0"/>
        <pt x="446" y="651" on="1"/>
        <pt x="455" y="643" on="0"/>
        <pt x="455" y="625" on="1"/>
        <pt x="455" y="601" on="0"/>
        <pt x="447" y="581" on="1"/>
        <pt x="390" y="602" on="0"/>
        <pt x="261" y="602" on="1"/>
        <pt x="208" y="602" on="0"/>
        <pt x="151" y="599" on="1"/>
        <pt x="155" y="555" on="0"/>
        <pt x="155" y="480" on="1"/>
        <pt x="155" y="377" on="1"/>
        <pt x="234" y="377" on="1"/>
        <pt x="317" y="377" on="0"/>
        <pt x="354" y="381" on="1"/>
        <pt x="358" y="373" on="0"/>
        <pt x="358" y="355" on="1"/>
        <pt x="358" y="326" on="0"/>
        <pt x="326" y="314" on="0"/>
        <pt x="268" y="314" on="1"/>
      </contour>
    </TTGlyph>
    <TTGlyph name="G" xMin="49" yMin="-10" xMax="565" yMax="673">
      <contour>
        <pt x="558" y="85" on="1"/>
        <pt x="558" y="49" on="0"/>
        <pt x="444" y="-10" on="0"/>
        <pt x="360" y="-10" on="1"/>
        <pt x="219" y="-10" on="0"/>
        <pt x="49" y="179" on="0"/>
        <pt x="49" y="332" on="1"/>
        <pt x="49" y="492" on="0"/>
        <pt x="219" y="673" on="0"/>
        <pt x="364" y="673" on="1"/>
        <pt x="442" y="673" on="0"/>
        <pt x="548" y="610" on="0"/>
        <pt x="548" y="564" on="1"/>
        <pt x="548" y="523" on="0"/>
        <pt x="491" y="514" on="1"/>
        <pt x="472" y="563" on="0"/>
        <pt x="390" y="612" on="0"/>
        <pt x="344" y="612" on="1"/>
        <pt x="250" y="612" on="0"/>
        <pt x="131" y="463" on="0"/>
        <pt x="131" y="352" on="1"/>
        <pt x="131" y="224" on="0"/>
        <pt x="251" y="51" on="0"/>
        <pt x="358" y="51" on="1"/>
        <pt x="438" y="51" on="0"/>
        <pt x="487" y="99" on="1"/>
        <pt x="485" y="224" on="0"/>
        <pt x="480" y="301" on="1"/>
        <pt x="497" y="304" on="0"/>
        <pt x="516" y="304" on="1"/>
        <pt x="565" y="304" on="0"/>
        <pt x="565" y="266" on="1"/>
        <pt x="562" y="202" on="1"/>
        <pt x="558" y="138" on="0"/>
      </contour>
    </TTGlyph>
    <TTGlyph name="H" xMin="66" yMin="-3" xMax="561" yMax="666">
      <contour>
        <pt x="73" y="231" on="1"/>
        <pt x="73" y="431" on="1"/>
        <pt x="73" y="572" on="0"/>
        <pt x="66" y="663" on="1"/>
        <pt x="83" y="666" on="0"/>
        <pt x="107" y="666" on="1"/>
        <pt x="156" y="666" on="0"/>
        <pt x="156" y="628" on="1"/>
        <pt x="156" y="623" on="0"/>
        <pt x="152" y="552" on="0"/>
        <pt x="148" y="443" on="0"/>
        <pt x="148" y="391" on="1"/>
        <pt x="196" y="389" on="0"/>
        <pt x="310" y="389" on="1"/>
        <pt x="419" y="389" on="0"/>
        <pt x="467" y="391" on="1"/>
        <pt x="467" y="442" on="1"/>
        <pt x="466" y="586" on="0"/>
        <pt x="460" y="663" on="1"/>
        <pt x="477" y="666" on="0"/>
        <pt x="501" y="666" on="1"/>
        <pt x="550" y="666" on="0"/>
        <pt x="550" y="628" on="1"/>
        <pt x="550" y="622" on="0"/>
        <pt x="546" y="553" on="0"/>
        <pt x="542" y="450" on="0"/>
        <pt x="542" y="404" on="1"/>
        <pt x="542" y="203" on="1"/>
        <pt x="542" y="68" on="0"/>
        <pt x="561" y="5" on="1"/>
        <pt x="543" y="-3" on="0"/>
        <pt x="485" y="-3" on="0"/>
        <pt x="465" y="23" on="0"/>
        <pt x="465" y="54" on="1"/>
        <pt x="465" y="70" on="0"/>
        <pt x="467" y="196" on="0"/>
        <pt x="467" y="231" on="1"/>
        <pt x="467" y="332" on="1"/>
        <pt x="416" y="330" on="0"/>
        <pt x="310" y="330" on="1"/>
        <pt x="196" y="330" on="0"/>
        <pt x="148" y="332" on="1"/>
        <pt x="148" y="203" on="1"/>
        <pt x="148" y="68" on="0"/>
        <pt x="167" y="5" on="1"/>
        <pt x="149" y="-3" on="0"/>
        <pt x="91" y="-3" on="0"/>
        <pt x="71" y="23" on="0"/>
        <pt x="71" y="54" on="1"/>
        <pt x="71" y="70" on="0"/>
        <pt x="73" y="196" on="0"/>
      </contour>
    </TTGlyph>
    <TTGlyph name="I" xMin="66" yMin="-3" xMax="167" yMax="666">
      <contour>
        <pt x="73" y="231" on="1"/>
        <pt x="73" y="431" on="1"/>
        <pt x="73" y="572" on="0"/>
        <pt x="66" y="663" on="1"/>
        <pt x="83" y="666" on="0"/>
        <pt x="107" y="666" on="1"/>
        <pt x="156" y="666" on="0"/>
        <pt x="156" y="628" on="1"/>
        <pt x="156" y="622" on="0"/>
        <pt x="152" y="553" on="0"/>
        <pt x="148" y="450" on="0"/>
        <pt x="148" y="404" on="1"/>
        <pt x="148" y="203" on="1"/>
        <pt x="148" y="68" on="0"/>
        <pt x="167" y="5" on="1"/>
        <pt x="149" y="-3" on="0"/>
        <pt x="91" y="-3" on="0"/>
        <pt x="71" y="23" on="0"/>
        <pt x="71" y="54" on="1"/>
        <pt x="71" y="70" on="0"/>
        <pt x="73" y="196" on="0"/>
      </contour>
    </TTGlyph>
    <TTGlyph name="Iacute" xMin="66" yMin="-3" xMax="267" yMax="899">
      <contour>
        <pt x="73" y="231" on="1"/>
        <pt x="73" y="431" on="1"/>
        <pt x="73" y="572" on="0"/>
        <pt x="66" y="663" on="1"/>
        <pt x="83" y="666" on="0"/>
        <pt x="107" y="666" on="1"/>
        <pt x="156" y="666" on="0"/>
        <pt x="156" y="628" on="1"/>
        <pt x="156" y="622" on="0"/>
        <pt x="152" y="553" on="0"/>
        <pt x="148" y="450" on="0"/>
        <pt x="148" y="404" on="1"/>
        <pt x="148" y="203" on="1"/>
        <pt x="148" y="68" on="0"/>
        <pt x="167" y="5" on="1"/>
        <pt x="149" y="-3" on="0"/>
        <pt x="91" y="-3" on="0"/>
        <pt x="71" y="23" on="0"/>
        <pt x="71" y="54" on="1"/>
        <pt x="71" y="70" on="0"/>
        <pt x="73" y="196" on="0"/>
      </contour>
      <contour>
        <pt x="242" y="816" on="1"/>
        <pt x="220" y="800" on="0"/>
        <pt x="105" y="733" on="0"/>
        <pt x="92" y="721" on="1"/>
        <pt x="76" y="735" on="0"/>
        <pt x="76" y="750" on="1"/>
        <pt x="76" y="767" on="0"/>
        <pt x="108" y="792" on="0"/>
        <pt x="191" y="854" on="0"/>
        <pt x="232" y="899" on="1"/>
        <pt x="267" y="879" on="0"/>
        <pt x="267" y="853" on="1"/>
        <pt x="267" y="833" on="0"/>
      </contour>
    </TTGlyph>
    <TTGlyph name="Icircumflex" xMin="-24" yMin="-3" xMax="247" yMax="869">
      <contour>
        <pt x="73" y="231" on="1"/>
        <pt x="73" y="431" on="1"/>
        <pt x="73" y="572" on="0"/>
        <pt x="66" y="663" on="1"/>
        <pt x="83" y="666" on="0"/>
        <pt x="107" y="666" on="1"/>
        <pt x="156" y="666" on="0"/>
        <pt x="156" y="628" on="1"/>
        <pt x="156" y="622" on="0"/>
        <pt x="152" y="553" on="0"/>
        <pt x="148" y="450" on="0"/>
        <pt x="148" y="404" on="1"/>
        <pt x="148" y="203" on="1"/>
        <pt x="148" y="68" on="0"/>
        <pt x="167" y="5" on="1"/>
        <pt x="149" y="-3" on="0"/>
        <pt x="91" y="-3" on="0"/>
        <pt x="71" y="23" on="0"/>
        <pt x="71" y="54" on="1"/>
        <pt x="71" y="70" on="0"/>
        <pt x="73" y="196" on="0"/>
      </contour>
      <contour>
        <pt x="117" y="869" on="1"/>
        <pt x="164" y="839" on="0"/>
        <pt x="247" y="764" on="0"/>
        <pt x="247" y="737" on="1"/>
        <pt x="247" y="719" on="0"/>
        <pt x="224" y="709" on="1"/>
        <pt x="205" y="733" on="0"/>
        <pt x="151" y="778" on="0"/>
        <pt x="133" y="788" on="1"/>
        <pt x="115" y="798" on="1"/>
        <pt x="109" y="793" on="0"/>
        <pt x="84" y="772" on="0"/>
        <pt x="69" y="760" on="0"/>
        <pt x="47" y="743" on="0"/>
        <pt x="32" y="732" on="0"/>
        <pt x="17" y="722" on="0"/>
        <pt x="5" y="717" on="0"/>
        <pt x="1" y="717" on="1"/>
        <pt x="-11" y="717" on="0"/>
        <pt x="-24" y="735" on="1"/>
        <pt x="40" y="812" on="0"/>
      </contour>
    </TTGlyph>
    <TTGlyph name="Idieresis" xMin="-33" yMin="-3" xMax="248" yMax="819">
      <contour>
        <pt x="73" y="231" on="1"/>
        <pt x="73" y="431" on="1"/>
        <pt x="73" y="572" on="0"/>
        <pt x="66" y="663" on="1"/>
        <pt x="83" y="666" on="0"/>
        <pt x="107" y="666" on="1"/>
        <pt x="156" y="666" on="0"/>
        <pt x="156" y="628" on="1"/>
        <pt x="156" y="622" on="0"/>
        <pt x="152" y="553" on="0"/>
        <pt x="148" y="450" on="0"/>
        <pt x="148" y="404" on="1"/>
        <pt x="148" y="203" on="1"/>
        <pt x="148" y="68" on="0"/>
        <pt x="167" y="5" on="1"/>
        <pt x="149" y="-3" on="0"/>
        <pt x="91" y="-3" on="0"/>
        <pt x="71" y="23" on="0"/>
        <pt x="71" y="54" on="1"/>
        <pt x="71" y="70" on="0"/>
        <pt x="73" y="196" on="0"/>
      </contour>
      <contour>
        <pt x="18" y="712" on="1"/>
        <pt x="-3" y="712" on="0"/>
        <pt x="-33" y="742" on="0"/>
        <pt x="-33" y="766" on="1"/>
        <pt x="-33" y="788" on="0"/>
        <pt x="-1" y="819" on="0"/>
        <pt x="20" y="819" on="1"/>
        <pt x="40" y="819" on="0"/>
        <pt x="70" y="788" on="0"/>
        <pt x="70" y="766" on="1"/>
        <pt x="70" y="743" on="0"/>
        <pt x="38" y="712" on="0"/>
      </contour>
      <contour>
        <pt x="196" y="712" on="1"/>
        <pt x="175" y="712" on="0"/>
        <pt x="145" y="742" on="0"/>
        <pt x="145" y="766" on="1"/>
        <pt x="145" y="788" on="0"/>
        <pt x="177" y="819" on="0"/>
        <pt x="198" y="819" on="1"/>
        <pt x="218" y="819" on="0"/>
        <pt x="248" y="788" on="0"/>
        <pt x="248" y="766" on="1"/>
        <pt x="248" y="743" on="0"/>
        <pt x="216" y="712" on="0"/>
      </contour>
    </TTGlyph>
    <TTGlyph name="Igrave" xMin="-34" yMin="-3" xMax="167" yMax="899">
      <contour>
        <pt x="73" y="231" on="1"/>
        <pt x="73" y="431" on="1"/>
        <pt x="73" y="572" on="0"/>
        <pt x="66" y="663" on="1"/>
        <pt x="83" y="666" on="0"/>
        <pt x="107" y="666" on="1"/>
        <pt x="156" y="666" on="0"/>
        <pt x="156" y="628" on="1"/>
        <pt x="156" y="622" on="0"/>
        <pt x="152" y="553" on="0"/>
        <pt x="148" y="450" on="0"/>
        <pt x="148" y="404" on="1"/>
        <pt x="148" y="203" on="1"/>
        <pt x="148" y="68" on="0"/>
        <pt x="167" y="5" on="1"/>
        <pt x="149" y="-3" on="0"/>
        <pt x="91" y="-3" on="0"/>
        <pt x="71" y="23" on="0"/>
        <pt x="71" y="54" on="1"/>
        <pt x="71" y="70" on="0"/>
        <pt x="73" y="196" on="0"/>
      </contour>
      <contour>
        <pt x="1" y="899" on="1"/>
        <pt x="38" y="858" on="0"/>
        <pt x="120" y="795" on="0"/>
        <pt x="156" y="766" on="0"/>
        <pt x="156" y="736" on="0"/>
        <pt x="140" y="722" on="1"/>
        <pt x="112" y="743" on="0"/>
        <pt x="15" y="797" on="0"/>
        <pt x="-34" y="833" on="0"/>
        <pt x="-34" y="853" on="1"/>
        <pt x="-34" y="879" on="0"/>
      </contour>
    </TTGlyph>
    <TTGlyph name="J" xMin="-38" yMin="-119" xMax="156" yMax="666">
      <contour>
        <pt x="3" y="-119" on="1"/>
        <pt x="-34" y="-119" on="0"/>
        <pt x="-38" y="-62" on="1"/>
        <pt x="-5" y="-55" on="0"/>
        <pt x="37" y="-32" on="0"/>
        <pt x="61" y="-7" on="0"/>
        <pt x="72" y="47" on="0"/>
        <pt x="74" y="91" on="0"/>
        <pt x="74" y="136" on="1"/>
        <pt x="74" y="157" on="0"/>
        <pt x="73" y="378" on="0"/>
        <pt x="73" y="431" on="1"/>
        <pt x="73" y="572" on="0"/>
        <pt x="66" y="663" on="1"/>
        <pt x="83" y="666" on="0"/>
        <pt x="107" y="666" on="1"/>
        <pt x="156" y="666" on="0"/>
        <pt x="156" y="628" on="1"/>
        <pt x="156" y="623" on="0"/>
        <pt x="152" y="559" on="0"/>
        <pt x="148" y="464" on="0"/>
        <pt x="148" y="421" on="1"/>
        <pt x="148" y="111" on="1"/>
        <pt x="148" y="56" on="0"/>
        <pt x="124" y="-30" on="0"/>
        <pt x="89" y="-78" on="0"/>
        <pt x="46" y="-109" on="0"/>
        <pt x="15" y="-119" on="0"/>
      </contour>
    </TTGlyph>
    <TTGlyph name="J_alt" xMin="-130" yMin="-142" xMax="219" yMax="666">
      <contour>
        <pt x="170" y="666" on="1"/>
        <pt x="219" y="666" on="0"/>
        <pt x="219" y="628" on="1"/>
        <pt x="219" y="623" on="0"/>
        <pt x="215" y="559" on="0"/>
        <pt x="211" y="464" on="0"/>
        <pt x="211" y="421" on="1"/>
        <pt x="211" y="363" on="0"/>
        <pt x="212" y="190" on="0"/>
        <pt x="213" y="63" on="0"/>
        <pt x="213" y="60" on="1"/>
        <pt x="213" y="-37" on="0"/>
        <pt x="103" y="-142" on="0"/>
        <pt x="6" y="-142" on="1"/>
        <pt x="-48" y="-142" on="0"/>
        <pt x="-130" y="-107" on="0"/>
        <pt x="-130" y="-81" on="1"/>
        <pt x="-130" y="-54" on="0"/>
        <pt x="-100" y="-33" on="1"/>
        <pt x="-51" y="-82" on="0"/>
        <pt x="24" y="-82" on="1"/>
        <pt x="71" y="-82" on="0"/>
        <pt x="135" y="-18" on="0"/>
        <pt x="135" y="52" on="1"/>
        <pt x="135" y="55" on="0"/>
        <pt x="136" y="284" on="0"/>
        <pt x="136" y="431" on="1"/>
        <pt x="136" y="572" on="0"/>
        <pt x="129" y="663" on="1"/>
        <pt x="146" y="666" on="0"/>
      </contour>
    </TTGlyph>
    <TTGlyph name="K" xMin="66" yMin="-10" xMax="515" yMax="666">
      <contour>
        <pt x="100" y="666" on="1"/>
        <pt x="156" y="666" on="0"/>
        <pt x="156" y="628" on="1"/>
        <pt x="156" y="623" on="0"/>
        <pt x="152" y="547" on="0"/>
        <pt x="148" y="429" on="0"/>
        <pt x="148" y="374" on="1"/>
        <pt x="234" y="443" on="0"/>
        <pt x="398" y="610" on="0"/>
        <pt x="416" y="664" on="1"/>
        <pt x="468" y="655" on="0"/>
        <pt x="468" y="597" on="0"/>
        <pt x="328" y="449" on="0"/>
        <pt x="234" y="370" on="1"/>
        <pt x="345" y="185" on="0"/>
        <pt x="417" y="97" on="1"/>
        <pt x="429" y="82" on="0"/>
        <pt x="443" y="69" on="0"/>
        <pt x="471" y="55" on="0"/>
        <pt x="488" y="55" on="1"/>
        <pt x="500" y="55" on="0"/>
        <pt x="511" y="58" on="1"/>
        <pt x="515" y="44" on="0"/>
        <pt x="515" y="33" on="1"/>
        <pt x="515" y="12" on="0"/>
        <pt x="481" y="-10" on="0"/>
        <pt x="456" y="-10" on="1"/>
        <pt x="413" y="-10" on="0"/>
        <pt x="366" y="41" on="1"/>
        <pt x="344" y="65" on="0"/>
        <pt x="286" y="144" on="0"/>
        <pt x="246" y="204" on="0"/>
        <pt x="182" y="304" on="0"/>
        <pt x="172" y="319" on="1"/>
        <pt x="155" y="306" on="0"/>
        <pt x="148" y="301" on="1"/>
        <pt x="148" y="203" on="1"/>
        <pt x="148" y="68" on="0"/>
        <pt x="167" y="5" on="1"/>
        <pt x="151" y="-3" on="0"/>
        <pt x="119" y="-3" on="1"/>
        <pt x="91" y="-3" on="0"/>
        <pt x="71" y="24" on="0"/>
        <pt x="71" y="54" on="1"/>
        <pt x="71" y="70" on="0"/>
        <pt x="73" y="196" on="0"/>
        <pt x="73" y="231" on="1"/>
        <pt x="73" y="431" on="1"/>
        <pt x="73" y="572" on="0"/>
        <pt x="66" y="663" on="1"/>
        <pt x="86" y="666" on="0"/>
      </contour>
    </TTGlyph>
    <TTGlyph name="L" xMin="66" yMin="-2" xMax="429" yMax="666">
      <contour>
        <pt x="73" y="224" on="1"/>
        <pt x="73" y="431" on="1"/>
        <pt x="73" y="572" on="0"/>
        <pt x="66" y="663" on="1"/>
        <pt x="83" y="666" on="0"/>
        <pt x="107" y="666" on="1"/>
        <pt x="156" y="666" on="0"/>
        <pt x="156" y="628" on="1"/>
        <pt x="156" y="622" on="0"/>
        <pt x="152" y="553" on="0"/>
        <pt x="148" y="450" on="0"/>
        <pt x="148" y="404" on="1"/>
        <pt x="148" y="314" on="1"/>
        <pt x="148" y="106" on="0"/>
        <pt x="155" y="62" on="1"/>
        <pt x="197" y="60" on="0"/>
        <pt x="221" y="60" on="1"/>
        <pt x="377" y="60" on="0"/>
        <pt x="422" y="83" on="1"/>
        <pt x="429" y="62" on="0"/>
        <pt x="429" y="39" on="1"/>
        <pt x="429" y="21" on="0"/>
        <pt x="420" y="13" on="1"/>
        <pt x="403" y="-2" on="0"/>
        <pt x="267" y="-2" on="1"/>
        <pt x="147" y="-2" on="0"/>
        <pt x="117" y="0" on="1"/>
        <pt x="90" y="1" on="0"/>
        <pt x="71" y="27" on="0"/>
        <pt x="71" y="57" on="1"/>
        <pt x="71" y="73" on="0"/>
        <pt x="73" y="189" on="0"/>
      </contour>
    </TTGlyph>
    <TTGlyph name="Lslash" xMin="-45" yMin="-2" xMax="429" yMax="666">
      <contour>
        <pt x="73" y="333" on="1"/>
        <pt x="73" y="431" on="1"/>
        <pt x="73" y="572" on="0"/>
        <pt x="66" y="663" on="1"/>
        <pt x="83" y="666" on="0"/>
        <pt x="107" y="666" on="1"/>
        <pt x="156" y="666" on="0"/>
        <pt x="156" y="628" on="1"/>
        <pt x="156" y="623" on="0"/>
        <pt x="152" y="552" on="0"/>
        <pt x="148" y="443" on="0"/>
        <pt x="148" y="391" on="1"/>
        <pt x="219" y="447" on="0"/>
        <pt x="278" y="500" on="1"/>
        <pt x="310" y="484" on="0"/>
        <pt x="310" y="462" on="1"/>
        <pt x="310" y="448" on="0"/>
        <pt x="295" y="437" on="1"/>
        <pt x="148" y="324" on="1"/>
        <pt x="148" y="106" on="0"/>
        <pt x="155" y="62" on="1"/>
        <pt x="197" y="60" on="0"/>
        <pt x="221" y="60" on="1"/>
        <pt x="377" y="60" on="0"/>
        <pt x="422" y="83" on="1"/>
        <pt x="429" y="62" on="0"/>
        <pt x="429" y="39" on="1"/>
        <pt x="429" y="21" on="0"/>
        <pt x="420" y="13" on="1"/>
        <pt x="403" y="-2" on="0"/>
        <pt x="267" y="-2" on="1"/>
        <pt x="147" y="-2" on="0"/>
        <pt x="117" y="0" on="1"/>
        <pt x="90" y="1" on="0"/>
        <pt x="71" y="27" on="0"/>
        <pt x="71" y="57" on="1"/>
        <pt x="71" y="73" on="0"/>
        <pt x="73" y="189" on="0"/>
        <pt x="73" y="224" on="1"/>
        <pt x="73" y="265" on="1"/>
        <pt x="55" y="251" on="0"/>
        <pt x="-3" y="201" on="0"/>
        <pt x="-13" y="192" on="1"/>
        <pt x="-45" y="211" on="0"/>
        <pt x="-45" y="231" on="1"/>
        <pt x="-45" y="243" on="0"/>
        <pt x="-30" y="255" on="1"/>
      </contour>
    </TTGlyph>
    <TTGlyph name="M" xMin="66" yMin="-3" xMax="731" yMax="667">
      <contour>
        <pt x="712" y="436" on="1"/>
        <pt x="712" y="203" on="1"/>
        <pt x="712" y="68" on="0"/>
        <pt x="731" y="5" on="1"/>
        <pt x="713" y="-3" on="0"/>
        <pt x="655" y="-3" on="0"/>
        <pt x="635" y="23" on="0"/>
        <pt x="635" y="54" on="1"/>
        <pt x="635" y="61" on="0"/>
        <pt x="636" y="187" on="0"/>
        <pt x="637" y="420" on="0"/>
        <pt x="637" y="558" on="1"/>
        <pt x="545" y="373" on="0"/>
        <pt x="436" y="2" on="1"/>
        <pt x="424" y="-2" on="0"/>
        <pt x="409" y="-2" on="1"/>
        <pt x="370" y="-2" on="0"/>
        <pt x="359" y="24" on="1"/>
        <pt x="335" y="78" on="0"/>
        <pt x="202" y="451" on="0"/>
        <pt x="150" y="556" on="1"/>
        <pt x="150" y="203" on="1"/>
        <pt x="150" y="68" on="0"/>
        <pt x="169" y="5" on="1"/>
        <pt x="151" y="-3" on="0"/>
        <pt x="132" y="-3" on="1"/>
        <pt x="103" y="-3" on="0"/>
        <pt x="83" y="23" on="0"/>
        <pt x="83" y="54" on="1"/>
        <pt x="83" y="70" on="0"/>
        <pt x="85" y="196" on="0"/>
        <pt x="85" y="231" on="1"/>
        <pt x="85" y="483" on="1"/>
        <pt x="85" y="595" on="0"/>
        <pt x="66" y="659" on="1"/>
        <pt x="98" y="667" on="0"/>
        <pt x="124" y="667" on="1"/>
        <pt x="166" y="667" on="0"/>
        <pt x="195" y="619" on="1"/>
        <pt x="234" y="551" on="0"/>
        <pt x="314" y="355" on="0"/>
        <pt x="359" y="220" on="0"/>
        <pt x="400" y="92" on="1"/>
        <pt x="431" y="216" on="0"/>
        <pt x="536" y="504" on="0"/>
        <pt x="601" y="619" on="1"/>
        <pt x="628" y="667" on="0"/>
        <pt x="674" y="667" on="1"/>
        <pt x="708" y="667" on="0"/>
        <pt x="730" y="659" on="1"/>
        <pt x="712" y="599" on="0"/>
      </contour>
    </TTGlyph>
    <TTGlyph name="N" xMin="66" yMin="-3" xMax="552" yMax="667">
      <contour>
        <pt x="551" y="1" on="1"/>
        <pt x="535" y="-3" on="0"/>
        <pt x="518" y="-3" on="1"/>
        <pt x="484" y="-3" on="0"/>
        <pt x="466" y="24" on="1"/>
        <pt x="425" y="87" on="0"/>
        <pt x="223" y="444" on="0"/>
        <pt x="151" y="552" on="1"/>
        <pt x="150" y="514" on="0"/>
        <pt x="150" y="203" on="1"/>
        <pt x="150" y="68" on="0"/>
        <pt x="169" y="5" on="1"/>
        <pt x="151" y="-3" on="0"/>
        <pt x="132" y="-3" on="1"/>
        <pt x="103" y="-3" on="0"/>
        <pt x="83" y="23" on="0"/>
        <pt x="83" y="54" on="1"/>
        <pt x="83" y="70" on="0"/>
        <pt x="85" y="196" on="0"/>
        <pt x="85" y="231" on="1"/>
        <pt x="85" y="431" on="1"/>
        <pt x="85" y="598" on="0"/>
        <pt x="66" y="659" on="1"/>
        <pt x="85" y="667" on="0"/>
        <pt x="113" y="667" on="1"/>
        <pt x="133" y="667" on="0"/>
        <pt x="156" y="653" on="0"/>
        <pt x="169" y="638" on="1"/>
        <pt x="219" y="581" on="0"/>
        <pt x="407" y="269" on="0"/>
        <pt x="485" y="119" on="1"/>
        <pt x="482" y="155" on="0"/>
        <pt x="479" y="311" on="0"/>
        <pt x="479" y="371" on="1"/>
        <pt x="479" y="431" on="1"/>
        <pt x="479" y="572" on="0"/>
        <pt x="472" y="663" on="1"/>
        <pt x="489" y="666" on="0"/>
        <pt x="503" y="666" on="1"/>
        <pt x="552" y="666" on="0"/>
        <pt x="552" y="628" on="1"/>
        <pt x="552" y="622" on="0"/>
        <pt x="548" y="553" on="0"/>
        <pt x="544" y="450" on="0"/>
        <pt x="544" y="404" on="1"/>
        <pt x="544" y="233" on="1"/>
        <pt x="544" y="92" on="0"/>
      </contour>
    </TTGlyph>
    <TTGlyph name="Ntilde" xMin="66" yMin="-3" xMax="552" yMax="827">
      <contour>
        <pt x="551" y="1" on="1"/>
        <pt x="535" y="-3" on="0"/>
        <pt x="518" y="-3" on="1"/>
        <pt x="484" y="-3" on="0"/>
        <pt x="466" y="24" on="1"/>
        <pt x="425" y="87" on="0"/>
        <pt x="223" y="444" on="0"/>
        <pt x="151" y="552" on="1"/>
        <pt x="150" y="514" on="0"/>
        <pt x="150" y="203" on="1"/>
        <pt x="150" y="68" on="0"/>
        <pt x="169" y="5" on="1"/>
        <pt x="151" y="-3" on="0"/>
        <pt x="132" y="-3" on="1"/>
        <pt x="103" y="-3" on="0"/>
        <pt x="83" y="23" on="0"/>
        <pt x="83" y="54" on="1"/>
        <pt x="83" y="70" on="0"/>
        <pt x="85" y="196" on="0"/>
        <pt x="85" y="231" on="1"/>
        <pt x="85" y="431" on="1"/>
        <pt x="85" y="598" on="0"/>
        <pt x="66" y="659" on="1"/>
        <pt x="85" y="667" on="0"/>
        <pt x="113" y="667" on="1"/>
        <pt x="133" y="667" on="0"/>
        <pt x="156" y="653" on="0"/>
        <pt x="169" y="638" on="1"/>
        <pt x="219" y="581" on="0"/>
        <pt x="407" y="269" on="0"/>
        <pt x="485" y="119" on="1"/>
        <pt x="482" y="155" on="0"/>
        <pt x="479" y="311" on="0"/>
        <pt x="479" y="371" on="1"/>
        <pt x="479" y="431" on="1"/>
        <pt x="479" y="572" on="0"/>
        <pt x="472" y="663" on="1"/>
        <pt x="489" y="666" on="0"/>
        <pt x="503" y="666" on="1"/>
        <pt x="552" y="666" on="0"/>
        <pt x="552" y="628" on="1"/>
        <pt x="552" y="622" on="0"/>
        <pt x="548" y="553" on="0"/>
        <pt x="544" y="450" on="0"/>
        <pt x="544" y="404" on="1"/>
        <pt x="544" y="233" on="1"/>
        <pt x="544" y="92" on="0"/>
      </contour>
      <contour>
        <pt x="457" y="803" on="1"/>
        <pt x="457" y="775" on="0"/>
        <pt x="395" y="723" on="0"/>
        <pt x="360" y="723" on="1"/>
        <pt x="339" y="723" on="0"/>
        <pt x="264" y="768" on="0"/>
        <pt x="228" y="768" on="0"/>
        <pt x="187" y="726" on="1"/>
        <pt x="171" y="733" on="0"/>
        <pt x="171" y="747" on="1"/>
        <pt x="171" y="774" on="0"/>
        <pt x="234" y="827" on="0"/>
        <pt x="269" y="827" on="1"/>
        <pt x="287" y="827" on="0"/>
        <pt x="365" y="782" on="0"/>
        <pt x="382" y="782" on="1"/>
        <pt x="405" y="782" on="0"/>
        <pt x="441" y="824" on="1"/>
        <pt x="457" y="818" on="0"/>
      </contour>
    </TTGlyph>
    <TTGlyph name="O" xMin="49" yMin="-10" xMax="663" yMax="673">
      <contour>
        <pt x="355" y="-10" on="1"/>
        <pt x="215" y="-10" on="0"/>
        <pt x="49" y="176" on="0"/>
        <pt x="49" y="331" on="1"/>
        <pt x="49" y="488" on="0"/>
        <pt x="215" y="673" on="0"/>
        <pt x="355" y="673" on="1"/>
        <pt x="496" y="673" on="0"/>
        <pt x="663" y="488" on="0"/>
        <pt x="663" y="331" on="1"/>
        <pt x="663" y="176" on="0"/>
        <pt x="496" y="-10" on="0"/>
      </contour>
      <contour>
        <pt x="579" y="313" on="1"/>
        <pt x="579" y="369" on="0"/>
        <pt x="554" y="471" on="0"/>
        <pt x="504" y="559" on="0"/>
        <pt x="414" y="612" on="0"/>
        <pt x="356" y="612" on="1"/>
        <pt x="253" y="612" on="0"/>
        <pt x="131" y="471" on="0"/>
        <pt x="131" y="362" on="1"/>
        <pt x="131" y="303" on="0"/>
        <pt x="156" y="197" on="0"/>
        <pt x="206" y="105" on="0"/>
        <pt x="295" y="51" on="0"/>
        <pt x="354" y="51" on="1"/>
        <pt x="462" y="51" on="0"/>
        <pt x="579" y="196" on="0"/>
      </contour>
    </TTGlyph>
    <TTGlyph name="OE" xMin="49" yMin="-10" xMax="850" yMax="673">
      <contour>
        <pt x="354" y="51" on="1"/>
        <pt x="422" y="51" on="0"/>
        <pt x="472" y="81" on="1"/>
        <pt x="472" y="99" on="0"/>
        <pt x="474" y="196" on="0"/>
        <pt x="474" y="224" on="1"/>
        <pt x="474" y="424" on="1"/>
        <pt x="474" y="499" on="0"/>
        <pt x="469" y="579" on="1"/>
        <pt x="420" y="612" on="0"/>
        <pt x="356" y="612" on="1"/>
        <pt x="253" y="612" on="0"/>
        <pt x="131" y="471" on="0"/>
        <pt x="131" y="362" on="1"/>
        <pt x="131" y="303" on="0"/>
        <pt x="156" y="197" on="0"/>
        <pt x="206" y="105" on="0"/>
        <pt x="295" y="51" on="0"/>
      </contour>
      <contour>
        <pt x="545" y="599" on="1"/>
        <pt x="549" y="555" on="0"/>
        <pt x="549" y="387" on="1"/>
        <pt x="628" y="387" on="1"/>
        <pt x="712" y="387" on="0"/>
        <pt x="748" y="391" on="1"/>
        <pt x="752" y="383" on="0"/>
        <pt x="752" y="365" on="1"/>
        <pt x="752" y="342" on="0"/>
        <pt x="731" y="326" on="0"/>
        <pt x="708" y="325" on="1"/>
        <pt x="682" y="324" on="0"/>
        <pt x="637" y="324" on="1"/>
        <pt x="549" y="324" on="1"/>
        <pt x="549" y="106" on="0"/>
        <pt x="556" y="62" on="1"/>
        <pt x="600" y="60" on="0"/>
        <pt x="627" y="60" on="1"/>
        <pt x="795" y="60" on="0"/>
        <pt x="842" y="83" on="1"/>
        <pt x="850" y="63" on="0"/>
        <pt x="850" y="39" on="1"/>
        <pt x="850" y="21" on="0"/>
        <pt x="841" y="13" on="1"/>
        <pt x="823" y="-2" on="0"/>
        <pt x="679" y="-2" on="1"/>
        <pt x="637" y="-2" on="1"/>
        <pt x="515" y="-2" on="0"/>
        <pt x="471" y="9" on="1"/>
        <pt x="416" y="-10" on="0"/>
        <pt x="355" y="-10" on="1"/>
        <pt x="215" y="-10" on="0"/>
        <pt x="49" y="176" on="0"/>
        <pt x="49" y="331" on="1"/>
        <pt x="49" y="488" on="0"/>
        <pt x="215" y="673" on="0"/>
        <pt x="355" y="673" on="1"/>
        <pt x="409" y="673" on="0"/>
        <pt x="460" y="657" on="1"/>
        <pt x="567" y="666" on="0"/>
        <pt x="678" y="666" on="1"/>
        <pt x="822" y="666" on="0"/>
        <pt x="840" y="651" on="1"/>
        <pt x="849" y="643" on="0"/>
        <pt x="849" y="625" on="1"/>
        <pt x="849" y="601" on="0"/>
        <pt x="841" y="581" on="1"/>
        <pt x="784" y="602" on="0"/>
        <pt x="655" y="602" on="1"/>
        <pt x="602" y="602" on="0"/>
      </contour>
    </TTGlyph>
    <TTGlyph name="Oacute" xMin="49" yMin="-10" xMax="663" yMax="899">
      <contour>
        <pt x="481" y="816" on="1"/>
        <pt x="459" y="800" on="0"/>
        <pt x="344" y="733" on="0"/>
        <pt x="331" y="721" on="1"/>
        <pt x="315" y="735" on="0"/>
        <pt x="315" y="750" on="1"/>
        <pt x="315" y="767" on="0"/>
        <pt x="347" y="792" on="0"/>
        <pt x="430" y="854" on="0"/>
        <pt x="471" y="899" on="1"/>
        <pt x="506" y="879" on="0"/>
        <pt x="506" y="853" on="1"/>
        <pt x="506" y="833" on="0"/>
      </contour>
      <contour>
        <pt x="355" y="-10" on="1"/>
        <pt x="215" y="-10" on="0"/>
        <pt x="49" y="176" on="0"/>
        <pt x="49" y="331" on="1"/>
        <pt x="49" y="488" on="0"/>
        <pt x="215" y="673" on="0"/>
        <pt x="355" y="673" on="1"/>
        <pt x="496" y="673" on="0"/>
        <pt x="663" y="488" on="0"/>
        <pt x="663" y="331" on="1"/>
        <pt x="663" y="176" on="0"/>
        <pt x="496" y="-10" on="0"/>
      </contour>
      <contour>
        <pt x="579" y="313" on="1"/>
        <pt x="579" y="369" on="0"/>
        <pt x="554" y="471" on="0"/>
        <pt x="504" y="559" on="0"/>
        <pt x="414" y="612" on="0"/>
        <pt x="356" y="612" on="1"/>
        <pt x="253" y="612" on="0"/>
        <pt x="131" y="471" on="0"/>
        <pt x="131" y="362" on="1"/>
        <pt x="131" y="303" on="0"/>
        <pt x="156" y="197" on="0"/>
        <pt x="206" y="105" on="0"/>
        <pt x="295" y="51" on="0"/>
        <pt x="354" y="51" on="1"/>
        <pt x="462" y="51" on="0"/>
        <pt x="579" y="196" on="0"/>
      </contour>
    </TTGlyph>
    <TTGlyph name="Ocircumflex" xMin="49" yMin="-10" xMax="663" yMax="868">
      <contour>
        <pt x="356" y="868" on="1"/>
        <pt x="403" y="838" on="0"/>
        <pt x="486" y="763" on="0"/>
        <pt x="486" y="736" on="1"/>
        <pt x="486" y="718" on="0"/>
        <pt x="463" y="708" on="1"/>
        <pt x="444" y="732" on="0"/>
        <pt x="390" y="776" on="0"/>
        <pt x="372" y="786" on="1"/>
        <pt x="354" y="797" on="1"/>
        <pt x="348" y="792" on="0"/>
        <pt x="323" y="771" on="0"/>
        <pt x="308" y="759" on="0"/>
        <pt x="286" y="742" on="0"/>
        <pt x="271" y="731" on="0"/>
        <pt x="256" y="721" on="0"/>
        <pt x="244" y="716" on="0"/>
        <pt x="240" y="716" on="1"/>
        <pt x="228" y="716" on="0"/>
        <pt x="215" y="734" on="1"/>
        <pt x="279" y="811" on="0"/>
      </contour>
      <contour>
        <pt x="355" y="-10" on="1"/>
        <pt x="215" y="-10" on="0"/>
        <pt x="49" y="176" on="0"/>
        <pt x="49" y="331" on="1"/>
        <pt x="49" y="488" on="0"/>
        <pt x="215" y="673" on="0"/>
        <pt x="355" y="673" on="1"/>
        <pt x="496" y="673" on="0"/>
        <pt x="663" y="488" on="0"/>
        <pt x="663" y="331" on="1"/>
        <pt x="663" y="176" on="0"/>
        <pt x="496" y="-10" on="0"/>
      </contour>
      <contour>
        <pt x="579" y="313" on="1"/>
        <pt x="579" y="369" on="0"/>
        <pt x="554" y="471" on="0"/>
        <pt x="504" y="559" on="0"/>
        <pt x="414" y="612" on="0"/>
        <pt x="356" y="612" on="1"/>
        <pt x="253" y="612" on="0"/>
        <pt x="131" y="471" on="0"/>
        <pt x="131" y="362" on="1"/>
        <pt x="131" y="303" on="0"/>
        <pt x="156" y="197" on="0"/>
        <pt x="206" y="105" on="0"/>
        <pt x="295" y="51" on="0"/>
        <pt x="354" y="51" on="1"/>
        <pt x="462" y="51" on="0"/>
        <pt x="579" y="196" on="0"/>
      </contour>
    </TTGlyph>
    <TTGlyph name="Odieresis" xMin="49" yMin="-10" xMax="663" yMax="819">
      <contour>
        <pt x="355" y="-10" on="1"/>
        <pt x="215" y="-10" on="0"/>
        <pt x="49" y="176" on="0"/>
        <pt x="49" y="331" on="1"/>
        <pt x="49" y="488" on="0"/>
        <pt x="215" y="673" on="0"/>
        <pt x="355" y="673" on="1"/>
        <pt x="496" y="673" on="0"/>
        <pt x="663" y="488" on="0"/>
        <pt x="663" y="331" on="1"/>
        <pt x="663" y="176" on="0"/>
        <pt x="496" y="-10" on="0"/>
      </contour>
      <contour>
        <pt x="579" y="313" on="1"/>
        <pt x="579" y="369" on="0"/>
        <pt x="554" y="471" on="0"/>
        <pt x="504" y="559" on="0"/>
        <pt x="414" y="612" on="0"/>
        <pt x="356" y="612" on="1"/>
        <pt x="253" y="612" on="0"/>
        <pt x="131" y="471" on="0"/>
        <pt x="131" y="362" on="1"/>
        <pt x="131" y="303" on="0"/>
        <pt x="156" y="197" on="0"/>
        <pt x="206" y="105" on="0"/>
        <pt x="295" y="51" on="0"/>
        <pt x="354" y="51" on="1"/>
        <pt x="462" y="51" on="0"/>
        <pt x="579" y="196" on="0"/>
      </contour>
      <contour>
        <pt x="444" y="712" on="1"/>
        <pt x="423" y="712" on="0"/>
        <pt x="393" y="742" on="0"/>
        <pt x="393" y="766" on="1"/>
        <pt x="393" y="788" on="0"/>
        <pt x="425" y="819" on="0"/>
        <pt x="446" y="819" on="1"/>
        <pt x="466" y="819" on="0"/>
        <pt x="496" y="788" on="0"/>
        <pt x="496" y="766" on="1"/>
        <pt x="496" y="743" on="0"/>
        <pt x="464" y="712" on="0"/>
      </contour>
      <contour>
        <pt x="266" y="712" on="1"/>
        <pt x="245" y="712" on="0"/>
        <pt x="215" y="742" on="0"/>
        <pt x="215" y="766" on="1"/>
        <pt x="215" y="788" on="0"/>
        <pt x="247" y="819" on="0"/>
        <pt x="268" y="819" on="1"/>
        <pt x="288" y="819" on="0"/>
        <pt x="318" y="788" on="0"/>
        <pt x="318" y="766" on="1"/>
        <pt x="318" y="743" on="0"/>
        <pt x="286" y="712" on="0"/>
      </contour>
    </TTGlyph>
    <TTGlyph name="Ograve" xMin="49" yMin="-10" xMax="663" yMax="899">
      <contour>
        <pt x="240" y="899" on="1"/>
        <pt x="277" y="858" on="0"/>
        <pt x="359" y="795" on="0"/>
        <pt x="395" y="766" on="0"/>
        <pt x="395" y="736" on="0"/>
        <pt x="379" y="722" on="1"/>
        <pt x="351" y="743" on="0"/>
        <pt x="254" y="797" on="0"/>
        <pt x="205" y="833" on="0"/>
        <pt x="205" y="853" on="1"/>
        <pt x="205" y="879" on="0"/>
      </contour>
      <contour>
        <pt x="355" y="-10" on="1"/>
        <pt x="215" y="-10" on="0"/>
        <pt x="49" y="176" on="0"/>
        <pt x="49" y="331" on="1"/>
        <pt x="49" y="488" on="0"/>
        <pt x="215" y="673" on="0"/>
        <pt x="355" y="673" on="1"/>
        <pt x="496" y="673" on="0"/>
        <pt x="663" y="488" on="0"/>
        <pt x="663" y="331" on="1"/>
        <pt x="663" y="176" on="0"/>
        <pt x="496" y="-10" on="0"/>
      </contour>
      <contour>
        <pt x="579" y="313" on="1"/>
        <pt x="579" y="369" on="0"/>
        <pt x="554" y="471" on="0"/>
        <pt x="504" y="559" on="0"/>
        <pt x="414" y="612" on="0"/>
        <pt x="356" y="612" on="1"/>
        <pt x="253" y="612" on="0"/>
        <pt x="131" y="471" on="0"/>
        <pt x="131" y="362" on="1"/>
        <pt x="131" y="303" on="0"/>
        <pt x="156" y="197" on="0"/>
        <pt x="206" y="105" on="0"/>
        <pt x="295" y="51" on="0"/>
        <pt x="354" y="51" on="1"/>
        <pt x="462" y="51" on="0"/>
        <pt x="579" y="196" on="0"/>
      </contour>
    </TTGlyph>
    <TTGlyph name="Omega" xMin="45" yMin="0" xMax="791" yMax="677">
      <contour>
        <pt x="289" y="677" on="0"/>
        <pt x="547" y="677" on="0"/>
        <pt x="724" y="506" on="0"/>
        <pt x="724" y="371" on="1"/>
        <pt x="724" y="176" on="0"/>
        <pt x="529" y="60" on="1"/>
        <pt x="710" y="60" on="1"/>
        <pt x="731" y="89" on="0"/>
        <pt x="766" y="162" on="1"/>
        <pt x="769" y="163" on="0"/>
        <pt x="773" y="163" on="1"/>
        <pt x="791" y="163" on="0"/>
        <pt x="791" y="147" on="1"/>
        <pt x="791" y="120" on="0"/>
        <pt x="764" y="0" on="1"/>
        <pt x="543" y="0" on="1"/>
        <pt x="485" y="0" on="0"/>
        <pt x="485" y="60" on="1"/>
        <pt x="485" y="62" on="0"/>
        <pt x="488" y="92" on="1"/>
        <pt x="641" y="184" on="0"/>
        <pt x="641" y="361" on="1"/>
        <pt x="640" y="476" on="0"/>
        <pt x="523" y="621" on="0"/>
        <pt x="313" y="621" on="0"/>
        <pt x="196" y="476" on="0"/>
        <pt x="195" y="361" on="1"/>
        <pt x="195" y="184" on="0"/>
        <pt x="348" y="92" on="1"/>
        <pt x="351" y="77" on="0"/>
        <pt x="351" y="59" on="1"/>
        <pt x="351" y="0" on="0"/>
        <pt x="293" y="0" on="1"/>
        <pt x="72" y="0" on="1"/>
        <pt x="45" y="120" on="0"/>
        <pt x="45" y="147" on="1"/>
        <pt x="45" y="163" on="0"/>
        <pt x="63" y="163" on="1"/>
        <pt x="67" y="163" on="0"/>
        <pt x="70" y="162" on="1"/>
        <pt x="105" y="89" on="0"/>
        <pt x="126" y="60" on="1"/>
        <pt x="307" y="60" on="1"/>
        <pt x="112" y="176" on="0"/>
        <pt x="112" y="371" on="1"/>
        <pt x="112" y="506" on="0"/>
      </contour>
    </TTGlyph>
    <TTGlyph name="Oslash" xMin="49" yMin="-84" xMax="663" yMax="744">
      <contour>
        <pt x="579" y="313" on="1"/>
        <pt x="579" y="455" on="0"/>
        <pt x="512" y="539" on="1"/>
        <pt x="256" y="75" on="1"/>
        <pt x="298" y="51" on="0"/>
        <pt x="354" y="51" on="1"/>
        <pt x="462" y="51" on="0"/>
        <pt x="579" y="196" on="0"/>
      </contour>
      <contour>
        <pt x="131" y="362" on="1"/>
        <pt x="131" y="194" on="0"/>
        <pt x="213" y="108" on="1"/>
        <pt x="472" y="577" on="1"/>
        <pt x="423" y="612" on="0"/>
        <pt x="356" y="612" on="1"/>
        <pt x="253" y="612" on="0"/>
        <pt x="131" y="471" on="0"/>
      </contour>
      <contour>
        <pt x="135" y="-33" on="1"/>
        <pt x="177" y="43" on="1"/>
        <pt x="49" y="133" on="0"/>
        <pt x="49" y="331" on="1"/>
        <pt x="49" y="488" on="0"/>
        <pt x="215" y="673" on="0"/>
        <pt x="355" y="673" on="1"/>
        <pt x="438" y="673" on="0"/>
        <pt x="504" y="639" on="1"/>
        <pt x="539" y="705" on="0"/>
        <pt x="557" y="744" on="1"/>
        <pt x="574" y="743" on="0"/>
        <pt x="603" y="726" on="0"/>
        <pt x="603" y="713" on="1"/>
        <pt x="603" y="704" on="0"/>
        <pt x="597" y="693" on="1"/>
        <pt x="550" y="608" on="1"/>
        <pt x="663" y="517" on="0"/>
        <pt x="663" y="331" on="1"/>
        <pt x="663" y="176" on="0"/>
        <pt x="496" y="-10" on="0"/>
        <pt x="355" y="-10" on="1"/>
        <pt x="284" y="-10" on="0"/>
        <pt x="225" y="15" on="1"/>
        <pt x="194" y="-43" on="0"/>
        <pt x="175" y="-84" on="1"/>
        <pt x="129" y="-78" on="0"/>
        <pt x="129" y="-52" on="1"/>
        <pt x="129" y="-45" on="0"/>
      </contour>
    </TTGlyph>
    <TTGlyph name="Otilde" xMin="49" yMin="-10" xMax="663" yMax="827">
      <contour>
        <pt x="499" y="803" on="1"/>
        <pt x="499" y="775" on="0"/>
        <pt x="437" y="723" on="0"/>
        <pt x="402" y="723" on="1"/>
        <pt x="381" y="723" on="0"/>
        <pt x="306" y="768" on="0"/>
        <pt x="270" y="768" on="0"/>
        <pt x="229" y="726" on="1"/>
        <pt x="213" y="733" on="0"/>
        <pt x="213" y="747" on="1"/>
        <pt x="213" y="774" on="0"/>
        <pt x="276" y="827" on="0"/>
        <pt x="311" y="827" on="1"/>
        <pt x="329" y="827" on="0"/>
        <pt x="407" y="782" on="0"/>
        <pt x="424" y="782" on="1"/>
        <pt x="447" y="782" on="0"/>
        <pt x="483" y="824" on="1"/>
        <pt x="499" y="818" on="0"/>
      </contour>
      <contour>
        <pt x="355" y="-10" on="1"/>
        <pt x="215" y="-10" on="0"/>
        <pt x="49" y="176" on="0"/>
        <pt x="49" y="331" on="1"/>
        <pt x="49" y="488" on="0"/>
        <pt x="215" y="673" on="0"/>
        <pt x="355" y="673" on="1"/>
        <pt x="496" y="673" on="0"/>
        <pt x="663" y="488" on="0"/>
        <pt x="663" y="331" on="1"/>
        <pt x="663" y="176" on="0"/>
        <pt x="496" y="-10" on="0"/>
      </contour>
      <contour>
        <pt x="579" y="313" on="1"/>
        <pt x="579" y="369" on="0"/>
        <pt x="554" y="471" on="0"/>
        <pt x="504" y="559" on="0"/>
        <pt x="414" y="612" on="0"/>
        <pt x="356" y="612" on="1"/>
        <pt x="253" y="612" on="0"/>
        <pt x="131" y="471" on="0"/>
        <pt x="131" y="362" on="1"/>
        <pt x="131" y="303" on="0"/>
        <pt x="156" y="197" on="0"/>
        <pt x="206" y="105" on="0"/>
        <pt x="295" y="51" on="0"/>
        <pt x="354" y="51" on="1"/>
        <pt x="462" y="51" on="0"/>
        <pt x="579" y="196" on="0"/>
      </contour>
    </TTGlyph>
    <TTGlyph name="P" xMin="66" yMin="-3" xMax="483" yMax="673">
      <contour>
        <pt x="254" y="304" on="1"/>
        <pt x="322" y="304" on="0"/>
        <pt x="399" y="383" on="0"/>
        <pt x="399" y="450" on="1"/>
        <pt x="399" y="542" on="0"/>
        <pt x="313" y="612" on="0"/>
        <pt x="222" y="612" on="1"/>
        <pt x="196" y="612" on="0"/>
        <pt x="150" y="608" on="1"/>
        <pt x="154" y="550" on="0"/>
        <pt x="154" y="404" on="1"/>
        <pt x="154" y="329" on="1"/>
        <pt x="198" y="304" on="0"/>
      </contour>
      <contour>
        <pt x="79" y="231" on="1"/>
        <pt x="79" y="431" on="1"/>
        <pt x="79" y="569" on="0"/>
        <pt x="66" y="661" on="1"/>
        <pt x="140" y="673" on="0"/>
        <pt x="215" y="673" on="1"/>
        <pt x="483" y="673" on="0"/>
        <pt x="483" y="457" on="1"/>
        <pt x="483" y="353" on="0"/>
        <pt x="358" y="243" on="0"/>
        <pt x="274" y="243" on="1"/>
        <pt x="203" y="243" on="0"/>
        <pt x="154" y="275" on="1"/>
        <pt x="154" y="203" on="1"/>
        <pt x="154" y="68" on="0"/>
        <pt x="173" y="5" on="1"/>
        <pt x="155" y="-3" on="0"/>
        <pt x="97" y="-3" on="0"/>
        <pt x="77" y="23" on="0"/>
        <pt x="77" y="54" on="1"/>
        <pt x="77" y="70" on="0"/>
        <pt x="79" y="196" on="0"/>
      </contour>
    </TTGlyph>
    <TTGlyph name="Q" xMin="49" yMin="-157" xMax="663" yMax="673">
      <contour>
        <pt x="579" y="313" on="1"/>
        <pt x="579" y="369" on="0"/>
        <pt x="554" y="471" on="0"/>
        <pt x="504" y="559" on="0"/>
        <pt x="414" y="612" on="0"/>
        <pt x="356" y="612" on="1"/>
        <pt x="253" y="612" on="0"/>
        <pt x="131" y="471" on="0"/>
        <pt x="131" y="362" on="1"/>
        <pt x="131" y="303" on="0"/>
        <pt x="156" y="197" on="0"/>
        <pt x="206" y="105" on="0"/>
        <pt x="295" y="51" on="0"/>
        <pt x="354" y="51" on="1"/>
        <pt x="462" y="51" on="0"/>
        <pt x="579" y="196" on="0"/>
      </contour>
      <contour>
        <pt x="325" y="-9" on="1"/>
        <pt x="198" y="1" on="0"/>
        <pt x="49" y="184" on="0"/>
        <pt x="49" y="331" on="1"/>
        <pt x="49" y="488" on="0"/>
        <pt x="215" y="673" on="0"/>
        <pt x="355" y="673" on="1"/>
        <pt x="496" y="673" on="0"/>
        <pt x="663" y="488" on="0"/>
        <pt x="663" y="331" on="1"/>
        <pt x="663" y="185" on="0"/>
        <pt x="514" y="3" on="0"/>
        <pt x="387" y="-8" on="1"/>
        <pt x="399" y="-52" on="0"/>
        <pt x="460" y="-96" on="0"/>
        <pt x="501" y="-96" on="1"/>
        <pt x="541" y="-96" on="0"/>
        <pt x="583" y="-80" on="0"/>
        <pt x="611" y="-58" on="1"/>
        <pt x="621" y="-64" on="0"/>
        <pt x="640" y="-94" on="0"/>
        <pt x="640" y="-104" on="1"/>
        <pt x="640" y="-129" on="0"/>
        <pt x="559" y="-157" on="0"/>
        <pt x="508" y="-157" on="1"/>
        <pt x="435" y="-157" on="0"/>
        <pt x="338" y="-77" on="0"/>
      </contour>
    </TTGlyph>
    <TTGlyph name="R" xMin="66" yMin="-10" xMax="525" yMax="673">
      <contour>
        <pt x="425" y="84" on="1"/>
        <pt x="451" y="55" on="0"/>
        <pt x="489" y="55" on="1"/>
        <pt x="501" y="55" on="0"/>
        <pt x="516" y="58" on="1"/>
        <pt x="525" y="40" on="0"/>
        <pt x="525" y="28" on="1"/>
        <pt x="525" y="-10" on="0"/>
        <pt x="450" y="-10" on="1"/>
        <pt x="431" y="-10" on="0"/>
        <pt x="393" y="8" on="0"/>
        <pt x="355" y="52" on="0"/>
        <pt x="328" y="86" on="0"/>
        <pt x="289" y="158" on="0"/>
        <pt x="273" y="189" on="0"/>
        <pt x="235" y="272" on="0"/>
        <pt x="232" y="278" on="1"/>
        <pt x="204" y="282" on="0"/>
        <pt x="204" y="300" on="1"/>
        <pt x="204" y="309" on="0"/>
        <pt x="209" y="327" on="1"/>
        <pt x="237" y="322" on="0"/>
        <pt x="256" y="322" on="1"/>
        <pt x="323" y="322" on="0"/>
        <pt x="399" y="401" on="0"/>
        <pt x="399" y="469" on="1"/>
        <pt x="399" y="549" on="0"/>
        <pt x="315" y="612" on="0"/>
        <pt x="228" y="612" on="1"/>
        <pt x="196" y="612" on="0"/>
        <pt x="150" y="608" on="1"/>
        <pt x="154" y="550" on="0"/>
        <pt x="154" y="404" on="1"/>
        <pt x="154" y="203" on="1"/>
        <pt x="154" y="68" on="0"/>
        <pt x="173" y="5" on="1"/>
        <pt x="155" y="-3" on="0"/>
        <pt x="97" y="-3" on="0"/>
        <pt x="77" y="23" on="0"/>
        <pt x="77" y="54" on="1"/>
        <pt x="77" y="70" on="0"/>
        <pt x="79" y="196" on="0"/>
        <pt x="79" y="231" on="1"/>
        <pt x="79" y="431" on="1"/>
        <pt x="79" y="569" on="0"/>
        <pt x="66" y="661" on="1"/>
        <pt x="140" y="673" on="0"/>
        <pt x="215" y="673" on="1"/>
        <pt x="483" y="673" on="0"/>
        <pt x="483" y="474" on="1"/>
        <pt x="483" y="392" on="0"/>
        <pt x="393" y="291" on="0"/>
        <pt x="319" y="277" on="1"/>
        <pt x="319" y="276" on="0"/>
        <pt x="353" y="204" on="0"/>
        <pt x="366" y="180" on="0"/>
        <pt x="394" y="126" on="0"/>
        <pt x="415" y="94" on="0"/>
      </contour>
    </TTGlyph>
    <TTGlyph name="S" xMin="45" yMin="-10" xMax="473" yMax="673">
      <contour>
        <pt x="401" y="533" on="1"/>
        <pt x="384" y="566" on="0"/>
        <pt x="296" y="609" on="0"/>
        <pt x="249" y="609" on="1"/>
        <pt x="198" y="609" on="0"/>
        <pt x="129" y="553" on="0"/>
        <pt x="129" y="499" on="1"/>
        <pt x="129" y="458" on="0"/>
        <pt x="180" y="405" on="0"/>
        <pt x="256" y="384" on="0"/>
        <pt x="346" y="354" on="0"/>
        <pt x="422" y="322" on="0"/>
        <pt x="473" y="244" on="0"/>
        <pt x="473" y="186" on="1"/>
        <pt x="473" y="134" on="0"/>
        <pt x="433" y="55" on="0"/>
        <pt x="365" y="11" on="0"/>
        <pt x="286" y="-10" on="0"/>
        <pt x="242" y="-10" on="1"/>
        <pt x="164" y="-10" on="0"/>
        <pt x="45" y="45" on="0"/>
        <pt x="45" y="84" on="1"/>
        <pt x="45" y="97" on="0"/>
        <pt x="62" y="118" on="0"/>
        <pt x="78" y="128" on="0"/>
        <pt x="96" y="137" on="1"/>
        <pt x="115" y="100" on="0"/>
        <pt x="214" y="53" on="0"/>
        <pt x="265" y="53" on="1"/>
        <pt x="321" y="53" on="0"/>
        <pt x="401" y="114" on="0"/>
        <pt x="401" y="171" on="1"/>
        <pt x="401" y="218" on="0"/>
        <pt x="330" y="273" on="0"/>
        <pt x="229" y="301" on="0"/>
        <pt x="128" y="335" on="0"/>
        <pt x="57" y="416" on="0"/>
        <pt x="57" y="483" on="1"/>
        <pt x="57" y="575" on="0"/>
        <pt x="178" y="673" on="0"/>
        <pt x="272" y="673" on="1"/>
        <pt x="341" y="673" on="0"/>
        <pt x="458" y="625" on="0"/>
        <pt x="458" y="583" on="1"/>
        <pt x="458" y="543" on="0"/>
      </contour>
    </TTGlyph>
    <TTGlyph name="Scaron" xMin="45" yMin="-10" xMax="473" yMax="876">
      <contour>
        <pt x="276" y="716" on="1"/>
        <pt x="229" y="746" on="0"/>
        <pt x="146" y="821" on="0"/>
        <pt x="146" y="848" on="1"/>
        <pt x="146" y="866" on="0"/>
        <pt x="169" y="876" on="1"/>
        <pt x="188" y="852" on="0"/>
        <pt x="242" y="808" on="0"/>
        <pt x="260" y="798" on="1"/>
        <pt x="278" y="787" on="1"/>
        <pt x="284" y="792" on="0"/>
        <pt x="309" y="813" on="0"/>
        <pt x="324" y="825" on="0"/>
        <pt x="346" y="842" on="0"/>
        <pt x="361" y="853" on="0"/>
        <pt x="376" y="863" on="0"/>
        <pt x="388" y="868" on="0"/>
        <pt x="392" y="868" on="1"/>
        <pt x="404" y="868" on="0"/>
        <pt x="417" y="850" on="1"/>
        <pt x="353" y="773" on="0"/>
      </contour>
      <contour>
        <pt x="401" y="533" on="1"/>
        <pt x="384" y="566" on="0"/>
        <pt x="296" y="609" on="0"/>
        <pt x="249" y="609" on="1"/>
        <pt x="198" y="609" on="0"/>
        <pt x="129" y="553" on="0"/>
        <pt x="129" y="499" on="1"/>
        <pt x="129" y="461" on="0"/>
        <pt x="167" y="411" on="0"/>
        <pt x="228" y="385" on="0"/>
        <pt x="301" y="366" on="0"/>
        <pt x="374" y="342" on="0"/>
        <pt x="435" y="306" on="0"/>
        <pt x="473" y="236" on="0"/>
        <pt x="473" y="186" on="1"/>
        <pt x="473" y="134" on="0"/>
        <pt x="433" y="55" on="0"/>
        <pt x="365" y="11" on="0"/>
        <pt x="286" y="-10" on="0"/>
        <pt x="242" y="-10" on="1"/>
        <pt x="164" y="-10" on="0"/>
        <pt x="45" y="45" on="0"/>
        <pt x="45" y="84" on="1"/>
        <pt x="45" y="97" on="0"/>
        <pt x="62" y="118" on="0"/>
        <pt x="78" y="128" on="0"/>
        <pt x="96" y="137" on="1"/>
        <pt x="115" y="100" on="0"/>
        <pt x="214" y="53" on="0"/>
        <pt x="265" y="53" on="1"/>
        <pt x="321" y="53" on="0"/>
        <pt x="401" y="114" on="0"/>
        <pt x="401" y="171" on="1"/>
        <pt x="401" y="221" on="0"/>
        <pt x="330" y="278" on="0"/>
        <pt x="229" y="305" on="0"/>
        <pt x="128" y="337" on="0"/>
        <pt x="57" y="416" on="0"/>
        <pt x="57" y="483" on="1"/>
        <pt x="57" y="575" on="0"/>
        <pt x="178" y="673" on="0"/>
        <pt x="272" y="673" on="1"/>
        <pt x="341" y="673" on="0"/>
        <pt x="458" y="625" on="0"/>
        <pt x="458" y="583" on="1"/>
        <pt x="458" y="543" on="0"/>
      </contour>
    </TTGlyph>
    <TTGlyph name="T" xMin="0" yMin="-3" xMax="465" yMax="664">
      <contour>
        <pt x="196" y="231" on="1"/>
        <pt x="196" y="431" on="1"/>
        <pt x="196" y="524" on="0"/>
        <pt x="193" y="602" on="1"/>
        <pt x="51" y="602" on="0"/>
        <pt x="3" y="598" on="1"/>
        <pt x="0" y="607" on="0"/>
        <pt x="0" y="625" on="1"/>
        <pt x="0" y="645" on="0"/>
        <pt x="21" y="659" on="0"/>
        <pt x="44" y="660" on="1"/>
        <pt x="69" y="661" on="0"/>
        <pt x="151" y="661" on="1"/>
        <pt x="269" y="661" on="1"/>
        <pt x="427" y="661" on="0"/>
        <pt x="462" y="664" on="1"/>
        <pt x="465" y="655" on="0"/>
        <pt x="465" y="638" on="1"/>
        <pt x="465" y="618" on="0"/>
        <pt x="444" y="604" on="0"/>
        <pt x="421" y="603" on="1"/>
        <pt x="390" y="602" on="0"/>
        <pt x="278" y="602" on="1"/>
        <pt x="271" y="459" on="0"/>
        <pt x="271" y="404" on="1"/>
        <pt x="271" y="203" on="1"/>
        <pt x="271" y="68" on="0"/>
        <pt x="290" y="5" on="1"/>
        <pt x="272" y="-3" on="0"/>
        <pt x="214" y="-3" on="0"/>
        <pt x="194" y="23" on="0"/>
        <pt x="194" y="54" on="1"/>
        <pt x="194" y="70" on="0"/>
        <pt x="196" y="196" on="0"/>
      </contour>
    </TTGlyph>
    <TTGlyph name="Thorn" xMin="66" yMin="-3" xMax="477" yMax="666">
      <contour>
        <pt x="248" y="189" on="1"/>
        <pt x="316" y="189" on="0"/>
        <pt x="393" y="268" on="0"/>
        <pt x="393" y="335" on="1"/>
        <pt x="393" y="427" on="0"/>
        <pt x="307" y="497" on="0"/>
        <pt x="216" y="497" on="1"/>
        <pt x="193" y="497" on="0"/>
        <pt x="149" y="493" on="1"/>
        <pt x="148" y="465" on="0"/>
        <pt x="148" y="338" on="1"/>
        <pt x="148" y="214" on="1"/>
        <pt x="192" y="189" on="0"/>
      </contour>
      <contour>
        <pt x="107" y="666" on="1"/>
        <pt x="156" y="666" on="0"/>
        <pt x="156" y="628" on="1"/>
        <pt x="156" y="624" on="0"/>
        <pt x="155" y="605" on="0"/>
        <pt x="153" y="569" on="0"/>
        <pt x="152" y="555" on="1"/>
        <pt x="184" y="558" on="0"/>
        <pt x="209" y="558" on="1"/>
        <pt x="477" y="558" on="0"/>
        <pt x="477" y="342" on="1"/>
        <pt x="477" y="238" on="0"/>
        <pt x="352" y="128" on="0"/>
        <pt x="268" y="128" on="1"/>
        <pt x="197" y="128" on="0"/>
        <pt x="148" y="160" on="1"/>
        <pt x="148" y="67" on="0"/>
        <pt x="167" y="5" on="1"/>
        <pt x="149" y="-3" on="0"/>
        <pt x="91" y="-3" on="0"/>
        <pt x="71" y="23" on="0"/>
        <pt x="71" y="54" on="1"/>
        <pt x="71" y="70" on="0"/>
        <pt x="73" y="196" on="0"/>
        <pt x="73" y="231" on="1"/>
        <pt x="73" y="431" on="1"/>
        <pt x="73" y="572" on="0"/>
        <pt x="66" y="663" on="1"/>
        <pt x="83" y="666" on="0"/>
      </contour>
    </TTGlyph>
    <TTGlyph name="U" xMin="72" yMin="-10" xMax="578" yMax="666">
      <contour>
        <pt x="72" y="658" on="1"/>
        <pt x="92" y="666" on="0"/>
        <pt x="117" y="666" on="1"/>
        <pt x="146" y="666" on="0"/>
        <pt x="173" y="643" on="0"/>
        <pt x="173" y="615" on="1"/>
        <pt x="173" y="572" on="0"/>
        <pt x="158" y="279" on="0"/>
        <pt x="158" y="198" on="1"/>
        <pt x="158" y="128" on="0"/>
        <pt x="239" y="54" on="0"/>
        <pt x="292" y="54" on="1"/>
        <pt x="341" y="54" on="0"/>
        <pt x="449" y="102" on="0"/>
        <pt x="483" y="134" on="1"/>
        <pt x="483" y="141" on="0"/>
        <pt x="484" y="196" on="0"/>
        <pt x="484" y="329" on="0"/>
        <pt x="484" y="431" on="1"/>
        <pt x="484" y="572" on="0"/>
        <pt x="477" y="663" on="1"/>
        <pt x="494" y="666" on="0"/>
        <pt x="518" y="666" on="1"/>
        <pt x="567" y="666" on="0"/>
        <pt x="567" y="628" on="1"/>
        <pt x="567" y="626" on="0"/>
        <pt x="563" y="556" on="0"/>
        <pt x="559" y="407" on="0"/>
        <pt x="559" y="309" on="1"/>
        <pt x="559" y="154" on="0"/>
        <pt x="565" y="49" on="0"/>
        <pt x="578" y="5" on="1"/>
        <pt x="560" y="-3" on="0"/>
        <pt x="531" y="-3" on="1"/>
        <pt x="503" y="-3" on="0"/>
        <pt x="482" y="22" on="0"/>
        <pt x="482" y="56" on="1"/>
        <pt x="482" y="67" on="1"/>
        <pt x="442" y="33" on="0"/>
        <pt x="330" y="-10" on="0"/>
        <pt x="283" y="-10" on="1"/>
        <pt x="189" y="-10" on="0"/>
        <pt x="80" y="79" on="0"/>
        <pt x="80" y="192" on="1"/>
        <pt x="80" y="251" on="0"/>
        <pt x="89" y="453" on="0"/>
        <pt x="89" y="501" on="1"/>
        <pt x="89" y="596" on="0"/>
      </contour>
    </TTGlyph>
    <TTGlyph name="Uacute" xMin="72" yMin="-10" xMax="578" yMax="899">
      <contour>
        <pt x="450" y="816" on="1"/>
        <pt x="428" y="800" on="0"/>
        <pt x="313" y="733" on="0"/>
        <pt x="300" y="721" on="1"/>
        <pt x="284" y="735" on="0"/>
        <pt x="284" y="750" on="1"/>
        <pt x="284" y="767" on="0"/>
        <pt x="316" y="792" on="0"/>
        <pt x="399" y="854" on="0"/>
        <pt x="440" y="899" on="1"/>
        <pt x="475" y="879" on="0"/>
        <pt x="475" y="853" on="1"/>
        <pt x="475" y="833" on="0"/>
      </contour>
      <contour>
        <pt x="72" y="658" on="1"/>
        <pt x="92" y="666" on="0"/>
        <pt x="117" y="666" on="1"/>
        <pt x="146" y="666" on="0"/>
        <pt x="173" y="643" on="0"/>
        <pt x="173" y="615" on="1"/>
        <pt x="173" y="572" on="0"/>
        <pt x="158" y="279" on="0"/>
        <pt x="158" y="198" on="1"/>
        <pt x="158" y="128" on="0"/>
        <pt x="239" y="54" on="0"/>
        <pt x="292" y="54" on="1"/>
        <pt x="341" y="54" on="0"/>
        <pt x="449" y="102" on="0"/>
        <pt x="483" y="134" on="1"/>
        <pt x="483" y="141" on="0"/>
        <pt x="484" y="196" on="0"/>
        <pt x="484" y="329" on="0"/>
        <pt x="484" y="431" on="1"/>
        <pt x="484" y="572" on="0"/>
        <pt x="477" y="663" on="1"/>
        <pt x="494" y="666" on="0"/>
        <pt x="518" y="666" on="1"/>
        <pt x="567" y="666" on="0"/>
        <pt x="567" y="628" on="1"/>
        <pt x="567" y="626" on="0"/>
        <pt x="563" y="556" on="0"/>
        <pt x="559" y="407" on="0"/>
        <pt x="559" y="309" on="1"/>
        <pt x="559" y="154" on="0"/>
        <pt x="565" y="49" on="0"/>
        <pt x="578" y="5" on="1"/>
        <pt x="560" y="-3" on="0"/>
        <pt x="531" y="-3" on="1"/>
        <pt x="503" y="-3" on="0"/>
        <pt x="482" y="22" on="0"/>
        <pt x="482" y="56" on="1"/>
        <pt x="482" y="67" on="1"/>
        <pt x="442" y="33" on="0"/>
        <pt x="330" y="-10" on="0"/>
        <pt x="283" y="-10" on="1"/>
        <pt x="189" y="-10" on="0"/>
        <pt x="80" y="79" on="0"/>
        <pt x="80" y="192" on="1"/>
        <pt x="80" y="251" on="0"/>
        <pt x="89" y="453" on="0"/>
        <pt x="89" y="501" on="1"/>
        <pt x="89" y="596" on="0"/>
      </contour>
    </TTGlyph>
    <TTGlyph name="Ucircumflex" xMin="72" yMin="-10" xMax="578" yMax="869">
      <contour>
        <pt x="325" y="869" on="1"/>
        <pt x="372" y="839" on="0"/>
        <pt x="455" y="764" on="0"/>
        <pt x="455" y="737" on="1"/>
        <pt x="455" y="719" on="0"/>
        <pt x="432" y="709" on="1"/>
        <pt x="413" y="733" on="0"/>
        <pt x="359" y="778" on="0"/>
        <pt x="341" y="788" on="1"/>
        <pt x="323" y="798" on="1"/>
        <pt x="317" y="793" on="0"/>
        <pt x="292" y="772" on="0"/>
        <pt x="277" y="760" on="0"/>
        <pt x="255" y="743" on="0"/>
        <pt x="240" y="732" on="0"/>
        <pt x="225" y="722" on="0"/>
        <pt x="213" y="717" on="0"/>
        <pt x="209" y="717" on="1"/>
        <pt x="197" y="717" on="0"/>
        <pt x="184" y="735" on="1"/>
        <pt x="248" y="812" on="0"/>
      </contour>
      <contour>
        <pt x="72" y="658" on="1"/>
        <pt x="92" y="666" on="0"/>
        <pt x="117" y="666" on="1"/>
        <pt x="146" y="666" on="0"/>
        <pt x="173" y="643" on="0"/>
        <pt x="173" y="615" on="1"/>
        <pt x="173" y="572" on="0"/>
        <pt x="158" y="279" on="0"/>
        <pt x="158" y="198" on="1"/>
        <pt x="158" y="128" on="0"/>
        <pt x="239" y="54" on="0"/>
        <pt x="292" y="54" on="1"/>
        <pt x="341" y="54" on="0"/>
        <pt x="449" y="102" on="0"/>
        <pt x="483" y="134" on="1"/>
        <pt x="483" y="141" on="0"/>
        <pt x="484" y="196" on="0"/>
        <pt x="484" y="329" on="0"/>
        <pt x="484" y="431" on="1"/>
        <pt x="484" y="572" on="0"/>
        <pt x="477" y="663" on="1"/>
        <pt x="494" y="666" on="0"/>
        <pt x="518" y="666" on="1"/>
        <pt x="567" y="666" on="0"/>
        <pt x="567" y="628" on="1"/>
        <pt x="567" y="626" on="0"/>
        <pt x="563" y="556" on="0"/>
        <pt x="559" y="407" on="0"/>
        <pt x="559" y="309" on="1"/>
        <pt x="559" y="154" on="0"/>
        <pt x="565" y="49" on="0"/>
        <pt x="578" y="5" on="1"/>
        <pt x="560" y="-3" on="0"/>
        <pt x="531" y="-3" on="1"/>
        <pt x="503" y="-3" on="0"/>
        <pt x="482" y="22" on="0"/>
        <pt x="482" y="56" on="1"/>
        <pt x="482" y="67" on="1"/>
        <pt x="442" y="33" on="0"/>
        <pt x="330" y="-10" on="0"/>
        <pt x="283" y="-10" on="1"/>
        <pt x="189" y="-10" on="0"/>
        <pt x="80" y="79" on="0"/>
        <pt x="80" y="192" on="1"/>
        <pt x="80" y="251" on="0"/>
        <pt x="89" y="453" on="0"/>
        <pt x="89" y="501" on="1"/>
        <pt x="89" y="596" on="0"/>
      </contour>
    </TTGlyph>
    <TTGlyph name="Udieresis" xMin="72" yMin="-10" xMax="578" yMax="819">
      <contour>
        <pt x="72" y="658" on="1"/>
        <pt x="92" y="666" on="0"/>
        <pt x="117" y="666" on="1"/>
        <pt x="146" y="666" on="0"/>
        <pt x="173" y="643" on="0"/>
        <pt x="173" y="615" on="1"/>
        <pt x="173" y="572" on="0"/>
        <pt x="158" y="279" on="0"/>
        <pt x="158" y="198" on="1"/>
        <pt x="158" y="128" on="0"/>
        <pt x="239" y="54" on="0"/>
        <pt x="292" y="54" on="1"/>
        <pt x="341" y="54" on="0"/>
        <pt x="449" y="102" on="0"/>
        <pt x="483" y="134" on="1"/>
        <pt x="483" y="141" on="0"/>
        <pt x="484" y="196" on="0"/>
        <pt x="484" y="329" on="0"/>
        <pt x="484" y="431" on="1"/>
        <pt x="484" y="572" on="0"/>
        <pt x="477" y="663" on="1"/>
        <pt x="494" y="666" on="0"/>
        <pt x="518" y="666" on="1"/>
        <pt x="567" y="666" on="0"/>
        <pt x="567" y="628" on="1"/>
        <pt x="567" y="626" on="0"/>
        <pt x="563" y="556" on="0"/>
        <pt x="559" y="407" on="0"/>
        <pt x="559" y="309" on="1"/>
        <pt x="559" y="154" on="0"/>
        <pt x="565" y="49" on="0"/>
        <pt x="578" y="5" on="1"/>
        <pt x="560" y="-3" on="0"/>
        <pt x="531" y="-3" on="1"/>
        <pt x="503" y="-3" on="0"/>
        <pt x="482" y="22" on="0"/>
        <pt x="482" y="56" on="1"/>
        <pt x="482" y="67" on="1"/>
        <pt x="442" y="33" on="0"/>
        <pt x="330" y="-10" on="0"/>
        <pt x="283" y="-10" on="1"/>
        <pt x="189" y="-10" on="0"/>
        <pt x="80" y="79" on="0"/>
        <pt x="80" y="192" on="1"/>
        <pt x="80" y="251" on="0"/>
        <pt x="89" y="453" on="0"/>
        <pt x="89" y="501" on="1"/>
        <pt x="89" y="596" on="0"/>
      </contour>
      <contour>
        <pt x="410" y="712" on="1"/>
        <pt x="389" y="712" on="0"/>
        <pt x="359" y="742" on="0"/>
        <pt x="359" y="766" on="1"/>
        <pt x="359" y="788" on="0"/>
        <pt x="391" y="819" on="0"/>
        <pt x="412" y="819" on="1"/>
        <pt x="432" y="819" on="0"/>
        <pt x="462" y="788" on="0"/>
        <pt x="462" y="766" on="1"/>
        <pt x="462" y="743" on="0"/>
        <pt x="430" y="712" on="0"/>
      </contour>
      <contour>
        <pt x="232" y="712" on="1"/>
        <pt x="211" y="712" on="0"/>
        <pt x="181" y="742" on="0"/>
        <pt x="181" y="766" on="1"/>
        <pt x="181" y="788" on="0"/>
        <pt x="213" y="819" on="0"/>
        <pt x="234" y="819" on="1"/>
        <pt x="254" y="819" on="0"/>
        <pt x="284" y="788" on="0"/>
        <pt x="284" y="766" on="1"/>
        <pt x="284" y="743" on="0"/>
        <pt x="252" y="712" on="0"/>
      </contour>
    </TTGlyph>
    <TTGlyph name="Ugrave" xMin="72" yMin="-10" xMax="578" yMax="899">
      <contour>
        <pt x="209" y="899" on="1"/>
        <pt x="246" y="858" on="0"/>
        <pt x="328" y="795" on="0"/>
        <pt x="364" y="766" on="0"/>
        <pt x="364" y="736" on="0"/>
        <pt x="348" y="722" on="1"/>
        <pt x="320" y="743" on="0"/>
        <pt x="223" y="797" on="0"/>
        <pt x="174" y="833" on="0"/>
        <pt x="174" y="853" on="1"/>
        <pt x="174" y="879" on="0"/>
      </contour>
      <contour>
        <pt x="72" y="658" on="1"/>
        <pt x="92" y="666" on="0"/>
        <pt x="117" y="666" on="1"/>
        <pt x="146" y="666" on="0"/>
        <pt x="173" y="643" on="0"/>
        <pt x="173" y="615" on="1"/>
        <pt x="173" y="572" on="0"/>
        <pt x="158" y="279" on="0"/>
        <pt x="158" y="198" on="1"/>
        <pt x="158" y="128" on="0"/>
        <pt x="239" y="54" on="0"/>
        <pt x="292" y="54" on="1"/>
        <pt x="341" y="54" on="0"/>
        <pt x="449" y="102" on="0"/>
        <pt x="483" y="134" on="1"/>
        <pt x="483" y="141" on="0"/>
        <pt x="484" y="196" on="0"/>
        <pt x="484" y="329" on="0"/>
        <pt x="484" y="431" on="1"/>
        <pt x="484" y="572" on="0"/>
        <pt x="477" y="663" on="1"/>
        <pt x="494" y="666" on="0"/>
        <pt x="518" y="666" on="1"/>
        <pt x="567" y="666" on="0"/>
        <pt x="567" y="628" on="1"/>
        <pt x="567" y="626" on="0"/>
        <pt x="563" y="556" on="0"/>
        <pt x="559" y="407" on="0"/>
        <pt x="559" y="309" on="1"/>
        <pt x="559" y="154" on="0"/>
        <pt x="565" y="49" on="0"/>
        <pt x="578" y="5" on="1"/>
        <pt x="560" y="-3" on="0"/>
        <pt x="531" y="-3" on="1"/>
        <pt x="503" y="-3" on="0"/>
        <pt x="482" y="22" on="0"/>
        <pt x="482" y="56" on="1"/>
        <pt x="482" y="67" on="1"/>
        <pt x="442" y="33" on="0"/>
        <pt x="330" y="-10" on="0"/>
        <pt x="283" y="-10" on="1"/>
        <pt x="189" y="-10" on="0"/>
        <pt x="80" y="79" on="0"/>
        <pt x="80" y="192" on="1"/>
        <pt x="80" y="251" on="0"/>
        <pt x="89" y="453" on="0"/>
        <pt x="89" y="501" on="1"/>
        <pt x="89" y="596" on="0"/>
      </contour>
    </TTGlyph>
    <TTGlyph name="V" xMin="-20" yMin="-3" xMax="548" yMax="673">
      <contour>
        <pt x="463" y="667" on="1"/>
        <pt x="491" y="673" on="0"/>
        <pt x="505" y="673" on="1"/>
        <pt x="528" y="673" on="0"/>
        <pt x="548" y="651" on="0"/>
        <pt x="548" y="624" on="1"/>
        <pt x="548" y="514" on="0"/>
        <pt x="408" y="145" on="0"/>
        <pt x="335" y="52" on="1"/>
        <pt x="310" y="19" on="0"/>
        <pt x="276" y="-3" on="0"/>
        <pt x="253" y="-3" on="1"/>
        <pt x="242" y="-3" on="0"/>
        <pt x="220" y="-1" on="1"/>
        <pt x="188" y="160" on="0"/>
        <pt x="34" y="576" on="0"/>
        <pt x="-20" y="629" on="1"/>
        <pt x="22" y="666" on="0"/>
        <pt x="52" y="666" on="1"/>
        <pt x="83" y="666" on="0"/>
        <pt x="101" y="623" on="1"/>
        <pt x="140" y="534" on="0"/>
        <pt x="246" y="206" on="0"/>
        <pt x="276" y="85" on="1"/>
        <pt x="335" y="151" on="0"/>
        <pt x="467" y="502" on="0"/>
        <pt x="467" y="617" on="1"/>
        <pt x="467" y="653" on="0"/>
      </contour>
    </TTGlyph>
    <TTGlyph name="W" xMin="-20" yMin="-3" xMax="922" yMax="673">
      <contour>
        <pt x="837" y="667" on="1"/>
        <pt x="865" y="673" on="0"/>
        <pt x="879" y="673" on="1"/>
        <pt x="901" y="673" on="0"/>
        <pt x="922" y="654" on="0"/>
        <pt x="922" y="630" on="1"/>
        <pt x="922" y="514" on="0"/>
        <pt x="791" y="147" on="0"/>
        <pt x="720" y="52" on="1"/>
        <pt x="695" y="19" on="0"/>
        <pt x="664" y="-3" on="0"/>
        <pt x="642" y="-3" on="1"/>
        <pt x="630" y="-3" on="0"/>
        <pt x="610" y="-1" on="1"/>
        <pt x="571" y="209" on="0"/>
        <pt x="485" y="440" on="1"/>
        <pt x="453" y="329" on="0"/>
        <pt x="358" y="112" on="0"/>
        <pt x="313" y="52" on="1"/>
        <pt x="288" y="19" on="0"/>
        <pt x="257" y="-3" on="0"/>
        <pt x="235" y="-3" on="1"/>
        <pt x="224" y="-3" on="0"/>
        <pt x="204" y="-1" on="1"/>
        <pt x="175" y="159" on="0"/>
        <pt x="30" y="576" on="0"/>
        <pt x="-20" y="629" on="1"/>
        <pt x="21" y="666" on="0"/>
        <pt x="53" y="666" on="1"/>
        <pt x="82" y="666" on="0"/>
        <pt x="100" y="623" on="1"/>
        <pt x="137" y="536" on="0"/>
        <pt x="231" y="212" on="0"/>
        <pt x="260" y="85" on="1"/>
        <pt x="314" y="150" on="0"/>
        <pt x="434" y="501" on="0"/>
        <pt x="434" y="616" on="1"/>
        <pt x="434" y="652" on="0"/>
        <pt x="430" y="667" on="1"/>
        <pt x="458" y="673" on="0"/>
        <pt x="472" y="673" on="1"/>
        <pt x="494" y="673" on="0"/>
        <pt x="515" y="654" on="0"/>
        <pt x="515" y="630" on="1"/>
        <pt x="515" y="601" on="0"/>
        <pt x="510" y="573" on="1"/>
        <pt x="576" y="469" on="0"/>
        <pt x="666" y="85" on="1"/>
        <pt x="720" y="151" on="0"/>
        <pt x="841" y="501" on="0"/>
        <pt x="841" y="616" on="1"/>
        <pt x="841" y="652" on="0"/>
      </contour>
    </TTGlyph>
    <TTGlyph name="X" xMin="25" yMin="-10" xMax="570" yMax="673">
      <contour>
        <pt x="25" y="43" on="1"/>
        <pt x="25" y="102" on="0"/>
        <pt x="247" y="345" on="1"/>
        <pt x="100" y="581" on="0"/>
        <pt x="30" y="626" on="1"/>
        <pt x="68" y="673" on="0"/>
        <pt x="104" y="673" on="1"/>
        <pt x="125" y="673" on="0"/>
        <pt x="155" y="631" on="1"/>
        <pt x="219" y="539" on="0"/>
        <pt x="300" y="405" on="1"/>
        <pt x="356" y="473" on="0"/>
        <pt x="444" y="630" on="0"/>
        <pt x="450" y="672" on="1"/>
        <pt x="521" y="658" on="0"/>
        <pt x="521" y="616" on="1"/>
        <pt x="521" y="589" on="0"/>
        <pt x="405" y="424" on="0"/>
        <pt x="336" y="346" on="1"/>
        <pt x="492" y="80" on="0"/>
        <pt x="570" y="33" on="1"/>
        <pt x="532" y="-10" on="0"/>
        <pt x="501" y="-10" on="1"/>
        <pt x="477" y="-10" on="0"/>
        <pt x="449" y="29" on="1"/>
        <pt x="390" y="107" on="0"/>
        <pt x="283" y="285" on="1"/>
        <pt x="226" y="230" on="0"/>
        <pt x="108" y="46" on="0"/>
        <pt x="94" y="-10" on="1"/>
        <pt x="25" y="3" on="0"/>
      </contour>
    </TTGlyph>
    <TTGlyph name="Y" xMin="-10" yMin="-3" xMax="496" yMax="672">
      <contour>
        <pt x="496" y="627" on="1"/>
        <pt x="496" y="602" on="0"/>
        <pt x="344" y="369" on="0"/>
        <pt x="287" y="301" on="1"/>
        <pt x="287" y="216" on="1"/>
        <pt x="287" y="70" on="0"/>
        <pt x="306" y="5" on="1"/>
        <pt x="288" y="-3" on="0"/>
        <pt x="230" y="-3" on="0"/>
        <pt x="210" y="23" on="0"/>
        <pt x="210" y="54" on="1"/>
        <pt x="211" y="146" on="0"/>
        <pt x="212" y="232" on="1"/>
        <pt x="212" y="294" on="1"/>
        <pt x="67" y="567" on="0"/>
        <pt x="-10" y="619" on="1"/>
        <pt x="-7" y="623" on="0"/>
        <pt x="12" y="645" on="0"/>
        <pt x="19" y="651" on="0"/>
        <pt x="33" y="663" on="0"/>
        <pt x="45" y="667" on="0"/>
        <pt x="53" y="667" on="1"/>
        <pt x="78" y="667" on="0"/>
        <pt x="101" y="633" on="1"/>
        <pt x="161" y="546" on="0"/>
        <pt x="261" y="361" on="1"/>
        <pt x="309" y="424" on="0"/>
        <pt x="418" y="635" on="0"/>
        <pt x="420" y="672" on="1"/>
        <pt x="496" y="667" on="0"/>
      </contour>
    </TTGlyph>
    <TTGlyph name="Yacute" xMin="-10" yMin="-3" xMax="496" yMax="899">
      <contour>
        <pt x="372" y="816" on="1"/>
        <pt x="350" y="800" on="0"/>
        <pt x="235" y="733" on="0"/>
        <pt x="222" y="721" on="1"/>
        <pt x="206" y="735" on="0"/>
        <pt x="206" y="750" on="1"/>
        <pt x="206" y="767" on="0"/>
        <pt x="238" y="792" on="0"/>
        <pt x="321" y="854" on="0"/>
        <pt x="362" y="899" on="1"/>
        <pt x="397" y="879" on="0"/>
        <pt x="397" y="853" on="1"/>
        <pt x="397" y="833" on="0"/>
      </contour>
      <contour>
        <pt x="496" y="627" on="1"/>
        <pt x="496" y="602" on="0"/>
        <pt x="344" y="369" on="0"/>
        <pt x="287" y="301" on="1"/>
        <pt x="287" y="216" on="1"/>
        <pt x="287" y="70" on="0"/>
        <pt x="306" y="5" on="1"/>
        <pt x="288" y="-3" on="0"/>
        <pt x="230" y="-3" on="0"/>
        <pt x="210" y="23" on="0"/>
        <pt x="210" y="54" on="1"/>
        <pt x="211" y="146" on="0"/>
        <pt x="212" y="232" on="1"/>
        <pt x="212" y="294" on="1"/>
        <pt x="67" y="567" on="0"/>
        <pt x="-10" y="619" on="1"/>
        <pt x="-7" y="623" on="0"/>
        <pt x="12" y="645" on="0"/>
        <pt x="19" y="651" on="0"/>
        <pt x="33" y="663" on="0"/>
        <pt x="45" y="667" on="0"/>
        <pt x="53" y="667" on="1"/>
        <pt x="78" y="667" on="0"/>
        <pt x="101" y="633" on="1"/>
        <pt x="161" y="546" on="0"/>
        <pt x="261" y="361" on="1"/>
        <pt x="309" y="424" on="0"/>
        <pt x="418" y="635" on="0"/>
        <pt x="420" y="672" on="1"/>
        <pt x="496" y="667" on="0"/>
      </contour>
    </TTGlyph>
    <TTGlyph name="Ydieresis" xMin="-10" yMin="-3" xMax="496" yMax="819">
      <contour>
        <pt x="496" y="627" on="1"/>
        <pt x="496" y="602" on="0"/>
        <pt x="344" y="369" on="0"/>
        <pt x="287" y="301" on="1"/>
        <pt x="287" y="216" on="1"/>
        <pt x="287" y="70" on="0"/>
        <pt x="306" y="5" on="1"/>
        <pt x="288" y="-3" on="0"/>
        <pt x="230" y="-3" on="0"/>
        <pt x="210" y="23" on="0"/>
        <pt x="210" y="54" on="1"/>
        <pt x="211" y="146" on="0"/>
        <pt x="212" y="232" on="1"/>
        <pt x="212" y="294" on="1"/>
        <pt x="67" y="567" on="0"/>
        <pt x="-10" y="619" on="1"/>
        <pt x="-7" y="623" on="0"/>
        <pt x="12" y="645" on="0"/>
        <pt x="19" y="651" on="0"/>
        <pt x="33" y="663" on="0"/>
        <pt x="45" y="667" on="0"/>
        <pt x="53" y="667" on="1"/>
        <pt x="78" y="667" on="0"/>
        <pt x="101" y="633" on="1"/>
        <pt x="161" y="546" on="0"/>
        <pt x="261" y="361" on="1"/>
        <pt x="309" y="424" on="0"/>
        <pt x="418" y="635" on="0"/>
        <pt x="420" y="672" on="1"/>
        <pt x="496" y="667" on="0"/>
      </contour>
      <contour>
        <pt x="338" y="712" on="1"/>
        <pt x="317" y="712" on="0"/>
        <pt x="287" y="742" on="0"/>
        <pt x="287" y="766" on="1"/>
        <pt x="287" y="788" on="0"/>
        <pt x="319" y="819" on="0"/>
        <pt x="340" y="819" on="1"/>
        <pt x="360" y="819" on="0"/>
        <pt x="390" y="788" on="0"/>
        <pt x="390" y="766" on="1"/>
        <pt x="390" y="743" on="0"/>
        <pt x="358" y="712" on="0"/>
      </contour>
      <contour>
        <pt x="160" y="712" on="1"/>
        <pt x="139" y="712" on="0"/>
        <pt x="109" y="742" on="0"/>
        <pt x="109" y="766" on="1"/>
        <pt x="109" y="788" on="0"/>
        <pt x="141" y="819" on="0"/>
        <pt x="162" y="819" on="1"/>
        <pt x="182" y="819" on="0"/>
        <pt x="212" y="788" on="0"/>
        <pt x="212" y="766" on="1"/>
        <pt x="212" y="743" on="0"/>
        <pt x="180" y="712" on="0"/>
      </contour>
    </TTGlyph>
    <TTGlyph name="Z" xMin="26" yMin="-6" xMax="515" yMax="667">
      <contour>
        <pt x="499" y="648" on="1"/>
        <pt x="515" y="630" on="0"/>
        <pt x="515" y="608" on="1"/>
        <pt x="515" y="584" on="0"/>
        <pt x="498" y="562" on="1"/>
        <pt x="94" y="57" on="1"/>
        <pt x="130" y="53" on="0"/>
        <pt x="175" y="53" on="1"/>
        <pt x="369" y="53" on="0"/>
        <pt x="491" y="85" on="1"/>
        <pt x="501" y="59" on="0"/>
        <pt x="501" y="43" on="1"/>
        <pt x="501" y="20" on="0"/>
        <pt x="467" y="4" on="0"/>
        <pt x="429" y="0" on="1"/>
        <pt x="369" y="-6" on="0"/>
        <pt x="273" y="-6" on="1"/>
        <pt x="134" y="-6" on="0"/>
        <pt x="44" y="6" on="1"/>
        <pt x="26" y="30" on="0"/>
        <pt x="26" y="56" on="1"/>
        <pt x="26" y="88" on="0"/>
        <pt x="51" y="119" on="1"/>
        <pt x="428" y="600" on="1"/>
        <pt x="381" y="606" on="0"/>
        <pt x="306" y="606" on="1"/>
        <pt x="165" y="606" on="0"/>
        <pt x="56" y="579" on="1"/>
        <pt x="46" y="603" on="0"/>
        <pt x="46" y="621" on="1"/>
        <pt x="46" y="649" on="0"/>
        <pt x="75" y="657" on="1"/>
        <pt x="117" y="667" on="0"/>
        <pt x="202" y="667" on="1"/>
        <pt x="386" y="667" on="0"/>
      </contour>
    </TTGlyph>
    <TTGlyph name="Zcaron" xMin="26" yMin="-6" xMax="515" yMax="876">
      <contour>
        <pt x="297" y="716" on="1"/>
        <pt x="250" y="746" on="0"/>
        <pt x="167" y="821" on="0"/>
        <pt x="167" y="848" on="1"/>
        <pt x="167" y="866" on="0"/>
        <pt x="190" y="876" on="1"/>
        <pt x="209" y="852" on="0"/>
        <pt x="263" y="808" on="0"/>
        <pt x="281" y="798" on="1"/>
        <pt x="299" y="787" on="1"/>
        <pt x="305" y="792" on="0"/>
        <pt x="330" y="813" on="0"/>
        <pt x="345" y="825" on="0"/>
        <pt x="367" y="842" on="0"/>
        <pt x="382" y="853" on="0"/>
        <pt x="397" y="863" on="0"/>
        <pt x="409" y="868" on="0"/>
        <pt x="413" y="868" on="1"/>
        <pt x="425" y="868" on="0"/>
        <pt x="438" y="850" on="1"/>
        <pt x="374" y="773" on="0"/>
      </contour>
      <contour>
        <pt x="499" y="648" on="1"/>
        <pt x="515" y="630" on="0"/>
        <pt x="515" y="608" on="1"/>
        <pt x="515" y="584" on="0"/>
        <pt x="498" y="562" on="1"/>
        <pt x="94" y="57" on="1"/>
        <pt x="130" y="53" on="0"/>
        <pt x="175" y="53" on="1"/>
        <pt x="369" y="53" on="0"/>
        <pt x="491" y="85" on="1"/>
        <pt x="501" y="59" on="0"/>
        <pt x="501" y="43" on="1"/>
        <pt x="501" y="20" on="0"/>
        <pt x="467" y="4" on="0"/>
        <pt x="429" y="0" on="1"/>
        <pt x="369" y="-6" on="0"/>
        <pt x="273" y="-6" on="1"/>
        <pt x="134" y="-6" on="0"/>
        <pt x="44" y="6" on="1"/>
        <pt x="26" y="30" on="0"/>
        <pt x="26" y="56" on="1"/>
        <pt x="26" y="88" on="0"/>
        <pt x="51" y="119" on="1"/>
        <pt x="428" y="600" on="1"/>
        <pt x="381" y="606" on="0"/>
        <pt x="306" y="606" on="1"/>
        <pt x="165" y="606" on="0"/>
        <pt x="56" y="579" on="1"/>
        <pt x="46" y="603" on="0"/>
        <pt x="46" y="621" on="1"/>
        <pt x="46" y="649" on="0"/>
        <pt x="75" y="657" on="1"/>
        <pt x="117" y="667" on="0"/>
        <pt x="202" y="667" on="1"/>
        <pt x="386" y="667" on="0"/>
      </contour>
    </TTGlyph>
    <TTGlyph name="a" xMin="6" yMin="-16" xMax="476" yMax="517">
      <contour>
        <pt x="311" y="211" on="1"/>
        <pt x="292" y="256" on="0"/>
        <pt x="230" y="424" on="1"/>
        <pt x="180" y="280" on="0"/>
        <pt x="151" y="212" on="1"/>
        <pt x="211" y="210" on="0"/>
        <pt x="243" y="210" on="1"/>
        <pt x="290" y="210" on="0"/>
      </contour>
      <contour>
        <pt x="227" y="157" on="1"/>
        <pt x="206" y="157" on="0"/>
        <pt x="130" y="159" on="1"/>
        <pt x="125" y="147" on="0"/>
        <pt x="92" y="65" on="0"/>
        <pt x="72" y="10" on="0"/>
        <pt x="65" y="-16" on="1"/>
        <pt x="6" y="-8" on="0"/>
        <pt x="6" y="15" on="1"/>
        <pt x="6" y="25" on="0"/>
        <pt x="25" y="71" on="0"/>
        <pt x="72" y="178" on="0"/>
        <pt x="93" y="232" on="1"/>
        <pt x="171" y="433" on="0"/>
        <pt x="195" y="514" on="1"/>
        <pt x="211" y="517" on="0"/>
        <pt x="232" y="517" on="1"/>
        <pt x="254" y="517" on="0"/>
        <pt x="272" y="504" on="0"/>
        <pt x="283" y="475" on="1"/>
        <pt x="291" y="454" on="0"/>
        <pt x="362" y="263" on="0"/>
        <pt x="382" y="212" on="1"/>
        <pt x="430" y="94" on="0"/>
        <pt x="476" y="7" on="1"/>
        <pt x="448" y="-7" on="0"/>
        <pt x="431" y="-7" on="1"/>
        <pt x="401" y="-7" on="0"/>
        <pt x="390" y="13" on="1"/>
        <pt x="384" y="27" on="0"/>
        <pt x="331" y="159" on="1"/>
        <pt x="245" y="157" on="0"/>
      </contour>
    </TTGlyph>
    <TTGlyph name="aacute" xMin="6" yMin="-16" xMax="476" yMax="747">
      <contour>
        <pt x="345" y="664" on="1"/>
        <pt x="323" y="648" on="0"/>
        <pt x="208" y="581" on="0"/>
        <pt x="195" y="569" on="1"/>
        <pt x="179" y="583" on="0"/>
        <pt x="179" y="598" on="1"/>
        <pt x="179" y="615" on="0"/>
        <pt x="211" y="640" on="0"/>
        <pt x="294" y="702" on="0"/>
        <pt x="335" y="747" on="1"/>
        <pt x="370" y="727" on="0"/>
        <pt x="370" y="701" on="1"/>
        <pt x="370" y="681" on="0"/>
      </contour>
      <contour>
        <pt x="311" y="211" on="1"/>
        <pt x="292" y="256" on="0"/>
        <pt x="230" y="424" on="1"/>
        <pt x="180" y="280" on="0"/>
        <pt x="151" y="212" on="1"/>
        <pt x="211" y="210" on="0"/>
        <pt x="243" y="210" on="1"/>
        <pt x="290" y="210" on="0"/>
      </contour>
      <contour>
        <pt x="227" y="157" on="1"/>
        <pt x="206" y="157" on="0"/>
        <pt x="130" y="159" on="1"/>
        <pt x="125" y="147" on="0"/>
        <pt x="92" y="65" on="0"/>
        <pt x="72" y="10" on="0"/>
        <pt x="65" y="-16" on="1"/>
        <pt x="6" y="-8" on="0"/>
        <pt x="6" y="15" on="1"/>
        <pt x="6" y="25" on="0"/>
        <pt x="25" y="71" on="0"/>
        <pt x="72" y="178" on="0"/>
        <pt x="93" y="232" on="1"/>
        <pt x="171" y="433" on="0"/>
        <pt x="195" y="514" on="1"/>
        <pt x="211" y="517" on="0"/>
        <pt x="232" y="517" on="1"/>
        <pt x="254" y="517" on="0"/>
        <pt x="272" y="504" on="0"/>
        <pt x="283" y="475" on="1"/>
        <pt x="291" y="454" on="0"/>
        <pt x="362" y="263" on="0"/>
        <pt x="382" y="212" on="1"/>
        <pt x="430" y="94" on="0"/>
        <pt x="476" y="7" on="1"/>
        <pt x="448" y="-7" on="0"/>
        <pt x="431" y="-7" on="1"/>
        <pt x="401" y="-7" on="0"/>
        <pt x="390" y="13" on="1"/>
        <pt x="384" y="27" on="0"/>
        <pt x="331" y="159" on="1"/>
        <pt x="245" y="157" on="0"/>
      </contour>
    </TTGlyph>
    <TTGlyph name="acircumflex" xMin="6" yMin="-16" xMax="476" yMax="724">
      <contour>
        <pt x="235" y="724" on="1"/>
        <pt x="282" y="694" on="0"/>
        <pt x="365" y="619" on="0"/>
        <pt x="365" y="592" on="1"/>
        <pt x="365" y="574" on="0"/>
        <pt x="342" y="564" on="1"/>
        <pt x="323" y="588" on="0"/>
        <pt x="269" y="632" on="0"/>
        <pt x="251" y="642" on="1"/>
        <pt x="233" y="653" on="1"/>
        <pt x="227" y="648" on="0"/>
        <pt x="202" y="627" on="0"/>
        <pt x="187" y="615" on="0"/>
        <pt x="165" y="598" on="0"/>
        <pt x="150" y="587" on="0"/>
        <pt x="135" y="577" on="0"/>
        <pt x="123" y="572" on="0"/>
        <pt x="119" y="572" on="1"/>
        <pt x="107" y="572" on="0"/>
        <pt x="94" y="590" on="1"/>
        <pt x="158" y="667" on="0"/>
      </contour>
      <contour>
        <pt x="311" y="211" on="1"/>
        <pt x="292" y="256" on="0"/>
        <pt x="230" y="424" on="1"/>
        <pt x="180" y="280" on="0"/>
        <pt x="151" y="212" on="1"/>
        <pt x="211" y="210" on="0"/>
        <pt x="243" y="210" on="1"/>
        <pt x="290" y="210" on="0"/>
      </contour>
      <contour>
        <pt x="227" y="157" on="1"/>
        <pt x="206" y="157" on="0"/>
        <pt x="130" y="159" on="1"/>
        <pt x="125" y="147" on="0"/>
        <pt x="92" y="65" on="0"/>
        <pt x="72" y="10" on="0"/>
        <pt x="65" y="-16" on="1"/>
        <pt x="6" y="-8" on="0"/>
        <pt x="6" y="15" on="1"/>
        <pt x="6" y="25" on="0"/>
        <pt x="25" y="71" on="0"/>
        <pt x="72" y="178" on="0"/>
        <pt x="93" y="232" on="1"/>
        <pt x="171" y="433" on="0"/>
        <pt x="195" y="514" on="1"/>
        <pt x="211" y="517" on="0"/>
        <pt x="232" y="517" on="1"/>
        <pt x="254" y="517" on="0"/>
        <pt x="272" y="504" on="0"/>
        <pt x="283" y="475" on="1"/>
        <pt x="291" y="454" on="0"/>
        <pt x="362" y="263" on="0"/>
        <pt x="382" y="212" on="1"/>
        <pt x="430" y="94" on="0"/>
        <pt x="476" y="7" on="1"/>
        <pt x="448" y="-7" on="0"/>
        <pt x="431" y="-7" on="1"/>
        <pt x="401" y="-7" on="0"/>
        <pt x="390" y="13" on="1"/>
        <pt x="384" y="27" on="0"/>
        <pt x="331" y="159" on="1"/>
        <pt x="245" y="157" on="0"/>
      </contour>
    </TTGlyph>
    <TTGlyph name="acute" xMin="60" yMin="524" xMax="251" yMax="702">
      <contour>
        <pt x="226" y="619" on="1"/>
        <pt x="204" y="603" on="0"/>
        <pt x="89" y="536" on="0"/>
        <pt x="76" y="524" on="1"/>
        <pt x="60" y="538" on="0"/>
        <pt x="60" y="553" on="1"/>
        <pt x="60" y="570" on="0"/>
        <pt x="92" y="595" on="0"/>
        <pt x="175" y="657" on="0"/>
        <pt x="216" y="702" on="1"/>
        <pt x="251" y="682" on="0"/>
        <pt x="251" y="656" on="1"/>
        <pt x="251" y="636" on="0"/>
      </contour>
    </TTGlyph>
    <TTGlyph name="adieresis" xMin="6" yMin="-16" xMax="476" yMax="669">
      <contour>
        <pt x="311" y="211" on="1"/>
        <pt x="292" y="256" on="0"/>
        <pt x="230" y="424" on="1"/>
        <pt x="180" y="280" on="0"/>
        <pt x="151" y="212" on="1"/>
        <pt x="211" y="210" on="0"/>
        <pt x="243" y="210" on="1"/>
        <pt x="290" y="210" on="0"/>
      </contour>
      <contour>
        <pt x="227" y="157" on="1"/>
        <pt x="206" y="157" on="0"/>
        <pt x="130" y="159" on="1"/>
        <pt x="125" y="147" on="0"/>
        <pt x="92" y="65" on="0"/>
        <pt x="72" y="10" on="0"/>
        <pt x="65" y="-16" on="1"/>
        <pt x="6" y="-8" on="0"/>
        <pt x="6" y="15" on="1"/>
        <pt x="6" y="25" on="0"/>
        <pt x="25" y="71" on="0"/>
        <pt x="72" y="178" on="0"/>
        <pt x="93" y="232" on="1"/>
        <pt x="171" y="433" on="0"/>
        <pt x="195" y="514" on="1"/>
        <pt x="211" y="517" on="0"/>
        <pt x="232" y="517" on="1"/>
        <pt x="254" y="517" on="0"/>
        <pt x="272" y="504" on="0"/>
        <pt x="283" y="475" on="1"/>
        <pt x="291" y="454" on="0"/>
        <pt x="362" y="263" on="0"/>
        <pt x="382" y="212" on="1"/>
        <pt x="430" y="94" on="0"/>
        <pt x="476" y="7" on="1"/>
        <pt x="448" y="-7" on="0"/>
        <pt x="431" y="-7" on="1"/>
        <pt x="401" y="-7" on="0"/>
        <pt x="390" y="13" on="1"/>
        <pt x="384" y="27" on="0"/>
        <pt x="331" y="159" on="1"/>
        <pt x="245" y="157" on="0"/>
      </contour>
      <contour>
        <pt x="319" y="562" on="1"/>
        <pt x="298" y="562" on="0"/>
        <pt x="268" y="592" on="0"/>
        <pt x="268" y="616" on="1"/>
        <pt x="268" y="638" on="0"/>
        <pt x="300" y="669" on="0"/>
        <pt x="321" y="669" on="1"/>
        <pt x="341" y="669" on="0"/>
        <pt x="371" y="638" on="0"/>
        <pt x="371" y="616" on="1"/>
        <pt x="371" y="593" on="0"/>
        <pt x="339" y="562" on="0"/>
      </contour>
      <contour>
        <pt x="141" y="562" on="1"/>
        <pt x="120" y="562" on="0"/>
        <pt x="90" y="592" on="0"/>
        <pt x="90" y="616" on="1"/>
        <pt x="90" y="638" on="0"/>
        <pt x="122" y="669" on="0"/>
        <pt x="143" y="669" on="1"/>
        <pt x="163" y="669" on="0"/>
        <pt x="193" y="638" on="0"/>
        <pt x="193" y="616" on="1"/>
        <pt x="193" y="593" on="0"/>
        <pt x="161" y="562" on="0"/>
      </contour>
    </TTGlyph>
    <TTGlyph name="ae" xMin="0" yMin="-16" xMax="612" yMax="519">
      <contour>
        <pt x="296" y="157" on="1"/>
        <pt x="245" y="157" on="1"/>
        <pt x="224" y="157" on="0"/>
        <pt x="148" y="159" on="1"/>
        <pt x="67" y="15" on="0"/>
        <pt x="53" y="-16" on="1"/>
        <pt x="0" y="-6" on="0"/>
        <pt x="0" y="23" on="1"/>
        <pt x="0" y="34" on="0"/>
        <pt x="55" y="123" on="0"/>
        <pt x="193" y="361" on="0"/>
        <pt x="266" y="509" on="1"/>
        <pt x="307" y="519" on="0"/>
        <pt x="467" y="519" on="1"/>
        <pt x="588" y="519" on="0"/>
        <pt x="603" y="507" on="1"/>
        <pt x="611" y="500" on="0"/>
        <pt x="611" y="484" on="1"/>
        <pt x="611" y="464" on="0"/>
        <pt x="604" y="446" on="1"/>
        <pt x="556" y="462" on="0"/>
        <pt x="454" y="462" on="1"/>
        <pt x="415" y="462" on="0"/>
        <pt x="365" y="460" on="1"/>
        <pt x="368" y="436" on="0"/>
        <pt x="368" y="305" on="1"/>
        <pt x="432" y="305" on="1"/>
        <pt x="499" y="305" on="0"/>
        <pt x="528" y="308" on="1"/>
        <pt x="531" y="301" on="0"/>
        <pt x="531" y="286" on="1"/>
        <pt x="531" y="266" on="0"/>
        <pt x="514" y="251" on="0"/>
        <pt x="496" y="250" on="1"/>
        <pt x="475" y="249" on="0"/>
        <pt x="439" y="249" on="1"/>
        <pt x="368" y="249" on="1"/>
        <pt x="368" y="88" on="0"/>
        <pt x="374" y="55" on="1"/>
        <pt x="410" y="53" on="0"/>
        <pt x="432" y="53" on="1"/>
        <pt x="564" y="53" on="0"/>
        <pt x="605" y="71" on="1"/>
        <pt x="612" y="53" on="0"/>
        <pt x="612" y="33" on="1"/>
        <pt x="612" y="17" on="0"/>
        <pt x="604" y="10" on="1"/>
        <pt x="589" y="-1" on="0"/>
        <pt x="468" y="-1" on="1"/>
        <pt x="445" y="-1" on="0"/>
        <pt x="338" y="0" on="0"/>
        <pt x="336" y="0" on="1"/>
        <pt x="311" y="1" on="0"/>
        <pt x="294" y="21" on="0"/>
        <pt x="294" y="44" on="1"/>
        <pt x="294" y="71" on="0"/>
      </contour>
      <contour>
        <pt x="296" y="210" on="1"/>
        <pt x="296" y="333" on="1"/>
        <pt x="296" y="364" on="0"/>
        <pt x="294" y="422" on="1"/>
        <pt x="213" y="269" on="0"/>
        <pt x="179" y="212" on="1"/>
        <pt x="239" y="210" on="0"/>
        <pt x="270" y="210" on="1"/>
      </contour>
    </TTGlyph>
    <TTGlyph name="agrave" xMin="6" yMin="-16" xMax="476" yMax="747">
      <contour>
        <pt x="128" y="747" on="1"/>
        <pt x="165" y="706" on="0"/>
        <pt x="247" y="643" on="0"/>
        <pt x="283" y="614" on="0"/>
        <pt x="283" y="584" on="0"/>
        <pt x="267" y="570" on="1"/>
        <pt x="239" y="591" on="0"/>
        <pt x="142" y="645" on="0"/>
        <pt x="93" y="681" on="0"/>
        <pt x="93" y="701" on="1"/>
        <pt x="93" y="727" on="0"/>
      </contour>
      <contour>
        <pt x="311" y="211" on="1"/>
        <pt x="292" y="256" on="0"/>
        <pt x="230" y="424" on="1"/>
        <pt x="180" y="280" on="0"/>
        <pt x="151" y="212" on="1"/>
        <pt x="211" y="210" on="0"/>
        <pt x="243" y="210" on="1"/>
        <pt x="290" y="210" on="0"/>
      </contour>
      <contour>
        <pt x="227" y="157" on="1"/>
        <pt x="206" y="157" on="0"/>
        <pt x="130" y="159" on="1"/>
        <pt x="125" y="147" on="0"/>
        <pt x="92" y="65" on="0"/>
        <pt x="72" y="10" on="0"/>
        <pt x="65" y="-16" on="1"/>
        <pt x="6" y="-8" on="0"/>
        <pt x="6" y="15" on="1"/>
        <pt x="6" y="25" on="0"/>
        <pt x="25" y="71" on="0"/>
        <pt x="72" y="178" on="0"/>
        <pt x="93" y="232" on="1"/>
        <pt x="171" y="433" on="0"/>
        <pt x="195" y="514" on="1"/>
        <pt x="211" y="517" on="0"/>
        <pt x="232" y="517" on="1"/>
        <pt x="254" y="517" on="0"/>
        <pt x="272" y="504" on="0"/>
        <pt x="283" y="475" on="1"/>
        <pt x="291" y="454" on="0"/>
        <pt x="362" y="263" on="0"/>
        <pt x="382" y="212" on="1"/>
        <pt x="430" y="94" on="0"/>
        <pt x="476" y="7" on="1"/>
        <pt x="448" y="-7" on="0"/>
        <pt x="431" y="-7" on="1"/>
        <pt x="401" y="-7" on="0"/>
        <pt x="390" y="13" on="1"/>
        <pt x="384" y="27" on="0"/>
        <pt x="331" y="159" on="1"/>
        <pt x="245" y="157" on="0"/>
      </contour>
    </TTGlyph>
    <TTGlyph name="ampersand" xMin="51" yMin="-7" xMax="476" yMax="527">
      <contour>
        <pt x="153" y="408" on="1"/>
        <pt x="153" y="379" on="0"/>
        <pt x="195" y="307" on="1"/>
        <pt x="232" y="335" on="0"/>
        <pt x="265" y="382" on="0"/>
        <pt x="265" y="415" on="1"/>
        <pt x="265" y="439" on="0"/>
        <pt x="239" y="472" on="0"/>
        <pt x="212" y="472" on="1"/>
        <pt x="153" y="472" on="0"/>
      </contour>
      <contour>
        <pt x="232" y="51" on="1"/>
        <pt x="267" y="51" on="0"/>
        <pt x="297" y="67" on="1"/>
        <pt x="224" y="137" on="0"/>
        <pt x="164" y="220" on="1"/>
        <pt x="130" y="189" on="0"/>
        <pt x="130" y="147" on="1"/>
        <pt x="130" y="103" on="0"/>
        <pt x="187" y="51" on="0"/>
      </contour>
      <contour>
        <pt x="378" y="242" on="1"/>
        <pt x="420" y="242" on="0"/>
        <pt x="420" y="190" on="1"/>
        <pt x="420" y="130" on="0"/>
        <pt x="394" y="86" on="1"/>
        <pt x="436" y="59" on="0"/>
        <pt x="474" y="58" on="1"/>
        <pt x="476" y="48" on="0"/>
        <pt x="476" y="35" on="1"/>
        <pt x="476" y="17" on="0"/>
        <pt x="453" y="-7" on="0"/>
        <pt x="429" y="-7" on="1"/>
        <pt x="388" y="-7" on="0"/>
        <pt x="342" y="28" on="1"/>
        <pt x="291" y="-7" on="0"/>
        <pt x="224" y="-7" on="1"/>
        <pt x="155" y="-7" on="0"/>
        <pt x="51" y="70" on="0"/>
        <pt x="51" y="140" on="1"/>
        <pt x="51" y="183" on="0"/>
        <pt x="92" y="238" on="0"/>
        <pt x="133" y="266" on="1"/>
        <pt x="110" y="306" on="0"/>
        <pt x="100" y="325" on="1"/>
        <pt x="78" y="372" on="0"/>
        <pt x="78" y="402" on="1"/>
        <pt x="78" y="459" on="0"/>
        <pt x="158" y="527" on="0"/>
        <pt x="219" y="527" on="1"/>
        <pt x="276" y="527" on="0"/>
        <pt x="340" y="465" on="0"/>
        <pt x="340" y="423" on="1"/>
        <pt x="340" y="392" on="0"/>
        <pt x="322" y="342" on="0"/>
        <pt x="282" y="302" on="0"/>
        <pt x="251" y="279" on="0"/>
        <pt x="223" y="261" on="1"/>
        <pt x="282" y="179" on="0"/>
        <pt x="342" y="124" on="1"/>
        <pt x="348" y="141" on="0"/>
        <pt x="348" y="164" on="1"/>
        <pt x="348" y="198" on="0"/>
        <pt x="336" y="229" on="1"/>
        <pt x="364" y="242" on="0"/>
      </contour>
    </TTGlyph>
    <TTGlyph name="apple" xMin="80" yMin="-1" xMax="736" yMax="688">
      <contour>
        <pt x="713" y="162" on="1"/>
        <pt x="721" y="132" on="0"/>
        <pt x="724" y="117" on="1"/>
        <pt x="736" y="62" on="0"/>
        <pt x="736" y="6" on="1"/>
        <pt x="736" y="-1" on="0"/>
        <pt x="729" y="-1" on="1"/>
        <pt x="703" y="-1" on="1"/>
        <pt x="697" y="-1" on="0"/>
        <pt x="697" y="5" on="1"/>
        <pt x="697" y="12" on="0"/>
        <pt x="704" y="12" on="1"/>
        <pt x="723" y="12" on="1"/>
        <pt x="723" y="59" on="0"/>
        <pt x="705" y="137" on="1"/>
        <pt x="700" y="159" on="1"/>
        <pt x="696" y="179" on="0"/>
        <pt x="660" y="211" on="0"/>
        <pt x="631" y="214" on="1"/>
        <pt x="588" y="218" on="0"/>
        <pt x="533" y="236" on="1"/>
        <pt x="519" y="241" on="0"/>
        <pt x="518" y="243" on="1"/>
        <pt x="517" y="249" on="0"/>
        <pt x="514" y="289" on="0"/>
        <pt x="513" y="296" on="1"/>
        <pt x="486" y="296" on="0"/>
        <pt x="460" y="309" on="1"/>
        <pt x="457" y="310" on="0"/>
        <pt x="457" y="322" on="0"/>
        <pt x="464" y="322" on="1"/>
        <pt x="465" y="322" on="0"/>
        <pt x="498" y="309" on="0"/>
        <pt x="522" y="309" on="1"/>
        <pt x="542" y="309" on="0"/>
        <pt x="549" y="316" on="1"/>
        <pt x="553" y="321" on="0"/>
        <pt x="570" y="430" on="0"/>
        <pt x="577" y="445" on="1"/>
        <pt x="581" y="458" on="0"/>
        <pt x="581" y="510" on="1"/>
        <pt x="581" y="556" on="0"/>
        <pt x="577" y="576" on="1"/>
        <pt x="559" y="673" on="0"/>
        <pt x="447" y="673" on="1"/>
        <pt x="363" y="673" on="0"/>
        <pt x="269" y="588" on="0"/>
        <pt x="269" y="512" on="1"/>
        <pt x="269" y="447" on="0"/>
        <pt x="314" y="358" on="0"/>
        <pt x="353" y="348" on="1"/>
        <pt x="359" y="346" on="0"/>
        <pt x="359" y="334" on="0"/>
        <pt x="353" y="241" on="0"/>
        <pt x="352" y="239" on="1"/>
        <pt x="350" y="237" on="0"/>
        <pt x="348" y="237" on="1"/>
        <pt x="322" y="237" on="0"/>
        <pt x="261" y="214" on="1"/>
        <pt x="208" y="193" on="0"/>
        <pt x="186" y="190" on="1"/>
        <pt x="130" y="182" on="0"/>
        <pt x="118" y="136" on="1"/>
        <pt x="111" y="107" on="1"/>
        <pt x="97" y="47" on="0"/>
        <pt x="94" y="12" on="1"/>
        <pt x="236" y="12" on="1"/>
        <pt x="243" y="12" on="0"/>
        <pt x="243" y="6" on="1"/>
        <pt x="243" y="-1" on="0"/>
        <pt x="236" y="-1" on="1"/>
        <pt x="87" y="-1" on="1"/>
        <pt x="80" y="-1" on="0"/>
        <pt x="80" y="6" on="1"/>
        <pt x="83" y="48" on="0"/>
        <pt x="98" y="108" on="1"/>
        <pt x="106" y="138" on="1"/>
        <pt x="110" y="162" on="0"/>
        <pt x="153" y="201" on="0"/>
        <pt x="185" y="205" on="1"/>
        <pt x="207" y="208" on="0"/>
        <pt x="266" y="230" on="1"/>
        <pt x="318" y="249" on="0"/>
        <pt x="341" y="250" on="1"/>
        <pt x="345" y="306" on="0"/>
        <pt x="346" y="336" on="1"/>
        <pt x="303" y="350" on="0"/>
        <pt x="256" y="443" on="0"/>
        <pt x="256" y="512" on="1"/>
        <pt x="256" y="595" on="0"/>
        <pt x="356" y="688" on="0"/>
        <pt x="447" y="688" on="1"/>
        <pt x="568" y="688" on="0"/>
        <pt x="592" y="579" on="1"/>
        <pt x="595" y="561" on="0"/>
        <pt x="595" y="527" on="1"/>
        <pt x="595" y="467" on="0"/>
        <pt x="590" y="440" on="1"/>
        <pt x="577" y="408" on="0"/>
        <pt x="572" y="358" on="1"/>
        <pt x="567" y="319" on="0"/>
        <pt x="556" y="306" on="1"/>
        <pt x="548" y="297" on="0"/>
        <pt x="526" y="295" on="1"/>
        <pt x="527" y="286" on="0"/>
        <pt x="530" y="253" on="0"/>
        <pt x="530" y="250" on="1"/>
        <pt x="591" y="232" on="0"/>
        <pt x="634" y="227" on="1"/>
        <pt x="665" y="224" on="0"/>
        <pt x="707" y="185" on="0"/>
      </contour>
      <contour>
        <pt x="507" y="563" on="1"/>
        <pt x="512" y="558" on="1"/>
        <pt x="494" y="530" on="1"/>
        <pt x="481" y="541" on="1"/>
      </contour>
      <contour>
        <pt x="515" y="558" on="1"/>
        <pt x="520" y="563" on="1"/>
        <pt x="546" y="541" on="1"/>
        <pt x="533" y="530" on="1"/>
      </contour>
      <contour>
        <pt x="517" y="574" on="1"/>
        <pt x="510" y="574" on="1"/>
        <pt x="505" y="605" on="1"/>
        <pt x="522" y="605" on="1"/>
      </contour>
      <contour>
        <pt x="509" y="572" on="1"/>
        <pt x="506" y="565" on="1"/>
        <pt x="475" y="572" on="1"/>
        <pt x="481" y="587" on="1"/>
      </contour>
      <contour>
        <pt x="520" y="565" on="1"/>
        <pt x="518" y="572" on="1"/>
        <pt x="546" y="587" on="1"/>
        <pt x="552" y="572" on="1"/>
      </contour>
    </TTGlyph>
    <TTGlyph name="approxequal" xMin="19" yMin="74" xMax="515" yMax="414">
      <contour>
        <pt x="515" y="166" on="1"/>
        <pt x="515" y="137" on="0"/>
        <pt x="444" y="74" on="0"/>
        <pt x="394" y="74" on="1"/>
        <pt x="348" y="74" on="0"/>
        <pt x="254" y="113" on="0"/>
        <pt x="175" y="152" on="0"/>
        <pt x="148" y="152" on="1"/>
        <pt x="122" y="152" on="0"/>
        <pt x="81" y="130" on="0"/>
        <pt x="63" y="108" on="0"/>
        <pt x="51" y="89" on="1"/>
        <pt x="19" y="98" on="0"/>
        <pt x="19" y="122" on="1"/>
        <pt x="19" y="151" on="0"/>
        <pt x="90" y="214" on="0"/>
        <pt x="140" y="214" on="1"/>
        <pt x="197" y="214" on="0"/>
        <pt x="353" y="136" on="0"/>
        <pt x="386" y="136" on="1"/>
        <pt x="412" y="136" on="0"/>
        <pt x="453" y="158" on="0"/>
        <pt x="471" y="180" on="0"/>
        <pt x="483" y="199" on="1"/>
        <pt x="515" y="190" on="0"/>
      </contour>
      <contour>
        <pt x="515" y="366" on="1"/>
        <pt x="515" y="337" on="0"/>
        <pt x="444" y="274" on="0"/>
        <pt x="394" y="274" on="1"/>
        <pt x="348" y="274" on="0"/>
        <pt x="254" y="313" on="0"/>
        <pt x="175" y="352" on="0"/>
        <pt x="148" y="352" on="1"/>
        <pt x="122" y="352" on="0"/>
        <pt x="81" y="330" on="0"/>
        <pt x="63" y="308" on="0"/>
        <pt x="51" y="289" on="1"/>
        <pt x="19" y="298" on="0"/>
        <pt x="19" y="322" on="1"/>
        <pt x="19" y="351" on="0"/>
        <pt x="90" y="414" on="0"/>
        <pt x="140" y="414" on="1"/>
        <pt x="197" y="414" on="0"/>
        <pt x="353" y="336" on="0"/>
        <pt x="386" y="336" on="1"/>
        <pt x="412" y="336" on="0"/>
        <pt x="453" y="358" on="0"/>
        <pt x="471" y="380" on="0"/>
        <pt x="483" y="399" on="1"/>
        <pt x="515" y="390" on="0"/>
      </contour>
    </TTGlyph>
    <TTGlyph name="aring" xMin="6" yMin="-16" xMax="476" yMax="743">
      <contour>
        <pt x="230" y="565" on="1"/>
        <pt x="190" y="565" on="0"/>
        <pt x="141" y="614" on="0"/>
        <pt x="141" y="694" on="0"/>
        <pt x="190" y="743" on="0"/>
        <pt x="230" y="743" on="1"/>
        <pt x="269" y="743" on="0"/>
        <pt x="317" y="694" on="0"/>
        <pt x="317" y="614" on="0"/>
        <pt x="269" y="565" on="0"/>
      </contour>
      <contour>
        <pt x="275" y="649" on="1"/>
        <pt x="275" y="676" on="0"/>
        <pt x="251" y="710" on="0"/>
        <pt x="230" y="710" on="1"/>
        <pt x="208" y="710" on="0"/>
        <pt x="183" y="682" on="0"/>
        <pt x="183" y="658" on="1"/>
        <pt x="183" y="632" on="0"/>
        <pt x="208" y="598" on="0"/>
        <pt x="230" y="598" on="1"/>
        <pt x="251" y="598" on="0"/>
        <pt x="275" y="625" on="0"/>
      </contour>
      <contour>
        <pt x="311" y="211" on="1"/>
        <pt x="292" y="256" on="0"/>
        <pt x="230" y="424" on="1"/>
        <pt x="180" y="280" on="0"/>
        <pt x="151" y="212" on="1"/>
        <pt x="211" y="210" on="0"/>
        <pt x="243" y="210" on="1"/>
        <pt x="290" y="210" on="0"/>
      </contour>
      <contour>
        <pt x="227" y="157" on="1"/>
        <pt x="206" y="157" on="0"/>
        <pt x="130" y="159" on="1"/>
        <pt x="125" y="147" on="0"/>
        <pt x="92" y="65" on="0"/>
        <pt x="72" y="10" on="0"/>
        <pt x="65" y="-16" on="1"/>
        <pt x="6" y="-8" on="0"/>
        <pt x="6" y="15" on="1"/>
        <pt x="6" y="25" on="0"/>
        <pt x="25" y="71" on="0"/>
        <pt x="72" y="178" on="0"/>
        <pt x="93" y="232" on="1"/>
        <pt x="171" y="433" on="0"/>
        <pt x="195" y="514" on="1"/>
        <pt x="211" y="517" on="0"/>
        <pt x="232" y="517" on="1"/>
        <pt x="254" y="517" on="0"/>
        <pt x="272" y="504" on="0"/>
        <pt x="283" y="475" on="1"/>
        <pt x="291" y="454" on="0"/>
        <pt x="362" y="263" on="0"/>
        <pt x="382" y="212" on="1"/>
        <pt x="430" y="94" on="0"/>
        <pt x="476" y="7" on="1"/>
        <pt x="448" y="-7" on="0"/>
        <pt x="431" y="-7" on="1"/>
        <pt x="401" y="-7" on="0"/>
        <pt x="390" y="13" on="1"/>
        <pt x="384" y="27" on="0"/>
        <pt x="331" y="159" on="1"/>
        <pt x="245" y="157" on="0"/>
      </contour>
    </TTGlyph>
    <TTGlyph name="asciicircum" xMin="25" yMin="417" xMax="445" yMax="675">
      <contour>
        <pt x="236" y="582" on="1"/>
        <pt x="82" y="417" on="0"/>
        <pt x="52" y="417" on="1"/>
        <pt x="41" y="417" on="0"/>
        <pt x="25" y="433" on="1"/>
        <pt x="48" y="472" on="0"/>
        <pt x="191" y="632" on="0"/>
        <pt x="235" y="675" on="1"/>
        <pt x="279" y="632" on="0"/>
        <pt x="422" y="472" on="0"/>
        <pt x="445" y="433" on="1"/>
        <pt x="429" y="417" on="0"/>
        <pt x="419" y="417" on="1"/>
        <pt x="413" y="417" on="0"/>
        <pt x="391" y="430" on="0"/>
        <pt x="362" y="455" on="0"/>
        <pt x="334" y="480" on="0"/>
        <pt x="298" y="517" on="0"/>
        <pt x="275" y="541" on="0"/>
        <pt x="241" y="577" on="0"/>
      </contour>
    </TTGlyph>
    <TTGlyph name="asciitilde" xMin="40" yMin="213" xMax="506" yMax="329">
      <contour>
        <pt x="40" y="267" on="1"/>
        <pt x="40" y="329" on="0"/>
        <pt x="138" y="329" on="1"/>
        <pt x="189" y="329" on="0"/>
        <pt x="348" y="289" on="0"/>
        <pt x="385" y="289" on="1"/>
        <pt x="451" y="289" on="0"/>
        <pt x="487" y="324" on="1"/>
        <pt x="506" y="299" on="0"/>
        <pt x="506" y="275" on="1"/>
        <pt x="506" y="243" on="0"/>
        <pt x="434" y="213" on="0"/>
        <pt x="385" y="213" on="1"/>
        <pt x="354" y="213" on="0"/>
        <pt x="202" y="253" on="0"/>
        <pt x="161" y="253" on="1"/>
        <pt x="95" y="253" on="0"/>
        <pt x="59" y="218" on="1"/>
        <pt x="40" y="243" on="0"/>
      </contour>
    </TTGlyph>
    <TTGlyph name="asterisk" xMin="35" yMin="405" xMax="361" yMax="743">
      <contour>
        <pt x="241" y="704" on="1"/>
        <pt x="241" y="694" on="0"/>
        <pt x="228" y="605" on="1"/>
        <pt x="248" y="618" on="0"/>
        <pt x="332" y="679" on="1"/>
        <pt x="361" y="654" on="0"/>
        <pt x="361" y="625" on="1"/>
        <pt x="361" y="615" on="0"/>
        <pt x="351" y="599" on="0"/>
        <pt x="325" y="585" on="0"/>
        <pt x="304" y="576" on="0"/>
        <pt x="257" y="558" on="0"/>
        <pt x="243" y="553" on="1"/>
        <pt x="265" y="530" on="0"/>
        <pt x="347" y="458" on="1"/>
        <pt x="324" y="417" on="0"/>
        <pt x="292" y="417" on="1"/>
        <pt x="279" y="417" on="0"/>
        <pt x="255" y="444" on="0"/>
        <pt x="210" y="516" on="0"/>
        <pt x="201" y="530" on="1"/>
        <pt x="188" y="512" on="0"/>
        <pt x="161" y="467" on="0"/>
        <pt x="132" y="417" on="0"/>
        <pt x="125" y="405" on="1"/>
        <pt x="106" y="412" on="0"/>
        <pt x="75" y="440" on="0"/>
        <pt x="75" y="457" on="1"/>
        <pt x="75" y="469" on="0"/>
        <pt x="104" y="502" on="0"/>
        <pt x="141" y="538" on="1"/>
        <pt x="153" y="549" on="0"/>
        <pt x="160" y="556" on="1"/>
        <pt x="128" y="570" on="0"/>
        <pt x="35" y="602" on="1"/>
        <pt x="39" y="625" on="0"/>
        <pt x="63" y="662" on="0"/>
        <pt x="82" y="662" on="1"/>
        <pt x="91" y="662" on="0"/>
        <pt x="113" y="651" on="0"/>
        <pt x="166" y="615" on="0"/>
        <pt x="177" y="608" on="1"/>
        <pt x="175" y="635" on="0"/>
        <pt x="162" y="738" on="1"/>
        <pt x="179" y="743" on="0"/>
        <pt x="194" y="743" on="1"/>
        <pt x="241" y="743" on="0"/>
      </contour>
    </TTGlyph>
    <TTGlyph name="at" xMin="110" yMin="-48" xMax="710" yMax="567">
      <contour>
        <pt x="350" y="95" on="1"/>
        <pt x="308" y="95" on="0"/>
        <pt x="253" y="160" on="0"/>
        <pt x="253" y="221" on="1"/>
        <pt x="253" y="310" on="0"/>
        <pt x="346" y="437" on="0"/>
        <pt x="414" y="437" on="1"/>
        <pt x="493" y="437" on="0"/>
        <pt x="547" y="397" on="1"/>
        <pt x="515" y="275" on="0"/>
        <pt x="515" y="206" on="1"/>
        <pt x="515" y="158" on="0"/>
        <pt x="549" y="158" on="1"/>
        <pt x="580" y="158" on="0"/>
        <pt x="639" y="248" on="0"/>
        <pt x="639" y="321" on="1"/>
        <pt x="639" y="411" on="0"/>
        <pt x="544" y="511" on="0"/>
        <pt x="447" y="511" on="1"/>
        <pt x="330" y="511" on="0"/>
        <pt x="178" y="322" on="0"/>
        <pt x="178" y="210" on="1"/>
        <pt x="178" y="125" on="0"/>
        <pt x="276" y="13" on="0"/>
        <pt x="371" y="13" on="1"/>
        <pt x="417" y="13" on="0"/>
        <pt x="492" y="47" on="0"/>
        <pt x="506" y="76" on="1"/>
        <pt x="553" y="60" on="0"/>
        <pt x="553" y="34" on="1"/>
        <pt x="553" y="0" on="0"/>
        <pt x="447" y="-48" on="0"/>
        <pt x="375" y="-48" on="1"/>
        <pt x="245" y="-48" on="0"/>
        <pt x="110" y="98" on="0"/>
        <pt x="110" y="206" on="1"/>
        <pt x="110" y="271" on="0"/>
        <pt x="159" y="398" on="0"/>
        <pt x="246" y="502" on="0"/>
        <pt x="382" y="567" on="0"/>
        <pt x="462" y="567" on="1"/>
        <pt x="575" y="567" on="0"/>
        <pt x="710" y="442" on="0"/>
        <pt x="710" y="345" on="1"/>
        <pt x="710" y="249" on="0"/>
        <pt x="594" y="109" on="0"/>
        <pt x="534" y="109" on="1"/>
        <pt x="476" y="109" on="0"/>
        <pt x="460" y="176" on="1"/>
        <pt x="414" y="95" on="0"/>
      </contour>
      <contour>
        <pt x="455" y="228" on="1"/>
        <pt x="458" y="248" on="0"/>
        <pt x="468" y="345" on="0"/>
        <pt x="471" y="361" on="1"/>
        <pt x="440" y="386" on="0"/>
        <pt x="409" y="386" on="1"/>
        <pt x="368" y="386" on="0"/>
        <pt x="315" y="305" on="0"/>
        <pt x="315" y="239" on="1"/>
        <pt x="315" y="200" on="0"/>
        <pt x="341" y="149" on="0"/>
        <pt x="365" y="149" on="1"/>
        <pt x="387" y="149" on="0"/>
        <pt x="436" y="189" on="0"/>
      </contour>
    </TTGlyph>
    <TTGlyph name="atilde" xMin="6" yMin="-16" xMax="476" yMax="679">
      <contour>
        <pt x="381" y="655" on="1"/>
        <pt x="381" y="627" on="0"/>
        <pt x="319" y="575" on="0"/>
        <pt x="284" y="575" on="1"/>
        <pt x="263" y="575" on="0"/>
        <pt x="188" y="620" on="0"/>
        <pt x="152" y="620" on="0"/>
        <pt x="111" y="578" on="1"/>
        <pt x="95" y="585" on="0"/>
        <pt x="95" y="599" on="1"/>
        <pt x="95" y="626" on="0"/>
        <pt x="158" y="679" on="0"/>
        <pt x="193" y="679" on="1"/>
        <pt x="211" y="679" on="0"/>
        <pt x="289" y="634" on="0"/>
        <pt x="306" y="634" on="1"/>
        <pt x="329" y="634" on="0"/>
        <pt x="365" y="676" on="1"/>
        <pt x="381" y="670" on="0"/>
      </contour>
      <contour>
        <pt x="311" y="211" on="1"/>
        <pt x="292" y="256" on="0"/>
        <pt x="230" y="424" on="1"/>
        <pt x="180" y="280" on="0"/>
        <pt x="151" y="212" on="1"/>
        <pt x="211" y="210" on="0"/>
        <pt x="243" y="210" on="1"/>
        <pt x="290" y="210" on="0"/>
      </contour>
      <contour>
        <pt x="227" y="157" on="1"/>
        <pt x="206" y="157" on="0"/>
        <pt x="130" y="159" on="1"/>
        <pt x="125" y="147" on="0"/>
        <pt x="92" y="65" on="0"/>
        <pt x="72" y="10" on="0"/>
        <pt x="65" y="-16" on="1"/>
        <pt x="6" y="-8" on="0"/>
        <pt x="6" y="15" on="1"/>
        <pt x="6" y="25" on="0"/>
        <pt x="25" y="71" on="0"/>
        <pt x="72" y="178" on="0"/>
        <pt x="93" y="232" on="1"/>
        <pt x="171" y="433" on="0"/>
        <pt x="195" y="514" on="1"/>
        <pt x="211" y="517" on="0"/>
        <pt x="232" y="517" on="1"/>
        <pt x="254" y="517" on="0"/>
        <pt x="272" y="504" on="0"/>
        <pt x="283" y="475" on="1"/>
        <pt x="291" y="454" on="0"/>
        <pt x="362" y="263" on="0"/>
        <pt x="382" y="212" on="1"/>
        <pt x="430" y="94" on="0"/>
        <pt x="476" y="7" on="1"/>
        <pt x="448" y="-7" on="0"/>
        <pt x="431" y="-7" on="1"/>
        <pt x="401" y="-7" on="0"/>
        <pt x="390" y="13" on="1"/>
        <pt x="384" y="27" on="0"/>
        <pt x="331" y="159" on="1"/>
        <pt x="245" y="157" on="0"/>
      </contour>
    </TTGlyph>
    <TTGlyph name="b" xMin="70" yMin="-7" xMax="432" yMax="524">
      <contour>
        <pt x="203" y="470" on="1"/>
        <pt x="152" y="467" on="1"/>
        <pt x="155" y="420" on="0"/>
        <pt x="155" y="301" on="1"/>
        <pt x="179" y="299" on="0"/>
        <pt x="197" y="299" on="1"/>
        <pt x="336" y="299" on="0"/>
        <pt x="336" y="383" on="1"/>
        <pt x="336" y="470" on="0"/>
      </contour>
      <contour>
        <pt x="239" y="46" on="1"/>
        <pt x="289" y="46" on="0"/>
        <pt x="356" y="100" on="0"/>
        <pt x="356" y="148" on="1"/>
        <pt x="356" y="200" on="0"/>
        <pt x="281" y="255" on="0"/>
        <pt x="227" y="255" on="1"/>
        <pt x="179" y="255" on="0"/>
        <pt x="155" y="251" on="1"/>
        <pt x="155" y="170" on="0"/>
        <pt x="144" y="74" on="1"/>
        <pt x="182" y="46" on="0"/>
      </contour>
      <contour>
        <pt x="70" y="41" on="1"/>
        <pt x="83" y="130" on="0"/>
        <pt x="83" y="301" on="1"/>
        <pt x="83" y="448" on="0"/>
        <pt x="73" y="515" on="1"/>
        <pt x="129" y="524" on="0"/>
        <pt x="206" y="524" on="1"/>
        <pt x="297" y="524" on="0"/>
        <pt x="413" y="462" on="0"/>
        <pt x="413" y="390" on="1"/>
        <pt x="413" y="312" on="0"/>
        <pt x="341" y="282" on="1"/>
        <pt x="432" y="246" on="0"/>
        <pt x="432" y="148" on="1"/>
        <pt x="432" y="75" on="0"/>
        <pt x="330" y="-7" on="0"/>
        <pt x="255" y="-7" on="1"/>
        <pt x="133" y="-7" on="0"/>
      </contour>
    </TTGlyph>
    <TTGlyph name="backslash" xMin="35" yMin="-122" xMax="216" yMax="742">
      <contour>
        <pt x="129" y="113" on="1"/>
        <pt x="35" y="700" on="0"/>
        <pt x="35" y="715" on="1"/>
        <pt x="35" y="742" on="0"/>
        <pt x="71" y="742" on="1"/>
        <pt x="83" y="742" on="0"/>
        <pt x="92" y="739" on="1"/>
        <pt x="100" y="653" on="0"/>
        <pt x="122" y="507" on="1"/>
        <pt x="216" y="-87" on="0"/>
        <pt x="216" y="-94" on="1"/>
        <pt x="216" y="-122" on="0"/>
        <pt x="183" y="-122" on="1"/>
        <pt x="172" y="-122" on="0"/>
        <pt x="159" y="-119" on="1"/>
        <pt x="151" y="-33" on="0"/>
      </contour>
    </TTGlyph>
    <TTGlyph name="bar" xMin="229" yMin="-249" xMax="306" yMax="736">
      <contour>
        <pt x="237" y="136" on="1"/>
        <pt x="237" y="444" on="1"/>
        <pt x="237" y="680" on="0"/>
        <pt x="229" y="733" on="1"/>
        <pt x="245" y="736" on="0"/>
        <pt x="259" y="736" on="1"/>
        <pt x="305" y="736" on="0"/>
        <pt x="305" y="698" on="1"/>
        <pt x="305" y="694" on="0"/>
        <pt x="302" y="595" on="0"/>
        <pt x="298" y="432" on="0"/>
        <pt x="298" y="351" on="1"/>
        <pt x="298" y="43" on="1"/>
        <pt x="298" y="-193" on="0"/>
        <pt x="306" y="-246" on="1"/>
        <pt x="290" y="-249" on="0"/>
        <pt x="276" y="-249" on="1"/>
        <pt x="230" y="-249" on="0"/>
        <pt x="230" y="-211" on="1"/>
        <pt x="230" y="-207" on="0"/>
        <pt x="234" y="-108" on="0"/>
        <pt x="237" y="55" on="0"/>
      </contour>
    </TTGlyph>
    <TTGlyph name="braceleft" xMin="70" yMin="-142" xMax="375" yMax="715">
      <contour>
        <pt x="182" y="286" on="1"/>
        <pt x="207" y="277" on="0"/>
        <pt x="251" y="211" on="0"/>
        <pt x="251" y="180" on="1"/>
        <pt x="251" y="-19" on="1"/>
        <pt x="251" y="-40" on="0"/>
        <pt x="254" y="-58" on="0"/>
        <pt x="268" y="-77" on="0"/>
        <pt x="299" y="-83" on="0"/>
        <pt x="327" y="-83" on="1"/>
        <pt x="352" y="-83" on="0"/>
        <pt x="375" y="-98" on="0"/>
        <pt x="375" y="-118" on="1"/>
        <pt x="375" y="-133" on="0"/>
        <pt x="371" y="-141" on="1"/>
        <pt x="358" y="-142" on="0"/>
        <pt x="335" y="-142" on="1"/>
        <pt x="248" y="-142" on="0"/>
        <pt x="184" y="-89" on="0"/>
        <pt x="184" y="-31" on="1"/>
        <pt x="184" y="178" on="1"/>
        <pt x="184" y="208" on="0"/>
        <pt x="126" y="261" on="0"/>
        <pt x="70" y="261" on="1"/>
        <pt x="70" y="311" on="1"/>
        <pt x="126" y="311" on="0"/>
        <pt x="185" y="365" on="0"/>
        <pt x="185" y="395" on="1"/>
        <pt x="185" y="604" on="1"/>
        <pt x="185" y="662" on="0"/>
        <pt x="248" y="715" on="0"/>
        <pt x="335" y="715" on="1"/>
        <pt x="358" y="715" on="0"/>
        <pt x="371" y="714" on="1"/>
        <pt x="375" y="706" on="0"/>
        <pt x="375" y="691" on="1"/>
        <pt x="375" y="671" on="0"/>
        <pt x="352" y="656" on="0"/>
        <pt x="327" y="656" on="1"/>
        <pt x="275" y="656" on="0"/>
        <pt x="250" y="630" on="0"/>
        <pt x="250" y="592" on="1"/>
        <pt x="250" y="393" on="1"/>
        <pt x="250" y="362" on="0"/>
        <pt x="207" y="295" on="0"/>
      </contour>
    </TTGlyph>
    <TTGlyph name="braceright" xMin="30" yMin="-142" xMax="335" yMax="715">
      <contour>
        <pt x="223" y="286" on="1"/>
        <pt x="198" y="295" on="0"/>
        <pt x="155" y="362" on="0"/>
        <pt x="155" y="393" on="1"/>
        <pt x="155" y="592" on="1"/>
        <pt x="155" y="612" on="0"/>
        <pt x="152" y="631" on="0"/>
        <pt x="137" y="650" on="0"/>
        <pt x="106" y="656" on="0"/>
        <pt x="78" y="656" on="1"/>
        <pt x="53" y="656" on="0"/>
        <pt x="30" y="671" on="0"/>
        <pt x="30" y="691" on="1"/>
        <pt x="30" y="706" on="0"/>
        <pt x="34" y="714" on="1"/>
        <pt x="47" y="715" on="0"/>
        <pt x="70" y="715" on="1"/>
        <pt x="157" y="715" on="0"/>
        <pt x="220" y="662" on="0"/>
        <pt x="220" y="604" on="1"/>
        <pt x="220" y="395" on="1"/>
        <pt x="220" y="365" on="0"/>
        <pt x="279" y="311" on="0"/>
        <pt x="335" y="311" on="1"/>
        <pt x="335" y="261" on="1"/>
        <pt x="279" y="261" on="0"/>
        <pt x="221" y="208" on="0"/>
        <pt x="221" y="178" on="1"/>
        <pt x="221" y="-31" on="1"/>
        <pt x="221" y="-89" on="0"/>
        <pt x="157" y="-142" on="0"/>
        <pt x="70" y="-142" on="1"/>
        <pt x="47" y="-142" on="0"/>
        <pt x="34" y="-141" on="1"/>
        <pt x="30" y="-133" on="0"/>
        <pt x="30" y="-118" on="1"/>
        <pt x="30" y="-98" on="0"/>
        <pt x="53" y="-83" on="0"/>
        <pt x="78" y="-83" on="1"/>
        <pt x="106" y="-83" on="0"/>
        <pt x="137" y="-77" on="0"/>
        <pt x="151" y="-58" on="0"/>
        <pt x="154" y="-40" on="0"/>
        <pt x="154" y="-19" on="1"/>
        <pt x="154" y="180" on="1"/>
        <pt x="154" y="211" on="0"/>
        <pt x="198" y="277" on="0"/>
      </contour>
    </TTGlyph>
    <TTGlyph name="bracketleft" xMin="150" yMin="-190" xMax="340" yMax="720">
      <contour>
        <pt x="216" y="664" on="1"/>
        <pt x="216" y="-134" on="1"/>
        <pt x="254" y="-132" on="0"/>
        <pt x="296" y="-132" on="1"/>
        <pt x="321" y="-132" on="0"/>
        <pt x="340" y="-149" on="0"/>
        <pt x="340" y="-167" on="1"/>
        <pt x="340" y="-179" on="0"/>
        <pt x="336" y="-190" on="1"/>
        <pt x="150" y="-190" on="1"/>
        <pt x="150" y="720" on="1"/>
        <pt x="336" y="720" on="1"/>
        <pt x="340" y="712" on="0"/>
        <pt x="340" y="697" on="1"/>
        <pt x="340" y="677" on="0"/>
        <pt x="318" y="662" on="0"/>
        <pt x="296" y="662" on="1"/>
        <pt x="253" y="662" on="0"/>
      </contour>
    </TTGlyph>
    <TTGlyph name="bracketright" xMin="30" yMin="-190" xMax="220" yMax="720">
      <contour>
        <pt x="154" y="-134" on="1"/>
        <pt x="154" y="664" on="1"/>
        <pt x="117" y="662" on="0"/>
        <pt x="74" y="662" on="1"/>
        <pt x="52" y="662" on="0"/>
        <pt x="30" y="677" on="0"/>
        <pt x="30" y="697" on="1"/>
        <pt x="30" y="711" on="0"/>
        <pt x="34" y="720" on="1"/>
        <pt x="220" y="720" on="1"/>
        <pt x="220" y="-190" on="1"/>
        <pt x="34" y="-190" on="1"/>
        <pt x="30" y="-179" on="0"/>
        <pt x="30" y="-167" on="1"/>
        <pt x="30" y="-149" on="0"/>
        <pt x="49" y="-132" on="0"/>
        <pt x="74" y="-132" on="1"/>
        <pt x="116" y="-132" on="0"/>
      </contour>
    </TTGlyph>
    <TTGlyph name="breve" xMin="0" yMin="534" xMax="272" yMax="687">
      <contour>
        <pt x="93" y="599" on="0"/>
        <pt x="179" y="599" on="0"/>
        <pt x="222" y="642" on="0"/>
        <pt x="235" y="687" on="1"/>
        <pt x="272" y="684" on="0"/>
        <pt x="272" y="657" on="1"/>
        <pt x="272" y="618" on="0"/>
        <pt x="195" y="534" on="0"/>
        <pt x="77" y="534" on="0"/>
        <pt x="0" y="618" on="0"/>
        <pt x="0" y="657" on="1"/>
        <pt x="0" y="684" on="0"/>
        <pt x="37" y="687" on="1"/>
        <pt x="50" y="642" on="0"/>
      </contour>
    </TTGlyph>
    <TTGlyph name="brokenbar" xMin="229" yMin="-249" xMax="306" yMax="737">
      <contour>
        <pt x="237" y="534" on="1"/>
        <pt x="237" y="564" on="1"/>
        <pt x="237" y="681" on="0"/>
        <pt x="229" y="734" on="1"/>
        <pt x="245" y="737" on="0"/>
        <pt x="259" y="737" on="1"/>
        <pt x="305" y="737" on="0"/>
        <pt x="305" y="699" on="1"/>
        <pt x="305" y="694" on="0"/>
        <pt x="298" y="560" on="0"/>
        <pt x="298" y="528" on="1"/>
        <pt x="298" y="489" on="1"/>
        <pt x="298" y="369" on="0"/>
        <pt x="306" y="297" on="1"/>
        <pt x="290" y="294" on="0"/>
        <pt x="276" y="294" on="1"/>
        <pt x="230" y="294" on="0"/>
        <pt x="230" y="332" on="1"/>
        <pt x="230" y="337" on="0"/>
        <pt x="237" y="501" on="0"/>
      </contour>
      <contour>
        <pt x="237" y="-9" on="1"/>
        <pt x="237" y="22" on="1"/>
        <pt x="237" y="139" on="0"/>
        <pt x="229" y="192" on="1"/>
        <pt x="245" y="195" on="0"/>
        <pt x="259" y="195" on="1"/>
        <pt x="305" y="195" on="0"/>
        <pt x="305" y="157" on="1"/>
        <pt x="305" y="152" on="0"/>
        <pt x="298" y="19" on="0"/>
        <pt x="298" y="-14" on="1"/>
        <pt x="298" y="-54" on="1"/>
        <pt x="298" y="-174" on="0"/>
        <pt x="306" y="-246" on="1"/>
        <pt x="290" y="-249" on="0"/>
        <pt x="276" y="-249" on="1"/>
        <pt x="230" y="-249" on="0"/>
        <pt x="230" y="-211" on="1"/>
        <pt x="230" y="-206" on="0"/>
        <pt x="237" y="-42" on="0"/>
      </contour>
    </TTGlyph>
    <TTGlyph name="bullet" xMin="25" yMin="155" xMax="243" yMax="383">
      <contour>
        <pt x="135" y="155" on="1"/>
        <pt x="89" y="155" on="0"/>
        <pt x="25" y="219" on="0"/>
        <pt x="25" y="268" on="1"/>
        <pt x="25" y="316" on="0"/>
        <pt x="90" y="383" on="0"/>
        <pt x="180" y="383" on="0"/>
        <pt x="243" y="316" on="0"/>
        <pt x="243" y="268" on="1"/>
        <pt x="243" y="219" on="0"/>
        <pt x="180" y="155" on="0"/>
      </contour>
    </TTGlyph>
    <TTGlyph name="c" xMin="48" yMin="-7" xMax="472" yMax="524">
      <contour>
        <pt x="433" y="113" on="1"/>
        <pt x="472" y="97" on="0"/>
        <pt x="472" y="68" on="1"/>
        <pt x="472" y="38" on="0"/>
        <pt x="378" y="-7" on="0"/>
        <pt x="307" y="-7" on="1"/>
        <pt x="190" y="-7" on="0"/>
        <pt x="48" y="139" on="0"/>
        <pt x="48" y="258" on="1"/>
        <pt x="48" y="383" on="0"/>
        <pt x="189" y="524" on="0"/>
        <pt x="311" y="524" on="1"/>
        <pt x="376" y="524" on="0"/>
        <pt x="464" y="475" on="0"/>
        <pt x="464" y="439" on="1"/>
        <pt x="464" y="402" on="0"/>
        <pt x="409" y="393" on="1"/>
        <pt x="395" y="430" on="0"/>
        <pt x="330" y="469" on="0"/>
        <pt x="294" y="469" on="1"/>
        <pt x="221" y="469" on="0"/>
        <pt x="127" y="357" on="0"/>
        <pt x="127" y="274" on="1"/>
        <pt x="127" y="177" on="0"/>
        <pt x="221" y="47" on="0"/>
        <pt x="306" y="47" on="1"/>
        <pt x="344" y="47" on="0"/>
        <pt x="413" y="81" on="0"/>
      </contour>
    </TTGlyph>
    <TTGlyph name="caron" xMin="26" yMin="519" xMax="297" yMax="679">
      <contour>
        <pt x="156" y="519" on="1"/>
        <pt x="109" y="549" on="0"/>
        <pt x="26" y="624" on="0"/>
        <pt x="26" y="651" on="1"/>
        <pt x="26" y="669" on="0"/>
        <pt x="49" y="679" on="1"/>
        <pt x="68" y="655" on="0"/>
        <pt x="122" y="611" on="0"/>
        <pt x="140" y="600" on="1"/>
        <pt x="158" y="590" on="1"/>
        <pt x="164" y="595" on="0"/>
        <pt x="189" y="616" on="0"/>
        <pt x="204" y="628" on="0"/>
        <pt x="226" y="645" on="0"/>
        <pt x="241" y="656" on="0"/>
        <pt x="256" y="666" on="0"/>
        <pt x="268" y="671" on="0"/>
        <pt x="272" y="671" on="1"/>
        <pt x="284" y="671" on="0"/>
        <pt x="297" y="653" on="1"/>
        <pt x="233" y="576" on="0"/>
      </contour>
    </TTGlyph>
    <TTGlyph name="ccedilla" xMin="48" yMin="-232" xMax="472" yMax="524">
      <contour>
        <pt x="433" y="113" on="1"/>
        <pt x="472" y="97" on="0"/>
        <pt x="472" y="39" on="0"/>
        <pt x="386" y="-5" on="0"/>
        <pt x="319" y="-7" on="1"/>
        <pt x="314" y="-22" on="0"/>
        <pt x="314" y="-30" on="1"/>
        <pt x="314" y="-33" on="0"/>
        <pt x="315" y="-39" on="0"/>
        <pt x="319" y="-43" on="0"/>
        <pt x="321" y="-47" on="0"/>
        <pt x="328" y="-52" on="0"/>
        <pt x="331" y="-54" on="0"/>
        <pt x="339" y="-59" on="0"/>
        <pt x="341" y="-60" on="1"/>
        <pt x="388" y="-87" on="0"/>
        <pt x="388" y="-133" on="1"/>
        <pt x="388" y="-171" on="0"/>
        <pt x="319" y="-232" on="0"/>
        <pt x="268" y="-232" on="1"/>
        <pt x="233" y="-232" on="0"/>
        <pt x="233" y="-207" on="1"/>
        <pt x="233" y="-191" on="0"/>
        <pt x="246" y="-178" on="1"/>
        <pt x="261" y="-187" on="0"/>
        <pt x="277" y="-187" on="1"/>
        <pt x="327" y="-187" on="0"/>
        <pt x="327" y="-147" on="1"/>
        <pt x="327" y="-124" on="0"/>
        <pt x="266" y="-73" on="0"/>
        <pt x="266" y="-54" on="1"/>
        <pt x="266" y="-38" on="0"/>
        <pt x="278" y="-5" on="1"/>
        <pt x="172" y="4" on="0"/>
        <pt x="48" y="147" on="0"/>
        <pt x="48" y="258" on="1"/>
        <pt x="48" y="383" on="0"/>
        <pt x="189" y="524" on="0"/>
        <pt x="311" y="524" on="1"/>
        <pt x="376" y="524" on="0"/>
        <pt x="464" y="475" on="0"/>
        <pt x="464" y="439" on="1"/>
        <pt x="464" y="402" on="0"/>
        <pt x="409" y="393" on="1"/>
        <pt x="395" y="430" on="0"/>
        <pt x="330" y="469" on="0"/>
        <pt x="294" y="469" on="1"/>
        <pt x="221" y="469" on="0"/>
        <pt x="127" y="357" on="0"/>
        <pt x="127" y="274" on="1"/>
        <pt x="127" y="177" on="0"/>
        <pt x="221" y="47" on="0"/>
        <pt x="306" y="47" on="1"/>
        <pt x="344" y="47" on="0"/>
        <pt x="413" y="81" on="0"/>
      </contour>
    </TTGlyph>
    <TTGlyph name="cedilla" xMin="30" yMin="-232" xMax="185" yMax="32">
      <contour>
        <pt x="92" y="32" on="1"/>
        <pt x="129" y="27" on="1"/>
        <pt x="111" y="-27" on="0"/>
        <pt x="111" y="-33" on="0"/>
        <pt x="112" y="-39" on="0"/>
        <pt x="116" y="-43" on="0"/>
        <pt x="118" y="-47" on="0"/>
        <pt x="125" y="-52" on="0"/>
        <pt x="128" y="-54" on="0"/>
        <pt x="136" y="-59" on="0"/>
        <pt x="138" y="-60" on="1"/>
        <pt x="185" y="-87" on="0"/>
        <pt x="185" y="-133" on="1"/>
        <pt x="185" y="-171" on="0"/>
        <pt x="116" y="-232" on="0"/>
        <pt x="65" y="-232" on="1"/>
        <pt x="30" y="-232" on="0"/>
        <pt x="30" y="-207" on="1"/>
        <pt x="30" y="-191" on="0"/>
        <pt x="43" y="-178" on="1"/>
        <pt x="58" y="-187" on="0"/>
        <pt x="74" y="-187" on="1"/>
        <pt x="124" y="-187" on="0"/>
        <pt x="124" y="-147" on="1"/>
        <pt x="124" y="-124" on="0"/>
        <pt x="63" y="-73" on="0"/>
        <pt x="63" y="-54" on="1"/>
        <pt x="63" y="-21" on="0"/>
      </contour>
    </TTGlyph>
    <TTGlyph name="cent" xMin="67" yMin="-98" xMax="477" yMax="567">
      <contour>
        <pt x="272" y="50" on="1"/>
        <pt x="272" y="411" on="1"/>
        <pt x="215" y="396" on="0"/>
        <pt x="143" y="306" on="0"/>
        <pt x="143" y="154" on="0"/>
        <pt x="215" y="64" on="0"/>
      </contour>
      <contour>
        <pt x="434" y="348" on="1"/>
        <pt x="410" y="381" on="0"/>
        <pt x="358" y="417" on="0"/>
        <pt x="317" y="417" on="1"/>
        <pt x="311" y="417" on="1"/>
        <pt x="311" y="44" on="1"/>
        <pt x="321" y="44" on="1"/>
        <pt x="385" y="44" on="0"/>
        <pt x="434" y="113" on="1"/>
        <pt x="477" y="103" on="0"/>
        <pt x="477" y="69" on="1"/>
        <pt x="477" y="31" on="0"/>
        <pt x="369" y="-12" on="0"/>
        <pt x="319" y="-12" on="1"/>
        <pt x="311" y="-12" on="1"/>
        <pt x="312" y="-46" on="0"/>
        <pt x="316" y="-96" on="1"/>
        <pt x="301" y="-98" on="1"/>
        <pt x="272" y="-98" on="0"/>
        <pt x="272" y="-71" on="1"/>
        <pt x="272" y="-9" on="1"/>
        <pt x="184" y="4" on="0"/>
        <pt x="67" y="123" on="0"/>
        <pt x="67" y="232" on="1"/>
        <pt x="67" y="337" on="0"/>
        <pt x="184" y="456" on="0"/>
        <pt x="271" y="469" on="1"/>
        <pt x="271" y="508" on="0"/>
        <pt x="267" y="564" on="1"/>
        <pt x="278" y="567" on="0"/>
        <pt x="284" y="567" on="1"/>
        <pt x="311" y="567" on="0"/>
        <pt x="311" y="540" on="1"/>
        <pt x="311" y="473" on="1"/>
        <pt x="319" y="473" on="1"/>
        <pt x="369" y="473" on="0"/>
        <pt x="477" y="430" on="0"/>
        <pt x="477" y="392" on="1"/>
        <pt x="477" y="358" on="0"/>
      </contour>
    </TTGlyph>
    <TTGlyph name="circumflex" xMin="-2" yMin="519" xMax="269" yMax="679">
      <contour>
        <pt x="139" y="679" on="1"/>
        <pt x="186" y="649" on="0"/>
        <pt x="269" y="574" on="0"/>
        <pt x="269" y="547" on="1"/>
        <pt x="269" y="529" on="0"/>
        <pt x="246" y="519" on="1"/>
        <pt x="227" y="543" on="0"/>
        <pt x="173" y="588" on="0"/>
        <pt x="155" y="598" on="1"/>
        <pt x="137" y="608" on="1"/>
        <pt x="131" y="603" on="0"/>
        <pt x="106" y="582" on="0"/>
        <pt x="91" y="570" on="0"/>
        <pt x="69" y="553" on="0"/>
        <pt x="54" y="542" on="0"/>
        <pt x="39" y="532" on="0"/>
        <pt x="27" y="527" on="0"/>
        <pt x="23" y="527" on="1"/>
        <pt x="11" y="527" on="0"/>
        <pt x="-2" y="545" on="1"/>
        <pt x="62" y="622" on="0"/>
      </contour>
    </TTGlyph>
    <TTGlyph name="colon" xMin="50" yMin="-10" xMax="171" yMax="478">
      <contour>
        <pt x="136" y="-10" on="0"/>
        <pt x="86" y="-10" on="0"/>
        <pt x="50" y="26" on="0"/>
        <pt x="50" y="80" on="0"/>
        <pt x="86" y="117" on="0"/>
        <pt x="136" y="117" on="0"/>
        <pt x="171" y="80" on="0"/>
        <pt x="171" y="26" on="0"/>
      </contour>
      <contour>
        <pt x="136" y="351" on="0"/>
        <pt x="86" y="351" on="0"/>
        <pt x="50" y="387" on="0"/>
        <pt x="50" y="441" on="0"/>
        <pt x="86" y="478" on="0"/>
        <pt x="136" y="478" on="0"/>
        <pt x="171" y="441" on="0"/>
        <pt x="171" y="387" on="0"/>
      </contour>
    </TTGlyph>
    <TTGlyph name="comma" xMin="27" yMin="-143" xMax="169" yMax="120">
      <contour>
        <pt x="107" y="-22" on="1"/>
        <pt x="107" y="27" on="0"/>
        <pt x="58" y="37" on="1"/>
        <pt x="48" y="53" on="0"/>
        <pt x="48" y="70" on="1"/>
        <pt x="48" y="91" on="0"/>
        <pt x="82" y="120" on="0"/>
        <pt x="106" y="120" on="1"/>
        <pt x="132" y="120" on="0"/>
        <pt x="169" y="74" on="0"/>
        <pt x="169" y="26" on="1"/>
        <pt x="169" y="-37" on="0"/>
        <pt x="100" y="-143" on="0"/>
        <pt x="53" y="-143" on="1"/>
        <pt x="27" y="-143" on="0"/>
        <pt x="27" y="-113" on="1"/>
        <pt x="27" y="-105" on="0"/>
        <pt x="28" y="-101" on="1"/>
        <pt x="33" y="-101" on="1"/>
        <pt x="65" y="-101" on="0"/>
        <pt x="107" y="-53" on="0"/>
      </contour>
    </TTGlyph>
    <TTGlyph name="copyright" xMin="130" yMin="-34" xMax="822" yMax="674">
      <contour>
        <pt x="617" y="157" on="1"/>
        <pt x="617" y="133" on="0"/>
        <pt x="543" y="98" on="0"/>
        <pt x="493" y="98" on="1"/>
        <pt x="455" y="98" on="0"/>
        <pt x="384" y="121" on="0"/>
        <pt x="321" y="170" on="0"/>
        <pt x="283" y="259" on="0"/>
        <pt x="283" y="318" on="1"/>
        <pt x="283" y="431" on="0"/>
        <pt x="408" y="548" on="0"/>
        <pt x="487" y="548" on="1"/>
        <pt x="514" y="548" on="0"/>
        <pt x="571" y="532" on="0"/>
        <pt x="618" y="493" on="0"/>
        <pt x="618" y="467" on="1"/>
        <pt x="618" y="433" on="0"/>
        <pt x="575" y="427" on="1"/>
        <pt x="566" y="458" on="0"/>
        <pt x="511" y="489" on="0"/>
        <pt x="480" y="489" on="1"/>
        <pt x="432" y="489" on="0"/>
        <pt x="367" y="401" on="0"/>
        <pt x="367" y="330" on="1"/>
        <pt x="367" y="240" on="0"/>
        <pt x="447" y="157" on="0"/>
        <pt x="502" y="157" on="1"/>
        <pt x="561" y="157" on="0"/>
        <pt x="588" y="195" on="1"/>
        <pt x="617" y="179" on="0"/>
      </contour>
      <contour>
        <pt x="750" y="320" on="1"/>
        <pt x="750" y="452" on="0"/>
        <pt x="591" y="617" on="0"/>
        <pt x="477" y="617" on="1"/>
        <pt x="361" y="617" on="0"/>
        <pt x="202" y="453" on="0"/>
        <pt x="202" y="187" on="0"/>
        <pt x="361" y="23" on="0"/>
        <pt x="477" y="23" on="1"/>
        <pt x="591" y="23" on="0"/>
        <pt x="750" y="187" on="0"/>
      </contour>
      <contour>
        <pt x="822" y="320" on="1"/>
        <pt x="822" y="170" on="0"/>
        <pt x="621" y="-34" on="0"/>
        <pt x="477" y="-34" on="1"/>
        <pt x="330" y="-34" on="0"/>
        <pt x="130" y="169" on="0"/>
        <pt x="130" y="320" on="1"/>
        <pt x="130" y="472" on="0"/>
        <pt x="330" y="674" on="0"/>
        <pt x="477" y="674" on="1"/>
        <pt x="622" y="674" on="0"/>
        <pt x="822" y="472" on="0"/>
      </contour>
    </TTGlyph>
    <TTGlyph name="d" xMin="70" yMin="-7" xMax="504" yMax="524">
      <contour>
        <pt x="70" y="41" on="1"/>
        <pt x="81" y="108" on="0"/>
        <pt x="83" y="303" on="1"/>
        <pt x="83" y="437" on="0"/>
        <pt x="73" y="515" on="1"/>
        <pt x="121" y="524" on="0"/>
        <pt x="202" y="524" on="1"/>
        <pt x="267" y="524" on="0"/>
        <pt x="370" y="498" on="0"/>
        <pt x="457" y="439" on="0"/>
        <pt x="504" y="333" on="0"/>
        <pt x="504" y="259" on="1"/>
        <pt x="504" y="143" on="0"/>
        <pt x="370" y="-7" on="0"/>
        <pt x="247" y="-7" on="1"/>
        <pt x="132" y="-7" on="0"/>
      </contour>
      <contour>
        <pt x="152" y="467" on="1"/>
        <pt x="155" y="427" on="0"/>
        <pt x="155" y="344" on="1"/>
        <pt x="155" y="174" on="0"/>
        <pt x="144" y="75" on="1"/>
        <pt x="185" y="48" on="0"/>
        <pt x="248" y="48" on="1"/>
        <pt x="297" y="48" on="0"/>
        <pt x="369" y="84" on="0"/>
        <pt x="407" y="145" on="0"/>
        <pt x="424" y="210" on="0"/>
        <pt x="424" y="245" on="1"/>
        <pt x="424" y="357" on="0"/>
        <pt x="309" y="470" on="0"/>
        <pt x="202" y="470" on="1"/>
        <pt x="195" y="470" on="0"/>
        <pt x="179" y="469" on="0"/>
        <pt x="158" y="467" on="0"/>
      </contour>
    </TTGlyph>
    <TTGlyph name="dagger" xMin="45" yMin="-106" xMax="410" yMax="673">
      <contour>
        <pt x="45" y="459" on="1"/>
        <pt x="45" y="506" on="0"/>
        <pt x="83" y="506" on="1"/>
        <pt x="88" y="506" on="0"/>
        <pt x="115" y="501" on="0"/>
        <pt x="165" y="494" on="0"/>
        <pt x="198" y="493" on="1"/>
        <pt x="198" y="507" on="0"/>
        <pt x="185" y="667" on="1"/>
        <pt x="212" y="673" on="0"/>
        <pt x="244" y="673" on="0"/>
        <pt x="270" y="667" on="1"/>
        <pt x="257" y="507" on="0"/>
        <pt x="257" y="493" on="1"/>
        <pt x="327" y="494" on="0"/>
        <pt x="402" y="517" on="1"/>
        <pt x="410" y="499" on="0"/>
        <pt x="410" y="479" on="1"/>
        <pt x="410" y="450" on="0"/>
        <pt x="384" y="430" on="0"/>
        <pt x="353" y="430" on="1"/>
        <pt x="336" y="430" on="0"/>
        <pt x="278" y="436" on="0"/>
        <pt x="257" y="436" on="1"/>
        <pt x="260" y="273" on="0"/>
        <pt x="269" y="58" on="0"/>
        <pt x="275" y="-19" on="0"/>
        <pt x="275" y="-29" on="1"/>
        <pt x="275" y="-46" on="0"/>
        <pt x="251" y="-85" on="0"/>
        <pt x="239" y="-96" on="1"/>
        <pt x="227" y="-106" on="1"/>
        <pt x="180" y="-68" on="0"/>
        <pt x="180" y="-29" on="1"/>
        <pt x="180" y="-19" on="0"/>
        <pt x="186" y="58" on="0"/>
        <pt x="195" y="273" on="0"/>
        <pt x="198" y="437" on="1"/>
        <pt x="161" y="436" on="0"/>
        <pt x="65" y="426" on="0"/>
        <pt x="48" y="425" on="1"/>
        <pt x="45" y="441" on="0"/>
      </contour>
    </TTGlyph>
    <TTGlyph name="daggerdbl" xMin="45" yMin="-105" xMax="411" yMax="673">
      <contour>
        <pt x="271" y="281" on="1"/>
        <pt x="271" y="262" on="0"/>
        <pt x="259" y="162" on="0"/>
        <pt x="258" y="131" on="1"/>
        <pt x="295" y="132" on="0"/>
        <pt x="391" y="142" on="0"/>
        <pt x="408" y="143" on="1"/>
        <pt x="411" y="127" on="0"/>
        <pt x="411" y="109" on="1"/>
        <pt x="411" y="62" on="0"/>
        <pt x="373" y="62" on="1"/>
        <pt x="368" y="62" on="0"/>
        <pt x="341" y="67" on="0"/>
        <pt x="291" y="74" on="0"/>
        <pt x="258" y="75" on="1"/>
        <pt x="258" y="61" on="0"/>
        <pt x="271" y="-99" on="1"/>
        <pt x="244" y="-105" on="0"/>
        <pt x="212" y="-105" on="0"/>
        <pt x="186" y="-99" on="1"/>
        <pt x="199" y="61" on="0"/>
        <pt x="199" y="75" on="1"/>
        <pt x="129" y="74" on="0"/>
        <pt x="54" y="51" on="1"/>
        <pt x="46" y="69" on="0"/>
        <pt x="46" y="89" on="1"/>
        <pt x="46" y="118" on="0"/>
        <pt x="72" y="138" on="0"/>
        <pt x="103" y="138" on="1"/>
        <pt x="120" y="138" on="0"/>
        <pt x="178" y="132" on="0"/>
        <pt x="199" y="132" on="1"/>
        <pt x="198" y="162" on="0"/>
        <pt x="184" y="260" on="0"/>
        <pt x="184" y="281" on="1"/>
        <pt x="184" y="303" on="0"/>
        <pt x="197" y="406" on="0"/>
        <pt x="198" y="437" on="1"/>
        <pt x="161" y="436" on="0"/>
        <pt x="65" y="426" on="0"/>
        <pt x="48" y="425" on="1"/>
        <pt x="45" y="441" on="0"/>
        <pt x="45" y="459" on="1"/>
        <pt x="45" y="506" on="0"/>
        <pt x="83" y="506" on="1"/>
        <pt x="88" y="506" on="0"/>
        <pt x="115" y="501" on="0"/>
        <pt x="165" y="494" on="0"/>
        <pt x="198" y="493" on="1"/>
        <pt x="198" y="507" on="0"/>
        <pt x="185" y="667" on="1"/>
        <pt x="212" y="673" on="0"/>
        <pt x="244" y="673" on="0"/>
        <pt x="270" y="667" on="1"/>
        <pt x="257" y="507" on="0"/>
        <pt x="257" y="493" on="1"/>
        <pt x="327" y="494" on="0"/>
        <pt x="402" y="517" on="1"/>
        <pt x="410" y="499" on="0"/>
        <pt x="410" y="479" on="1"/>
        <pt x="410" y="450" on="0"/>
        <pt x="384" y="430" on="0"/>
        <pt x="353" y="430" on="1"/>
        <pt x="336" y="430" on="0"/>
        <pt x="278" y="436" on="0"/>
        <pt x="257" y="436" on="1"/>
        <pt x="258" y="404" on="0"/>
        <pt x="271" y="301" on="0"/>
      </contour>
    </TTGlyph>
    <TTGlyph name="degree" xMin="48" yMin="395" xMax="353" yMax="703">
      <contour>
        <pt x="110" y="593" on="0"/>
        <pt x="110" y="501" on="0"/>
        <pt x="156" y="443" on="0"/>
        <pt x="242" y="443" on="0"/>
        <pt x="290" y="504" on="0"/>
        <pt x="290" y="551" on="1"/>
        <pt x="290" y="596" on="0"/>
        <pt x="245" y="655" on="0"/>
        <pt x="203" y="655" on="1"/>
        <pt x="159" y="655" on="0"/>
      </contour>
      <contour>
        <pt x="48" y="547" on="1"/>
        <pt x="48" y="614" on="0"/>
        <pt x="135" y="703" on="0"/>
        <pt x="204" y="703" on="1"/>
        <pt x="269" y="703" on="0"/>
        <pt x="353" y="616" on="0"/>
        <pt x="353" y="552" on="1"/>
        <pt x="353" y="483" on="0"/>
        <pt x="267" y="395" on="0"/>
        <pt x="199" y="395" on="1"/>
        <pt x="133" y="395" on="0"/>
        <pt x="48" y="481" on="0"/>
      </contour>
    </TTGlyph>
    <TTGlyph name="dieresis" xMin="-13" yMin="521" xMax="268" yMax="628">
      <contour>
        <pt x="216" y="521" on="1"/>
        <pt x="195" y="521" on="0"/>
        <pt x="165" y="551" on="0"/>
        <pt x="165" y="575" on="1"/>
        <pt x="165" y="597" on="0"/>
        <pt x="197" y="628" on="0"/>
        <pt x="218" y="628" on="1"/>
        <pt x="238" y="628" on="0"/>
        <pt x="268" y="597" on="0"/>
        <pt x="268" y="575" on="1"/>
        <pt x="268" y="552" on="0"/>
        <pt x="236" y="521" on="0"/>
      </contour>
      <contour>
        <pt x="38" y="521" on="1"/>
        <pt x="17" y="521" on="0"/>
        <pt x="-13" y="551" on="0"/>
        <pt x="-13" y="575" on="1"/>
        <pt x="-13" y="597" on="0"/>
        <pt x="19" y="628" on="0"/>
        <pt x="40" y="628" on="1"/>
        <pt x="60" y="628" on="0"/>
        <pt x="90" y="597" on="0"/>
        <pt x="90" y="575" on="1"/>
        <pt x="90" y="552" on="0"/>
        <pt x="58" y="521" on="0"/>
      </contour>
    </TTGlyph>
    <TTGlyph name="divide" xMin="69" yMin="23" xMax="466" yMax="481">
      <contour>
        <pt x="466" y="258" on="1"/>
        <pt x="466" y="240" on="0"/>
        <pt x="446" y="216" on="0"/>
        <pt x="414" y="216" on="0"/>
        <pt x="303" y="224" on="0"/>
        <pt x="274" y="224" on="1"/>
        <pt x="160" y="224" on="0"/>
        <pt x="72" y="216" on="1"/>
        <pt x="69" y="231" on="0"/>
        <pt x="69" y="246" on="1"/>
        <pt x="69" y="262" on="0"/>
        <pt x="87" y="288" on="0"/>
        <pt x="105" y="288" on="1"/>
        <pt x="108" y="288" on="0"/>
        <pt x="228" y="281" on="0"/>
        <pt x="272" y="281" on="1"/>
        <pt x="402" y="281" on="0"/>
        <pt x="463" y="288" on="1"/>
        <pt x="466" y="279" on="0"/>
      </contour>
      <contour>
        <pt x="294" y="367" on="0"/>
        <pt x="248" y="367" on="0"/>
        <pt x="216" y="399" on="0"/>
        <pt x="216" y="424" on="1"/>
        <pt x="216" y="448" on="0"/>
        <pt x="248" y="481" on="0"/>
        <pt x="294" y="481" on="0"/>
        <pt x="325" y="448" on="0"/>
        <pt x="325" y="424" on="1"/>
        <pt x="325" y="399" on="0"/>
      </contour>
      <contour>
        <pt x="294" y="23" on="0"/>
        <pt x="248" y="23" on="0"/>
        <pt x="216" y="55" on="0"/>
        <pt x="216" y="80" on="1"/>
        <pt x="216" y="104" on="0"/>
        <pt x="248" y="137" on="0"/>
        <pt x="294" y="137" on="0"/>
        <pt x="325" y="104" on="0"/>
        <pt x="325" y="80" on="1"/>
        <pt x="325" y="55" on="0"/>
      </contour>
    </TTGlyph>
    <TTGlyph name="dollar" xMin="60" yMin="-68" xMax="457" yMax="653">
      <contour>
        <pt x="133" y="427" on="1"/>
        <pt x="133" y="388" on="0"/>
        <pt x="186" y="344" on="0"/>
        <pt x="235" y="329" on="1"/>
        <pt x="235" y="522" on="1"/>
        <pt x="190" y="520" on="0"/>
        <pt x="133" y="472" on="0"/>
      </contour>
      <contour>
        <pt x="395" y="152" on="1"/>
        <pt x="395" y="194" on="0"/>
        <pt x="335" y="234" on="0"/>
        <pt x="276" y="250" on="1"/>
        <pt x="276" y="44" on="1"/>
        <pt x="327" y="46" on="0"/>
        <pt x="395" y="101" on="0"/>
      </contour>
      <contour>
        <pt x="395" y="458" on="1"/>
        <pt x="381" y="482" on="0"/>
        <pt x="314" y="516" on="0"/>
        <pt x="275" y="521" on="1"/>
        <pt x="275" y="318" on="1"/>
        <pt x="298" y="312" on="0"/>
        <pt x="305" y="310" on="0"/>
        <pt x="348" y="298" on="0"/>
        <pt x="358" y="293" on="0"/>
        <pt x="394" y="279" on="0"/>
        <pt x="405" y="269" on="0"/>
        <pt x="430" y="252" on="0"/>
        <pt x="439" y="234" on="0"/>
        <pt x="453" y="212" on="0"/>
        <pt x="457" y="185" on="0"/>
        <pt x="457" y="170" on="1"/>
        <pt x="457" y="83" on="0"/>
        <pt x="355" y="-2" on="0"/>
        <pt x="276" y="-9" on="1"/>
        <pt x="278" y="-49" on="0"/>
        <pt x="280" y="-66" on="1"/>
        <pt x="265" y="-68" on="1"/>
        <pt x="236" y="-68" on="0"/>
        <pt x="236" y="-41" on="1"/>
        <pt x="236" y="-10" on="1"/>
        <pt x="165" y="-8" on="0"/>
        <pt x="60" y="38" on="0"/>
        <pt x="60" y="70" on="1"/>
        <pt x="60" y="87" on="0"/>
        <pt x="82" y="107" on="0"/>
        <pt x="104" y="117" on="1"/>
        <pt x="119" y="90" on="0"/>
        <pt x="193" y="51" on="0"/>
        <pt x="236" y="46" on="1"/>
        <pt x="236" y="259" on="1"/>
        <pt x="207" y="266" on="0"/>
        <pt x="166" y="280" on="0"/>
        <pt x="118" y="307" on="0"/>
        <pt x="90" y="339" on="0"/>
        <pt x="70" y="392" on="0"/>
        <pt x="70" y="425" on="1"/>
        <pt x="70" y="490" on="0"/>
        <pt x="161" y="567" on="0"/>
        <pt x="235" y="576" on="1"/>
        <pt x="233" y="628" on="0"/>
        <pt x="231" y="650" on="1"/>
        <pt x="242" y="653" on="0"/>
        <pt x="248" y="653" on="1"/>
        <pt x="275" y="653" on="0"/>
        <pt x="275" y="626" on="1"/>
        <pt x="275" y="579" on="1"/>
        <pt x="337" y="579" on="0"/>
        <pt x="444" y="537" on="0"/>
        <pt x="444" y="500" on="1"/>
        <pt x="444" y="467" on="0"/>
      </contour>
    </TTGlyph>
    <TTGlyph name="dotaccent" xMin="0" yMin="521" xMax="103" yMax="628">
      <contour>
        <pt x="51" y="521" on="1"/>
        <pt x="30" y="521" on="0"/>
        <pt x="0" y="551" on="0"/>
        <pt x="0" y="575" on="1"/>
        <pt x="0" y="597" on="0"/>
        <pt x="32" y="628" on="0"/>
        <pt x="53" y="628" on="1"/>
        <pt x="73" y="628" on="0"/>
        <pt x="103" y="597" on="0"/>
        <pt x="103" y="575" on="1"/>
        <pt x="103" y="552" on="0"/>
        <pt x="71" y="521" on="0"/>
      </contour>
    </TTGlyph>
    <TTGlyph name="dotlessi" xMin="66" yMin="-3" xMax="158" yMax="468">
      <contour>
        <pt x="100" y="468" on="1"/>
        <pt x="147" y="468" on="0"/>
        <pt x="147" y="430" on="1"/>
        <pt x="147" y="425" on="0"/>
        <pt x="143" y="354" on="0"/>
        <pt x="139" y="250" on="0"/>
        <pt x="139" y="203" on="1"/>
        <pt x="139" y="68" on="0"/>
        <pt x="158" y="5" on="1"/>
        <pt x="140" y="-3" on="0"/>
        <pt x="120" y="-3" on="1"/>
        <pt x="91" y="-3" on="0"/>
        <pt x="71" y="23" on="0"/>
        <pt x="71" y="54" on="1"/>
        <pt x="71" y="70" on="0"/>
        <pt x="73" y="196" on="0"/>
        <pt x="73" y="231" on="1"/>
        <pt x="73" y="374" on="0"/>
        <pt x="66" y="465" on="1"/>
        <pt x="82" y="468" on="0"/>
      </contour>
    </TTGlyph>
    <TTGlyph name="e" xMin="82" yMin="-1" xMax="410" yMax="519">
      <contour>
        <pt x="163" y="460" on="1"/>
        <pt x="166" y="436" on="0"/>
        <pt x="166" y="305" on="1"/>
        <pt x="230" y="305" on="1"/>
        <pt x="297" y="305" on="0"/>
        <pt x="326" y="308" on="1"/>
        <pt x="329" y="300" on="0"/>
        <pt x="329" y="286" on="1"/>
        <pt x="329" y="266" on="0"/>
        <pt x="312" y="251" on="0"/>
        <pt x="294" y="250" on="1"/>
        <pt x="273" y="249" on="0"/>
        <pt x="237" y="249" on="1"/>
        <pt x="166" y="249" on="1"/>
        <pt x="166" y="88" on="0"/>
        <pt x="172" y="55" on="1"/>
        <pt x="208" y="53" on="0"/>
        <pt x="230" y="53" on="1"/>
        <pt x="362" y="53" on="0"/>
        <pt x="403" y="71" on="1"/>
        <pt x="410" y="53" on="0"/>
        <pt x="410" y="33" on="1"/>
        <pt x="410" y="17" on="0"/>
        <pt x="402" y="10" on="1"/>
        <pt x="387" y="-1" on="0"/>
        <pt x="266" y="-1" on="1"/>
        <pt x="242" y="-1" on="0"/>
        <pt x="136" y="0" on="0"/>
        <pt x="134" y="0" on="1"/>
        <pt x="109" y="1" on="0"/>
        <pt x="92" y="21" on="0"/>
        <pt x="92" y="44" on="1"/>
        <pt x="92" y="58" on="0"/>
        <pt x="94" y="153" on="0"/>
        <pt x="94" y="180" on="1"/>
        <pt x="94" y="333" on="1"/>
        <pt x="94" y="447" on="0"/>
        <pt x="82" y="512" on="1"/>
        <pt x="180" y="519" on="0"/>
        <pt x="265" y="519" on="1"/>
        <pt x="386" y="519" on="0"/>
        <pt x="401" y="507" on="1"/>
        <pt x="409" y="500" on="0"/>
        <pt x="409" y="484" on="1"/>
        <pt x="409" y="464" on="0"/>
        <pt x="402" y="446" on="1"/>
        <pt x="354" y="462" on="0"/>
        <pt x="252" y="462" on="1"/>
        <pt x="213" y="462" on="0"/>
      </contour>
    </TTGlyph>
    <TTGlyph name="eacute" xMin="82" yMin="-1" xMax="410" yMax="747">
      <contour>
        <pt x="377" y="664" on="1"/>
        <pt x="355" y="648" on="0"/>
        <pt x="240" y="581" on="0"/>
        <pt x="227" y="569" on="1"/>
        <pt x="211" y="583" on="0"/>
        <pt x="211" y="598" on="1"/>
        <pt x="211" y="615" on="0"/>
        <pt x="243" y="640" on="0"/>
        <pt x="326" y="702" on="0"/>
        <pt x="367" y="747" on="1"/>
        <pt x="402" y="727" on="0"/>
        <pt x="402" y="701" on="1"/>
        <pt x="402" y="681" on="0"/>
      </contour>
      <contour>
        <pt x="163" y="460" on="1"/>
        <pt x="166" y="436" on="0"/>
        <pt x="166" y="305" on="1"/>
        <pt x="230" y="305" on="1"/>
        <pt x="297" y="305" on="0"/>
        <pt x="326" y="308" on="1"/>
        <pt x="329" y="300" on="0"/>
        <pt x="329" y="286" on="1"/>
        <pt x="329" y="266" on="0"/>
        <pt x="312" y="251" on="0"/>
        <pt x="294" y="250" on="1"/>
        <pt x="273" y="249" on="0"/>
        <pt x="237" y="249" on="1"/>
        <pt x="166" y="249" on="1"/>
        <pt x="166" y="88" on="0"/>
        <pt x="172" y="55" on="1"/>
        <pt x="208" y="53" on="0"/>
        <pt x="230" y="53" on="1"/>
        <pt x="362" y="53" on="0"/>
        <pt x="403" y="71" on="1"/>
        <pt x="410" y="53" on="0"/>
        <pt x="410" y="33" on="1"/>
        <pt x="410" y="17" on="0"/>
        <pt x="402" y="10" on="1"/>
        <pt x="387" y="-1" on="0"/>
        <pt x="266" y="-1" on="1"/>
        <pt x="242" y="-1" on="0"/>
        <pt x="136" y="0" on="0"/>
        <pt x="134" y="0" on="1"/>
        <pt x="109" y="1" on="0"/>
        <pt x="92" y="21" on="0"/>
        <pt x="92" y="44" on="1"/>
        <pt x="92" y="58" on="0"/>
        <pt x="94" y="153" on="0"/>
        <pt x="94" y="180" on="1"/>
        <pt x="94" y="333" on="1"/>
        <pt x="94" y="447" on="0"/>
        <pt x="82" y="512" on="1"/>
        <pt x="180" y="519" on="0"/>
        <pt x="265" y="519" on="1"/>
        <pt x="386" y="519" on="0"/>
        <pt x="401" y="507" on="1"/>
        <pt x="409" y="500" on="0"/>
        <pt x="409" y="484" on="1"/>
        <pt x="409" y="464" on="0"/>
        <pt x="402" y="446" on="1"/>
        <pt x="354" y="462" on="0"/>
        <pt x="252" y="462" on="1"/>
        <pt x="213" y="462" on="0"/>
      </contour>
    </TTGlyph>
    <TTGlyph name="ecircumflex" xMin="82" yMin="-1" xMax="410" yMax="724">
      <contour>
        <pt x="242" y="724" on="1"/>
        <pt x="289" y="694" on="0"/>
        <pt x="372" y="619" on="0"/>
        <pt x="372" y="592" on="1"/>
        <pt x="372" y="574" on="0"/>
        <pt x="349" y="564" on="1"/>
        <pt x="330" y="588" on="0"/>
        <pt x="276" y="632" on="0"/>
        <pt x="258" y="642" on="1"/>
        <pt x="240" y="653" on="1"/>
        <pt x="234" y="648" on="0"/>
        <pt x="209" y="627" on="0"/>
        <pt x="194" y="615" on="0"/>
        <pt x="172" y="598" on="0"/>
        <pt x="157" y="587" on="0"/>
        <pt x="142" y="577" on="0"/>
        <pt x="130" y="572" on="0"/>
        <pt x="126" y="572" on="1"/>
        <pt x="114" y="572" on="0"/>
        <pt x="101" y="590" on="1"/>
        <pt x="165" y="667" on="0"/>
      </contour>
      <contour>
        <pt x="163" y="460" on="1"/>
        <pt x="166" y="436" on="0"/>
        <pt x="166" y="305" on="1"/>
        <pt x="230" y="305" on="1"/>
        <pt x="297" y="305" on="0"/>
        <pt x="326" y="308" on="1"/>
        <pt x="329" y="300" on="0"/>
        <pt x="329" y="286" on="1"/>
        <pt x="329" y="266" on="0"/>
        <pt x="312" y="251" on="0"/>
        <pt x="294" y="250" on="1"/>
        <pt x="273" y="249" on="0"/>
        <pt x="237" y="249" on="1"/>
        <pt x="166" y="249" on="1"/>
        <pt x="166" y="88" on="0"/>
        <pt x="172" y="55" on="1"/>
        <pt x="208" y="53" on="0"/>
        <pt x="230" y="53" on="1"/>
        <pt x="362" y="53" on="0"/>
        <pt x="403" y="71" on="1"/>
        <pt x="410" y="53" on="0"/>
        <pt x="410" y="33" on="1"/>
        <pt x="410" y="17" on="0"/>
        <pt x="402" y="10" on="1"/>
        <pt x="387" y="-1" on="0"/>
        <pt x="266" y="-1" on="1"/>
        <pt x="242" y="-1" on="0"/>
        <pt x="136" y="0" on="0"/>
        <pt x="134" y="0" on="1"/>
        <pt x="109" y="1" on="0"/>
        <pt x="92" y="21" on="0"/>
        <pt x="92" y="44" on="1"/>
        <pt x="92" y="58" on="0"/>
        <pt x="94" y="153" on="0"/>
        <pt x="94" y="180" on="1"/>
        <pt x="94" y="333" on="1"/>
        <pt x="94" y="447" on="0"/>
        <pt x="82" y="512" on="1"/>
        <pt x="180" y="519" on="0"/>
        <pt x="265" y="519" on="1"/>
        <pt x="386" y="519" on="0"/>
        <pt x="401" y="507" on="1"/>
        <pt x="409" y="500" on="0"/>
        <pt x="409" y="484" on="1"/>
        <pt x="409" y="464" on="0"/>
        <pt x="402" y="446" on="1"/>
        <pt x="354" y="462" on="0"/>
        <pt x="252" y="462" on="1"/>
        <pt x="213" y="462" on="0"/>
      </contour>
    </TTGlyph>
</ttFont>
